/* XPM */
static char *fa26f8b0bd9a46abd828de62a267704e[] = {
/* columns rows colors chars-per-pixel */
"112 49 204 2 ",
"   c #153C09",
".  c #143D09",
"X  c #153D0A",
"o  c #153F0A",
"O  c #194709",
"+  c #1B470A",
"@  c #18480B",
"#  c #18490B",
"$  c #0F530D",
"%  c #0F530F",
"&  c #0F540F",
"*  c #10500F",
"=  c #17520C",
"-  c #17530C",
";  c #1F560B",
":  c #1E540C",
">  c #1E550C",
",  c #155E0F",
"<  c #1B5D0D",
"1  c #1B5E0D",
"2  c #20570B",
"3  c #215D0C",
"4  c #225E0C",
"5  c #235F0C",
"6  c #245F0C",
"7  c #16610F",
"8  c #136310",
"9  c #136610",
"0  c #1A6710",
"q  c #126C12",
"w  c #136E13",
"e  c #1B6810",
"r  c #177313",
"t  c #197112",
"y  c #197212",
"u  c #1F7110",
"i  c #1F7210",
"p  c #1F7310",
"a  c #1F7311",
"s  c #187513",
"d  c #1D7411",
"f  c #1F7411",
"g  c #1E7611",
"h  c #1F7611",
"j  c #1F7711",
"k  c #1E7512",
"l  c #1F7712",
"z  c #167D14",
"x  c #1E7811",
"c  c #1E7812",
"v  c #1F7912",
"b  c #1C7A12",
"n  c #1C7A13",
"m  c #1E7A12",
"M  c #1E7B12",
"N  c #1E7B13",
"B  c #1D7D12",
"V  c #1D7D13",
"C  c #1E7D13",
"Z  c #1D7F13",
"A  c #1E7E13",
"S  c #1D7F14",
"D  c #22600C",
"F  c #23600C",
"G  c #23610C",
"H  c #23610D",
"J  c #21630D",
"K  c #22620C",
"L  c #22620D",
"P  c #22630D",
"I  c #23630D",
"U  c #21650D",
"Y  c #22640D",
"T  c #23640D",
"R  c #22650D",
"E  c #21670D",
"W  c #22650F",
"Q  c #21670E",
"!  c #22660E",
"~  c #21680D",
"^  c #21680E",
"/  c #22680E",
"(  c #206A0E",
")  c #216A0E",
"_  c #216B0E",
"`  c #206A0F",
"'  c #216A0F",
"]  c #216B0F",
"[  c #206C0E",
"{  c #206C0F",
"}  c #216D0F",
"|  c #206E0F",
" . c #216C10",
".. c #206E10",
"X. c #206F10",
"o. c #207110",
"O. c #207210",
"+. c #207310",
"@. c #207211",
"#. c #207411",
"$. c #477D11",
"%. c #168016",
"&. c #178517",
"*. c #178617",
"=. c #1D8014",
"-. c #1C8114",
";. c #1D8114",
":. c #1E8014",
">. c #1D8214",
",. c #1B8615",
"<. c #1C8414",
"1. c #1C8415",
"2. c #1C8515",
"3. c #1D8515",
"4. c #1C8615",
"5. c #1C8715",
"6. c #1C8716",
"7. c #1B8915",
"8. c #1B8816",
"9. c #1B8916",
"0. c #1B8917",
"q. c #1B8B16",
"w. c #1C8A16",
"e. c #1B8C16",
"r. c #1A8D16",
"t. c #1B8C17",
"y. c #1A8D17",
"u. c #1B8D17",
"i. c #1B8E17",
"p. c #1A9017",
"a. c #199217",
"s. c #199119",
"d. c #1A9018",
"f. c #1A9118",
"g. c #1B9118",
"h. c #199218",
"j. c #199219",
"k. c #1A9218",
"l. c #1A9318",
"z. c #199518",
"x. c #199519",
"c. c #199619",
"v. c #189719",
"b. c #199719",
"n. c #1A9619",
"m. c #199819",
"M. c #19981A",
"N. c #1C877A",
"B. c #558A43",
"V. c #47895D",
"C. c #558351",
"Z. c #608F5D",
"A. c #60905D",
"S. c #B8AB44",
"D. c #B2BC69",
"F. c #D3B55D",
"G. c #D2B65D",
"H. c #D3B75D",
"J. c #D7B45D",
"K. c #1E8599",
"L. c #1E8799",
"P. c #1E8A99",
"I. c #1D9199",
"U. c #19A083",
"Y. c #489DBD",
"T. c #36B1C8",
"R. c #47ADCD",
"E. c #55A9CD",
"W. c #55AACD",
"Q. c #55ABCD",
"!. c #55ADCD",
"~. c #54B6CD",
"^. c #53B8CD",
"/. c #53B9CD",
"(. c #53BACD",
"). c #53BFD2",
"_. c #7CC0DC",
"`. c #EED691",
"'. c #F2DB92",
"]. c #F2D898",
"[. c #F3DA98",
"{. c #F2DB98",
"}. c #F3DB98",
"|. c #F2DF99",
" X c #F2E099",
".X c #F2E199",
"XX c #FBE4A0",
"oX c #F7E4AC",
"OX c #BEDBC8",
"+X c #C3D8C3",
"@X c #C8DBC8",
"#X c #CDECEA",
"$X c #E5E9E1",
"%X c #E5E9E5",
"&X c #E5ECE5",
"*X c #EAECE5",
"=X c #EAF2E5",
"-X c #EEFCFF",
";X c #EEFFFF",
":X c #FFFFF2",
">X c #F2FFFF",
",X c #F3FFFF",
"<X c gray100",
"1X c None",
/* pixels */
"1X1X1X1X1X1X1X1X1X1X1X1X1X1X1X1X1X1X1X1X1X1X1X1X1X1X1X1X1X1X1X1X1X1X1X1X1X1X1X1X1X1X1X1X1X1X1X1X1X1X1X1X1X1X1X1X1X1X1X1X1X1X1X1X1X1X1X1X1X1X1X1X1X1X1X1X1X1X1X1X1X1X1X1X1X1X1X1X1X1X1X1X1X1X1X1X1X1X1X1X1X1X1X1X1X1X1X1X1X1X1X1X",
"1X1X1X1X1X1X1X1X1X1X1X1X1X1X1X1X1X1X1X1X1X1X1X1X1X1X1X1X1X1X1X1X1X1X1X1X1X1X1X1X1X1X1X1X1X1X1X1X1X1X1X1X1X1X1X1X1X1X1X1X1X1X1X1X1X1X1X1X1X1X1X1X1X1X1X1X1X1X1X1X1X1X1X1X1X1X1X1X1X1X1X1X1X1X1X1X1X1X1X1X1X1X1X1X1X1X1X1X1X1X1X1X",
"1X1X1X1X1X1X1X1X1X1X1X1X1X1X1X1X1X1X1X1X1X1X1X1X1X1X1X1X1X1X1X1X1X1X1X1X1X1X1X1X1X1X1X1X1X1X1X1X1X1X1X1X1X1X1X1X1X1X1X1X1X1X1X1X1X1X1X1X1X1X1X1X1X1X1X1X1X1X1X1X1X1X1X1X1X1X1X1X1X1X1X1X1X1X1X1X1X1X1X1X1X1X1X1X1X1X1X1X1X1X1X1X",
"1X1X1X1X1X1X1X1X1X1X1X1X1X1X1X1X1X1X1X1X1X1X1X1X1X1X1X1X1X1X1X1X1X1X1X1X1X1X1X1X1X1X1X1X1X1X1X1X1X1X1X1X1X1X1X1X1X1X1X1X1X1X1X1X1X1X1X1X1X1X1X1X1X1X1X1X1X1X1X1X1X1X1X1X1X1X1X1X1X1X1X1X1X1X1X1X1X1X1X1X1X1X1X1X1X1X1X1X1X1X1X1X",
"1X1X1X1X1X1X1X1X1X1X1X1X1X1X1X1X1X1X1X1X1X1X1X1X1X1X1X1X1X1X1X1X1X1X1X1X1X1X1X1X1X1X1X1X1X1X1X1X1X1X1X1X1X1X1X1X1X1X1X1X1X1X1X1X1X1X1X1X1X1X1X1X1X1X1X1X1X1X1X1X1X1X1X1X1X1X1X1X1X1X1X1X1X1X1X1X1X1X1X1X1X1X1X1X1X1X1X1X1X1X1X1X",
"1X1X1X1X1X1X1X1X1X1X1X1X1X1X1X1X1X1X1X1X1X1X1X1X1X1X1X1X1X1X1X1X1X1X1X1X1X1X1X1X1X1X1X1X1X1X1X1X1X1X1X1X1X1X1X1X1X1X1X1X1X1X1X1X1X1X1X1X1X1X1X1X1X1X1X1X1X1X1X1X1X1X1X1X1X1X1X1X1X1X1X1X1X1X1X1X1X1X1X1X1X1X1X1X1X1X1X1X1X1X1X1X",
"1X1X1X1X1X1X1X1X1X1X1X1X1X1X1X1X1X1X1X1X1X1X1X1X1X1X1X1X1X1X1X1X1X1X1X1X1X1X1X1X1X1X1X1X1X1X1X1X1X1X1X1X1X1X1X1X1X1X1X1X1X1X1X1X1X1X1X1X1X1X1X1X1X1X1X1X1X1X1X1X1X1X1X1X1X1X1X1X1X1X1X1X1X1X1X1X1X1X1X1X1X1X1X1X1X1X1X1X1X1X1X1X",
"1X1X1X1X1X1X1X1X1X1X1X1X1X1X1X1X1X1X1X1X1X1X1X1X1X1X1X1X1X1X1X1X1X1X1X1X1X1X1X1X1X1X1X1X1X1X1X1X1X1X1X1X1X1X1X1X1X1X1X1X1X1X1X1X1X1X1X1X1X1X1X1X1X1X1X1X1X1X1X1X1X1X1X1X1X1X1X1X1X1X1X1X1X1X1X1X1X1X1X1X1X1X1X1X1X1X1X1X1X1X1X1X",
"1X1X1X1X1X1X1X1X1X1X1X1X1X1X1X1X1X1X1X1X1X1X1X1X1X1X1X1X1X1X1X1X1X1X1X1X1X1X1X1X1X1X1X1X1X1X1X1X1X1X1X1X1X1X1X1X1X1X1X1X1X1X1X1X1X1X1X1X1X1X1X1X1X1X1X1X1X1X1X1X1X1X1X1X1X1X1X1X1X1X1X1X1X1X1X1X1X1X1X1X1X1X1X1X1X1X1X1X1X1X1X1X",
"1X1X1X1X1X1X1X1X1X1X1X1X1X1X1X1X1X1X1X1X1X1X1X1X1X1X1X1X1X1X1X1X1X1X1X1X1X1X1X1X1X1X1X1X1X1X1X1X1X1X1X1X1X1X1X1X1X1X1X1X1X1X1X1X1X1X1X1X1X1X1X1X1X1X1X1X1X1X1X1X1X1X1X1X1X1X1X1X1X1X1X1X1X1X1X1X1X1X1X1X1X1X1X1X1X1X1X1X1X1X1X1X",
"1X1X1X1X1X1X1X1X1X1X1X1X1X1X1X1X1X1X1X1X1X1X1X1X1X1X1X1X1X1X1X1X1X1X1X1X1X1X1X1X1X1X1X1X1X1X1X1X1X1X1X1X1X1X1X1X1X1X1X1X1X1X1X1X1X1X1X1X1X1X1X1X1X1X1X1X1X1X1X1X1X1X1X1X1X1X1X1X1X1X1X1X1X1X1X1X1X1X1X1X1X1X1X1X1X1X1X1X1X1X1X1X",
"1X1X1X1X1X1X1X1X1X1X1X1X1X1X1X1X1X1X1X1X1X1X1X1X1X1X1X1X1X1X1X1X1X1X1X1X1X1X1X1X1X1X1X1X1X1X1X1X1X1X1X1X1X1X1X1X1X1X1X1X1X1X1X1X1X1X1X1X1X1X1X1X1X1X1X1X1X1X1X1X1X1X1X1X1X1X1X1X1X1X1X1X1X1X1X1X1X1X1X1X1X1X1X1X1X1X1X1X1X1X1X1X",
"1X1X1X1X1X1X1X1X1X1X1X1X1X1X1X1X1X1X1X1X1X1X1X1X1X1X1X1X1X1X1X1X1X1X1X1X1X1X1X1X1X1X1X1X1X1X1X1X1X1X1X1X1X1X1X1X1X1X1X1X1X1X1X1X1X1X1X1X1X1X1X1X1X1X1X1X1X1X1X1X1X1X1X1X1X1X1X1X1X1X1X1X1X1X1X1X1X1X1X1X1X1X1X1X1X1X1X1X1X1X1X1X",
"1X1X1X1X1X1X1X1X1X1X1X1X1X1X1X1X1X1X1X1X1X1X1X1X1X1X1X1X1X1X1X1X1X1X1X1X1X1X1X1X1X1X1X1X1X1X1X1X1X1X1X1X1X1X1X1X1X1X1X1X1X1X1X1X1X1X1X1X1X1X1X1X1X1X1X1X1X1X1X1X1X1X1X1X1X1X1X1X1X1X1X1X1X1X1X1X1X1X1X1X1X1X1X1X1X1X1X1X1X1X1X1X",
"1X1X1X1X1X1X1X1X1X1X1X1X1X1X1X1X1X1X1X1X1X1X1X1X1X1X1X1X1X1X1X1X1X1X1X1X1X1X1X1X1X1X1X1X1X1X1X1X1X1X1X1X1X1X1X1X1X1X1X1X1X1X1X1X1X1X1X1X1X1X1X1X1X1X1X1X1X1X1X1X1X1X1X1X1X1X1X1X1X1X1X1X1X1X1X1X1X1X1X1X1X1X1X1X1X1X1X1X1X1X1X1X",
"1X1X1X1X1X1X1X1X1X1X1X1X1X1X1X1X1X1X1X1X1X1X1X1X1X1X1X1X1X1X1X1X1X1X1X1X1X1X1X1X1X1X1X1X1X1X1X1X1X1X1X1X1X1X1X1X1X1X1X1X1X1X1X1X1X1X1X1X1X1X1X1X1X1X1X1X1X1X1X1X1X1X1X1X1X1X1X1X1X1X1X1X1X1X1X1X1X1X1X1X1X1X1X1X1X1X1X1X1X1X1X1X",
"1X1X1X1X1X1X1X1X1X1X1X1X1X1Xw *.j.x.m.m.m.m.m.m.m.m.m.m.m.m.m.m.m.m.m.x.m.m.m.m.x.m.m.m.m.m.m.m.m.m.m.x.m.m.m.m.x.m.m.m.x.m.m.m.m.m.m.m.x.m.m.m.m.m.m.m.m.m.m.m.m.m.m.x.x.m.m.m.x.m.m.m.m.m.x.j.1.w 1X1X1X1X1X1X1X1X1X1X1X1X1X1X",
"1X1X1X1X1X1X1X1X1X1X1X1Xz x.l.x.x.x.l.x.x.l.x.m.x.x.x.l.x.x.l.x.x.x.l.x.m.a.m.a.x.m.x.l.x.x.l.x.x.x.x.x.x.x.x.x.x.x.m.x.l.x.x.x.x.x.l.m.x.l.m.l.x.x.x.x.x.x.x.x.x.x.l.x.x.x.v.a.x.m.x.l.x.x.x.x.x.v.l.%.1X1X1X1X1X1X1X1X1X1X1X1X",
"1X1X1X1X1X1X1X1X1X1X% j.j.j.l.j.l.l.p.x.x.p.p.x.p.j.p.x.p.l.l.x.l.l.p.x.x.p.a.l.p.x.p.l.p.x.j.j.p.x.l.l.p.U.OX+X+X@XD.p.p.l.l.l.j.g.j.x.l.l.p.l.p.x.p.l.j.p.x.p.l.l.p.x.x.p.h.x.p.x.p.l.g.l.j.j.j.p.j.x.j.& 1X1X1X1X1X1X1X1X1X1X",
"1X1X1X1X1X1X1X1X1X8 j.i.p.p.p.p.p.p.p.p.p.j.p.p.j.p.p.p.p.j.p.p.p.p.j.p.p.j.p.p.p.p.j.p.p.p.i.j.p.p.p.p.j.).<X<X<X<XXXp.p.j.p.p.p.p.p.p.p.j.p.j.j.p.p.p.p.p.p.j.p.p.j.p.p.j.p.p.p.p.j.p.p.p.g.i.j.p.p.p.p.g.9 1X1X1X1X1X1X1X1X1X",
"1X1X1X1X1X1X1X1X* i.i.i.u.u.i.i.u.u.u.u.u.u.u.u.i.i.0.u.u.u.i.i.u.u.u.u.u.u.u.u.i.i.u.i.i.i.i.i.i.i.i.i.i./.<X<X<X<X Xi.p.i.i.i.i.i.i.u.0.i.i.i.i.i.u.i.i.7.u.u.i.i.i.i.u.u.u.u.i.i.u.i.i.i.i.i.i.i.i.i.u.u.u.% 1X1X1X1X1X1X1X1X",
"1X1X1X1X1X1X1X1Xw.w.t.0.u.0.i.7.u.7.r.0.u.u.0.u.i.w.i.0.u.0.i.7.u.u.u.0.u.0.u.0.i.7.i.7.7.i.i.7.7.i.7.i.i./.<X<X<X<X|.i.i.7.u.0.i.w.0.0.i.i.7.i.i.7.i.i.i.7.u.0.i.7.i.7.t.u.0.u.i.7.i.7.7.i.w.i.i.7.7.i.i.i.0.0.1X1X1X1X1X1X1X1X",
"1X1X1X1X1X1X1Xr 7.w.7.7.0.7.7.7.7.0.0.7.0.7.0.7.7.w.7.7.0.7.7.7.5.0.5.0.0.0.w.w.w.7.7.7.7.7.7.0.7.7.7.w.7.~.<X<X<X<X X7.7.7.0.0.7.w.7.7.7.7.7.7.7.7.7.7.w.w.0.0.7.7.7.7.t.1.w.w.7.7.7.7.7.7.7.7.7.7.7.7.0.7.5.0.d 1X1X1X1X1X1X1X",
"1X1X1X1X1X1X1X4.4.4.4.7.4.4.4.4.5.<.5.5.5.5.5.5.4.4.4.7.4.4.4.4.5.<.7.5.t.1.1.4.4.4.4.4.7.<.<.0.4.4.4.4.6.~.<X<X<X<X X4.7.4.4.<.4.4.4.4.4.4.4.4.4.4.4.4.4.4.4.4.4.4.4.4.w.4.4.4.4.4.4.4.4.4.4.4.4.4.7.<.7.<.7.<.4.1X1X1X1X1X1X1X",
"1X1X1X1X1X1X, 4.4.1.1.1.1.4.<.4.<.<.4.4.<.4.4.4.>.4.;.4.1.4.<.4.<.<.-.4.<.3.4.4.4.4.;.<.4.4.-.1.4.1.1.1.-.T.<X<X<X<X'.4.;.4.4.;.4.4.;.1.5.4.;.4.3.4.<.<.;.<.5.1.4.4.4.4.;.4.4.4.4.4.4.<.4.4.<.4.4.;.4.4.<.4.4.4.3., 1X1X1X1X1X1X",
"1X1X1X1X1X1Xy ;.;.;.-.-.-.-.-.-.-.-.-.-.-.-.-.-.-.-.>.-.-.-.-.-.-.<.>.-.>.>.-.A -.-.-.<.-.-.N.#X*X&X&X&X$X-X<X<X<X<X:X%X&X&X&X&X=XS.;.1.-.-.-.>.-.-.>.-.-.-.-.-.;.;.;.;.;.;.;.;.-.-.-.-.;.V -.-.;.;.;.;.-.-.-.-.-.p 1X1X1X1X1X1X",
"1X1X1X1X1X1Xb S V -.-.V 1.V B -.-.A -.-.-.-.B -.-.V >.A 1.V B -.-.>.V -.-.V V -.-.V -.B V -.I.,X<X<X<X<X<X<X<X<X<X<X<X<X<X<X<X<X<XG.V -.V V -.-.A -.V -.-.-.-.-.S ;.S V ;.V V ;.-.V -.B ;.V ;.-.V S ;.S -.-.B -.1.v 1X1X1X1X1X1X",
"1X1X1X1X1X1XV B A V V V B B V B A V V V V V V B A V A V B B V B V V V V A A A A V V V B V V P.,X<X<X<X<X<X<X<X<X<X<X<X<X<X<X<X<X<XG.V B V V A V A A V V V V B B S v S V V V V V V B V B V V V V V S N S V V V B V V 1X1X1X1X1X1X",
"1X1X1X1X1X1Xv v M M v v V v v v M M v V v v b v M M v v V V v v V b v v M M M M v v B v V v K.;X<X<X<X<X<X<X<X<X<X<X<X<X<X<X<X<X<XG.v b v v v v M M M M v v b v v b b v v V v v b v v v V b v v v S v v b V b v v v 1X1X1X1X1X1X",
"1X1X1X1X1X1Xl v #.M v x v v b v M #.l h v v g v M #.v h v h b v l v v l M #.#.M v v l b v x K.,X<X<X<X<X<X<X<X<X<X<X<X<X<X<X<X<X<XJ.l x v b x v #.M v #.b x v v v v v h v v v v v v b v l l v v l l l h v v h v l l 1X1X1X1X1X1X",
"1X1X1X1X1X1X0 l #.l h h l l h g #.l l h v l g l #.l l h l l h h l l l l l l l #.h h h h l l h V.Z.Z.A.Z.B._.<X<X<X<XoXC.A.Z.Z.Z.Z.$.l h v l l l h l l l l l l l v d l l l l l l l h h h l l l l l l l l l l h l d 0 1X1X1X1X1X1X",
"1X1X1X1X1X1X= p #.h h i i h i i #.#.i l i i i h #.+.h i i h i i i p p +.i p p l i h i h i i h i i l i #.i R.<X<X<X<X].h i i i l h i i h i i i i h i #.i i i i p i l i l i p p i i i h i h i +.+.i p i l i i i h l = 1X1X1X1X1X1X",
"1X1X1X1X1X1X1X+. .+.+.#.+.+.i l  .+.+. .X.X.+.+.+.X.X.#.+.p u +.i i +.p  .+.+.+.+.+.+.+.+.+.p +.p +.+.u p !.<X<X<X<X[.+.+.+.+.+.p  .p p  .p +.+. .+. .p +.+.p p p +.+.+. .+.+.+.p  .p +.+.+.+.+.u +.+. .p  .p p p 1X1X1X1X1X1X1X",
"1X1X1X1X1X1X1X< [ +. .[  .[ [ [ p +.[ +.X.i  .[ X.X.X.[  . .[ u u [  .+.[ p  .{ [ X. .[  . .[  . .u [  .[ W.<X<X<X<X|.[ [  .[  .p  .[ +.i  .+. . .+.+.[ X. .[  . .[ [ +.[ +. .{  .+.u [ u  .X. . .+.[ +.[ u  .` < 1X1X1X1X1X1X1X",
"1X1X1X1X1X1X1X1Xu ` [ [ [  .[ [ ` [ [  .[ [ ` [ [ [ [ [ ` [ [ [ ` [ [ [ [ ` u ` [ [ [ [ [  .[ [ [ [ u ` ` W.<X<X<X<X{.[ [ [  .[ [ [ ` [ [ [  .[ [ [ ` [ [ [ [ [ u ` ` [  .[ {  .[ [ [ [ ` [ [ [ ` [ [  . .[ ` u 1X1X1X1X1X1X1X1X",
"1X1X1X1X1X1X1X1X  ` ` ` ` [ ` ` ` ` [ `  .[ ` ` [ [ ` ` `  .` ` ` ` [ ` ] ` ` ` [ ` ` ` ` [ [  .` ` ` ` ` E.<X<X<X<X{.` ` ` `  .` ` [ ` ` ` ` [  .` ` ` ` [ ` ` ` ` [ ` ` [ ` ` ` ` ` ` ` ` ` ` ` ` [ ` `  .Q O 1X1X1X1X1X1X1X1X",
"1X1X1X1X1X1X1X1X1X@ ` ! ! ! ! Q ` ! ` ! ! ! ` Q ! ! ` ! ! ` ! Q ` Q ! ! ] ` ! ! ! ` ! ! ! Q ! ! ] ! ! ! ` Y.<X<X<X<X`.! ` ` ! ! ! Q ! Q ! ! ! ` ` T ! ! ` ! Q Q ! ! ` ! ` ` ! ! Q Q Q Q ! Q Q ! ` ! ! ` ` ! @ 1X1X1X1X1X1X1X1X1X",
"1X1X1X1X1X1X1X1X1X1X  K ! ! ! Q ! K ! U W W ! ! ! ! ! U ! ! ! ! ! ! ! ! T T ! ! K ! ! U ! Q ! ! U ! ! ! ! ! ! ! Q ! ! ! T ! ! ! Q Q ! Q ! ! ! W ! T ! ! ! ! ! J ! ! ! ! T T ! ! Q ! ! J ! Q ! ! ! ! ! U W   1X1X1X1X1X1X1X1X1X1X",
"1X1X1X1X1X1X1X1X1X1X1X1X: ! K K K K F ! K K K K K K K K K K K K K K K K K K K K ! K K K K ! K K K K I K K K K K K K K K K K K K K K K K K K K K ! K K K K J K K K K K K K K K K J K K K K K K K K K K ; 1X1X1X1X1X1X1X1X1X1X1X1X",
"1X1X1X1X1X1X1X1X1X1X1X1X1X1XO 2 5 6 K 5 K K 5 K 5 K 5 K 5 K 5 K 5 5 K 5 K 5 5 K 1 5 K K 5 5 5 K 5 F K 5 K 5 5 K 5 5 5 K K 5 5 K 5 K 5 5 K K 5 K 5 K 5 K 5 5 K K 5 K 5 5 K K 5 K 5 K 5 K 5 K 5 5 2 O 1X1X1X1X1X1X1X1X1X1X1X1X1X1X",
"1X1X1X1X1X1X1X1X1X1X1X1X1X1X1X1X1X1X1X1X1X1X1X1X1X1X1X1X1X1X1X1X1X1X1X1X1X1X1X1X1X1X1X1X1X1X1X1X1X1X1X1X1X1X1X1X1X1X1X1X1X1X1X1X1X1X1X1X1X1X1X1X1X1X1X1X1X1X1X1X1X1X1X1X1X1X1X1X1X1X1X1X1X1X1X1X1X1X1X1X1X1X1X1X1X1X1X1X1X1X1X1X",
"1X1X1X1X1X1X1X1X1X1X1X1X1X1X1X1X1X1X1X1X1X1X1X1X1X1X1X1X1X1X1X1X1X1X1X1X1X1X1X1X1X1X1X1X1X1X1X1X1X1X1X1X1X1X1X1X1X1X1X1X1X1X1X1X1X1X1X1X1X1X1X1X1X1X1X1X1X1X1X1X1X1X1X1X1X1X1X1X1X1X1X1X1X1X1X1X1X1X1X1X1X1X1X1X1X1X1X1X1X1X1X1X",
"1X1X1X1X1X1X1X1X1X1X1X1X1X1X1X1X1X1X1X1X1X1X1X1X1X1X1X1X1X1X1X1X1X1X1X1X1X1X1X1X1X1X1X1X1X1X1X1X1X1X1X1X1X1X1X1X1X1X1X1X1X1X1X1X1X1X1X1X1X1X1X1X1X1X1X1X1X1X1X1X1X1X1X1X1X1X1X1X1X1X1X1X1X1X1X1X1X1X1X1X1X1X1X1X1X1X1X1X1X1X1X1X",
"1X1X1X1X1X1X1X1X1X1X1X1X1X1X1X1X1X1X1X1X1X1X1X1X1X1X1X1X1X1X1X1X1X1X1X1X1X1X1X1X1X1X1X1X1X1X1X1X1X1X1X1X1X1X1X1X1X1X1X1X1X1X1X1X1X1X1X1X1X1X1X1X1X1X1X1X1X1X1X1X1X1X1X1X1X1X1X1X1X1X1X1X1X1X1X1X1X1X1X1X1X1X1X1X1X1X1X1X1X1X1X1X",
"1X1X1X1X1X1X1X1X1X1X1X1X1X1X1X1X1X1X1X1X1X1X1X1X1X1X1X1X1X1X1X1X1X1X1X1X1X1X1X1X1X1X1X1X1X1X1X1X1X1X1X1X1X1X1X1X1X1X1X1X1X1X1X1X1X1X1X1X1X1X1X1X1X1X1X1X1X1X1X1X1X1X1X1X1X1X1X1X1X1X1X1X1X1X1X1X1X1X1X1X1X1X1X1X1X1X1X1X1X1X1X1X",
"1X1X1X1X1X1X1X1X1X1X1X1X1X1X1X1X1X1X1X1X1X1X1X1X1X1X1X1X1X1X1X1X1X1X1X1X1X1X1X1X1X1X1X1X1X1X1X1X1X1X1X1X1X1X1X1X1X1X1X1X1X1X1X1X1X1X1X1X1X1X1X1X1X1X1X1X1X1X1X1X1X1X1X1X1X1X1X1X1X1X1X1X1X1X1X1X1X1X1X1X1X1X1X1X1X1X1X1X1X1X1X1X",
"1X1X1X1X1X1X1X1X1X1X1X1X1X1X1X1X1X1X1X1X1X1X1X1X1X1X1X1X1X1X1X1X1X1X1X1X1X1X1X1X1X1X1X1X1X1X1X1X1X1X1X1X1X1X1X1X1X1X1X1X1X1X1X1X1X1X1X1X1X1X1X1X1X1X1X1X1X1X1X1X1X1X1X1X1X1X1X1X1X1X1X1X1X1X1X1X1X1X1X1X1X1X1X1X1X1X1X1X1X1X1X1X",
"1X1X1X1X1X1X1X1X1X1X1X1X1X1X1X1X1X1X1X1X1X1X1X1X1X1X1X1X1X1X1X1X1X1X1X1X1X1X1X1X1X1X1X1X1X1X1X1X1X1X1X1X1X1X1X1X1X1X1X1X1X1X1X1X1X1X1X1X1X1X1X1X1X1X1X1X1X1X1X1X1X1X1X1X1X1X1X1X1X1X1X1X1X1X1X1X1X1X1X1X1X1X1X1X1X1X1X1X1X1X1X1X",
"1X1X1X1X1X1X1X1X1X1X1X1X1X1X1X1X1X1X1X1X1X1X1X1X1X1X1X1X1X1X1X1X1X1X1X1X1X1X1X1X1X1X1X1X1X1X1X1X1X1X1X1X1X1X1X1X1X1X1X1X1X1X1X1X1X1X1X1X1X1X1X1X1X1X1X1X1X1X1X1X1X1X1X1X1X1X1X1X1X1X1X1X1X1X1X1X1X1X1X1X1X1X1X1X1X1X1X1X1X1X1X1X"
};
