/* XPM */
static char *ambient[] = {
/* columns rows colors chars-per-pixel */
"100 48 92 1 ",
"  c #595E64",
". c #5C6167",
"X c #5E6369",
"o c #62676C",
"O c #656A6F",
"+ c #666A70",
"@ c #696E73",
"# c #6C7175",
"$ c #6F7478",
"% c #72767A",
"& c #767A7E",
"* c #777A80",
"= c #797E81",
"- c #7D8184",
"; c #7382B4",
": c #808487",
"> c #838789",
", c #868A8C",
"< c #8A8E8E",
"1 c #918381",
"2 c #8E928F",
"3 c #838C93",
"4 c #8A8E90",
"5 c #8D9192",
"6 c #919595",
"7 c #939798",
"8 c #969A9A",
"9 c #9A9E9E",
"0 c #A39789",
"q c #869AA6",
"w c #8D96B1",
"e c #8695BD",
"r c #8A9DBF",
"t c #9EA2A1",
"y c #94AAB4",
"u c #92A9BC",
"i c #A2A6A4",
"p c #A6A9A6",
"a c #A6A9AB",
"s c #AAAEAD",
"d c #ABAFB0",
"f c #ADB2B3",
"g c #B1B6B8",
"h c #B4B9BD",
"j c #BABCBC",
"k c #D7AD8B",
"l c #D8B08A",
"z c #C5AC9B",
"x c #C1B29C",
"c c #DCB393",
"v c #DFBD9C",
"b c #E2BD9B",
"n c #E3BEA2",
"m c #E2C3A7",
"M c #F9DFBA",
"N c #FCE2BD",
"B c #89A1C4",
"V c #B6BCC1",
"C c #B9BFC4",
"Z c #BAC1C7",
"A c #BDC4CB",
"S c #B3DBF6",
"D c #B6DEF9",
"F c #C0C7CF",
"G c #CBCCCC",
"H c #C0C7D0",
"J c #C1C9D2",
"K c #C6CED8",
"L c #C7D0DB",
"P c #C9D2DD",
"I c #F2E1D3",
"U c #FFFFD5",
"Y c #FFFFDD",
"T c #CCD5E2",
"R c #CFD9E6",
"E c #D0D9E7",
"W c #D3DDEC",
"Q c #D7E1E5",
"! c #D7E1F2",
"~ c #D9E4F6",
"^ c #DBE6F8",
"/ c #DCE8FB",
"( c #DDFFFF",
") c #E4E5E2",
"_ c #FFFFE3",
"` c #FFFFEB",
"' c #E3FFFF",
"] c #ECFFFF",
"[ c #FFFFF5",
"{ c #F4FFFF",
"} c #FFFFFF",
"| c None",
/* pixels */
"||||||||||||||||||||||||||||||||||||||||||||||||||||||||||||||||||||||||||||||||||||||||||||||||||||",
"||||||||||||||||||||||||||||||||||||||||||||||||||||||||||||||||||||||||||||||||||||||||||||||||||||",
"||||||||||||||||||||||||||||||||||||||||||||||||||||||||||||||||||||||||||||||||||||||||||||||||||||",
"||||||||||||||||||||||||||||||||||||||||||||||||||||||||||||||||||||||||||||||||||||||||||||||||||||",
"||||||||||||||||||||||||||||||||||||||||||||||||||||||||||||||||||||||||||||||||||||||||||||||||||||",
"||||||||||||||||||||||||||||||||||||||||||||||||||||||||||||||||||||||||||||||||||||||||||||||||||||",
"||||||||||||||||||||||||||||||||||||||||||||||||||||||||||||||||||||||||||||||||||||||||||||||||||||",
"|||||||||||||||||||||||||||||||}U||||||||||||}|||||`||||||||||||||U|||||||||||||||||||||||||||||||||",
"||||||||||||||||||||||||||||||(}}|||}}}||[}||}}}[||[|||}[||]}}}||}}|||||||||||||||||||||||||||||||||",
"||||||||||||||||||||||||||||||}|(|||}}}}}}}||}[|}||[||[|}`|'}|{Y|{[|||||||||||||||||||||||||||||||||",
"||||||||||||||||||||||||||||||_|(_||[||}||}||[||'_|[|'[|}}|(|||[||U|||||||||||||||||||||||||||||||||",
"|||||||||||||||||||||||||||||'}}}}||[||[||}||[||(Y|[|([||||(|||[||U|||||||||||||||||||||||||||||||||",
"|||||||||||||||||||||||||||||}|||{Y|[||[||}||}||{||[|(_||[|(|||[||Y|||||||||||||||||||||||||||||||||",
"||||||||||||||||||||||||||||'`|||'_|[||[||}||}}}`||[||]}}||(|||[||}_||||||||||||||||||||||||||||||||",
"||||||||||||||||||||||||||||||||||||||||||||||||||||||||||||||||||||||||||||||||||||||||||||||||||||",
"||||||||||||||||||||||||||||||||||||||||||||||||||||||||||||||||||||||||||||||||||||||||||||||||||||",
"||||||||||||||||||||||||||||||||||||||||||||||||||||||||||||||||||||||||||||||||||||||||||||||||||||",
"||||||||||||||||||||||||||||||||||||||||||||||||||||||||||||||||||||||||||||||||||||||||||||||||||||",
"||||||||||||||||||||||||||||||||||||||||||||||||||||||||||||||||||||||||||||||||||||||||||||||||||||",
"||||||||||||||||||||||||||||||||||||||||||||||||||||||||||||||||||||||||||||||||||||||||||||||||||||",
"||||||||||||||||||||||||||||||||||||||||||||||||||||||||||||||||||||||||||||||||||||||||||||||||||||",
"||||||||||||||||||||||||||ssssssssssssssssssssssssssssssssssssssssssssssss||||||||||||||||||||||||||",
"||||||||||||||||||||||||||dsdddddssdddddssddsddssdsdsdsddddsdsdssfdsdsddds||||||||||||||||||||||||||",
"||||||||||||||||i|||||||||ffffffffffffffffffffffffffffffffffffffffffffffff||||||||i|||||||||||||||||",
"||||||||||||||itt|||||||||gfffgfffgffffggfgfgffgfgfggffgffffgfgfgfgfgfgfgf||||||||ttt|||||||||||||||",
"|||||||||||||t999|||||||||ggggggghgghgggggggggggggggggggghgggggggggggggggg||||||||9999||||||||||||||",
"||||||||||||98887|||||||||hhhhhhhhhhghhghhhhghhhhhhhghhhhhhhhhhhhhhhghhhhh||||||||999899||||||||||||",
"||||||||||7777777|||||||||hhhhhhhhhhhhVhhhhhVhhhhhhhhhhhhhhhhhhhhhhhhhhhhh||||||||6777767|||||||||||",
"|||||||||76666666|||||||||VVVVVVVVVVVVVVVChVhChCVCVCVVVVVVVhVhCVVVVVVVVhVV||||||||676666666|||||||||",
"|||||||5555555555|||||||||CCCCCCCCCCZCCCCCCCCCCCCCCCCCCCCCZZZCCCCCCCCCZZCC||||||||5555wQ)z55||||||||",
"||||||44<<44<4445|||||||||ZZZZZZZZCZZCZZCZCZAZZZZCCCZZZZZZZZZZZZZZZZZZZZZZ||||||||444,r}}n4445||||||",
"||||<,,,,,,,,,<,,,,<,<,,,<ZAAZAAAAAZAAAAAAAAZAZAAAAAZAAZAAZAAAZAAZAAZAZAAA,,<,,<,,,,,,e{}b,,,,,|||||",
"|||,>>>>yjjjj0,>,,>>>>>,,,AAAAAAAAAFAAAFFAFAAAAAAAAAAFAAAAAAFAAAFFAAAFAFAA,,>>,>>>>352B{}m352>>,>|||",
"|:::::::D}}}}b------->----JAJJJAHHFFHHFJFFFFFHFFJJJJFFFJFJFFJFJJHHFFFFFFFF:-:-->>--S}}}}}}}}M:::::||",
"--------D}}}}b------------AKJKJJHHJHJJJJJHJJJJJJJJJJJJJJJJJJJJJJJJJJHHJJJH---------D}}}}}}}}N-----:|",
"|=======qaaap1=-=--==-==--KKKKKLLKLLKKKLLKKLLKLKLKKKKLKKLKKKKKKLKKLKLKLKLL&-=&--=-&uGGL}}IFGx*====||",
"|||&&&&&&&&*&&&&&&&&&&&=&&PLLLLLLPLLLLLLPLLPLPPPPLPLLLPPPPLPLLLLPLLPLLLLLL&&&&&&&&*&&&;{}l&&&&&**|||",
"||||&%%&%%&%$&&%%%%%&%%%$$TPPPPPPPPPPPPPPPPPPPPPPPPPPPPPPPPPPPPPPPPPPPPLPP%&%&%%%%&%%%;{}c$&%&%|||||",
"||||||$$$$#$$$$$%|||||||||TPTTTTTTPTTPTTPTTPTPPPTTTTTTTTPTTPTTTTPTPTTTTTTT||||||||$$$$;]}k$$$%||||||",
"|||||||$#########|||||||||TRTTTTTRRTTRTRTRTRTRRPTTTTTTTTRTTRTTTTTRRTTRTTTT||||||||#########$||||||||",
"|||||||||@@@@@@@@|||||||||EEEEEERRRRTRRTRRRRRRRRRRRERREEEEEEEEERRRRRRRRRRR||||||||@@@@@@@@#|||||||||",
"||||||||||OO+OOO+|||||||||WEEWEWWRWWWWWWRWRWWWRWEWEWEWEEEWWWEWEEWEEWEEWWEW||||||||++OOOOO|||||||||||",
"||||||||||||Ooooo|||||||||WWWWWWWWWWWWWWWWWWWWWWWWWWWWWWWWWWWWWWWWWWWWWWWW||||||||oooOoo||||||||||||",
"|||||||||||||oXXX|||||||||WW!W!W!WWW!!WW!W!W!W!WW!W!W!!WWW!W!W!W!W!W!W!W!W||||||||oo.o||||||||||||||",
"||||||||||||||X.X|||||||||!!!!!!!!!!!!W~~!!!!!!!!!!!!!!!!!!!!!!!!!!!!!!!!!||||||||...|||||||||||||||",
"|||||||||||||||| |||||||||^^~~~~~~~~~~~~!~~~~~~~~~~~~~~~~~~~~~~~~~~~~~~~~~|||||||| |||||||||||||||||",
"||||||||||||||||||||||||||~^^~/~^^~^~^^^^^^^^~^^~^~^^~^^^^~^^~^^^^~^~^^~^^||||||||||||||||||||||||||",
"||||||||||||||||||||||||||///////////////^////^//////////^////////////////||||||||||||||||||||||||||"
};
