/* XPM */
static char *_d8f980dacba4579e4cd3b26b696d0c6[] = {
/* columns rows colors chars-per-pixel */
"69 47 90 1 ",
"  c #585E64",
". c #5C6167",
"X c #5E6369",
"o c #62666C",
"O c #646A6F",
"+ c #666A70",
"@ c #696E72",
"# c #6C7175",
"$ c #6F7478",
"% c #72767A",
"& c #767A7E",
"* c #797E81",
"= c #7D8184",
"- c #7382B4",
"; c #808487",
": c #838789",
"> c #868A8C",
", c #8A8E8F",
"< c #918481",
"1 c #8E928F",
"2 c #838C93",
"3 c #8A8E90",
"4 c #8D9192",
"5 c #919595",
"6 c #939798",
"7 c #969A9A",
"8 c #9A9E9E",
"9 c #A39789",
"0 c #869AA6",
"q c #8D96B1",
"w c #8695BD",
"e c #8A9DBF",
"r c #9EA2A1",
"t c #94AAB3",
"y c #92A9BC",
"u c #A2A6A4",
"i c #A7A9A6",
"p c #A6A8AB",
"a c #A9AEAD",
"s c #ABAFB0",
"d c #ADB2B3",
"f c #B0B5B6",
"g c #B1B6B9",
"h c #B4BABD",
"j c #BABCBC",
"k c #D7AD8B",
"l c #D8B08A",
"z c #C5AC9B",
"x c #C1B29C",
"c c #DCB393",
"v c #DFBD9C",
"b c #E2BD9B",
"n c #E3BEA2",
"m c #E2C3A7",
"M c #F9DFBA",
"N c #FCE2BD",
"B c #89A1C4",
"V c #B7BDC2",
"C c #B9BFC4",
"Z c #BAC0C6",
"A c #BDC4CC",
"S c #B3DBF6",
"D c #B6DEF9",
"F c #C6C7CC",
"G c #CBCCCC",
"H c #C3CAD4",
"J c #C7CFDA",
"K c #C9D2DD",
"L c #F2E1D3",
"P c #FFFFD5",
"I c #FFFFDC",
"U c #CCD5E1",
"Y c #CFD8E6",
"T c #D3DDEC",
"R c #D7E1E5",
"E c #D6E1F1",
"W c #D9E4F5",
"Q c #DBE6F8",
"! c #DCE8FB",
"~ c #D6FFFF",
"^ c #DCFFFF",
"/ c #E4E5E2",
"( c #FFFFE4",
") c #FFFFE9",
"_ c #E3FFFF",
"` c #EAFFFF",
"' c #FFFFF5",
"] c #F5FFFF",
"[ c #FFFFFF",
"{ c None",
/* pixels */
"{{{{{{{{{{{{{{{{{{{{{{{{{{{{{{{{{{{{{{{{{{{{{{{{{{{{{{{{{{{{{{{{{{{{{",
"{{{{{{{{{{{{{{{{{{{{{{{{{{{{{{{{{{{{{{{{{{{{{{{{{{{{{{{{{{{{{{{{{{{{{",
"{{{{{{{{{{{{{{{{{{{{{{{{{{{{{{{{{{{{{{{{{{{{{{{{{{{{{{{{{{{{{{{{{{{{{",
"{{{{{{{{{{{{{{{{{{{{{{{{{{{{{{{{{{{{{{{{{{{{{{{{{{{{{{{{{{{{{{{{{{{{{",
"{{{{{{{{{{{{{{{{{{{{{{{{{{{{{{{{{{{{{{{{{{{{{{{{{{{{{{{{{{{{{{{{{{{{{",
"{{{{{{{{{{{{{{{{{{{{{{{{{{{{{{{{{{{{{{{{{{{{{{{{{{{{{{{{{{{{{{{{{{{{{",
"{{{{{{{{{{{{{{{{{{{{{{{{{{{{{{{{{{{{{{{{{{{{{{{{{{{{{{{{{{{{{{{{{{{{{",
"{{{{{{{{[P{{{{{{{{{~{{`{{{{{{{{{{{[{{){{{{{{{{{{{{{){{{{{{{{{{{{{{{{{",
"{{{{{{{^[[{{{[[[[{{['{`{{{{{{[[[{{]{{'{{[[[{{{[[{{{'{{[[[{{{[[{[{{{{{",
"{{{{{{{[{^{{{[[{[{{`'{~{{{{{~({`P{]{{'{~({`P{[{{[{{'{{[{[[{_[{][{{{{{",
"{{{{{{{({^({{[{{`{{~{{^{{[[{{{{]I{[{{[{{{{]I{[[{{{{[{{I{{[{^I{{[{{{{{",
"{{{{{{_[[[[{{'{{]{{^{{^{{[[{_'{]I{]{{'{_'{]I{{[[[{{'{{P{{[{~{{{[{{{{{",
"{{{{{{[{{{]I{'{{]{{^'{^{{{{{`{{`({]{{'{`{{`({'{{[{{'{{P{{[{^'{][{{{{{",
"{{{{{`){{{_({'{{`{{_[{^{{{{{_['[I{]{{'{_[[[I{][[){{'{{I{{[{{][[[{{{{{",
"{{{{{{{{{{{{{{{{{{{{{{{{{{{{{{{{{{{{{{{{{{{{{{{{{{{{{{{{{{{{{{{[{{{{{",
"{{{{{{{{{{{{{{{{{{{{{{{{{{{{{{{{{{{{{{{{{{{{{{{{{{{{{{{{{{{{[[[{{{{{{",
"{{{{{{{{{{{{{{{{{{{{{{{{{{{{{{{{{{{{{{{{{{{{{{{{{{{{{{{{{{{{{{{{{{{{{",
"{{{{{{{{{{{{{{{{{{{{{{{{{{{{{{{{{{{{{{{{{{{{{{{{{{{{{{{{{{{{{{{{{{{{{",
"{{{{{{{{{{{{{{{{{{{{{{{{{{{{{{{{{{{{{{{{{{{{{{{{{{{{{{{{{{{{{{{{{{{{{",
"{{{{{{{{{{{{{{{{{{{{{{{{{{{{{{{{{{{{{{{{{{{{{{{{{{{{{{{{{{{{{{{{{{{{{",
"{{{{{{{{{{{{{{{{{{{{{{{{{aaaaaaaaaaaaaaaaasaa{{{{{{{{{{{{{{{{{{{{{{{{",
"{{{{{{{{{{{{{{{{{{{{{{{{{dsddadadassdasssssss{{{{{{{{{{{{{{{{{{{{{{{{",
"{{{{{{{{{{{{{{{{{{u{{{{{{ddddddddssfsffsfssfd{{{{{{u{{{{{{{{{{{{{{{{{",
"{{{{{{{{{{{{{{{{rrr{{{{{{fffdfffgffffffffffff{{{{{{rrr{{{{{{{{{{{{{{{",
"{{{{{{{{{{{{{{{8888{{{{{{ggghfffhffhffffggggg{{{{{{888r{{{{{{{{{{{{{{",
"{{{{{{{{{{{{{878787{{{{{{hhhhhhhhhhhhhhhhghgh{{{{{{78687{{{{{{{{{{{{{",
"{{{{{{{{{{{{6666666{{{{{{hhhhhhhhhhhhVhhVhhVh{{{{{{6666666{{{{{{{{{{{",
"{{{{{{{{{{555555555{{{{{{VVVVVZVhVZVVVVVVVVCV{{{{{{55555556{{{{{{{{{{",
"{{{{{{{{{4444444444{{{{{{ZZZZZCZZCZZZZZZZZZZZ{{{{{{444qR/z444{{{{{{{{",
"{{{{{{{43,3333,3,43{{{{{{ZZZZZAZZZAZZZZZAZZZZ{{{{{{3,,e][n33,3{{{{{{{",
"{{{{{{,>>>>>>>>,>,>>>,>>>AAAAAAAAAAAAAAAZAAZA>,>>>>>>,w][b>>>>>,{{{{{",
"{{{{::::::tjjjj9:::::::::AHAAHAAHAAAAAHAAHAHA::::>:>41B][m241::::{{{{",
"{{;;;;;;:=D[[[[b;;;;;;;;=HHHHAHHHAHHHAHHHHHHA;:=:=:S[[[[[[[[M;;;;;;{{",
"{=========D[[[[b=========HHHHHHHHHHHHHHHHHHHH======D[[[[[[[[N======={",
"{{=*******0pppi<******=&*HHHHHHJJHHHHHHHHHJHH******yGGJ[[LFGx*****={{",
"{{{{&&&&&&&&*&&&&&&&&&&&&JKJJJJJJJKJKJJJJJJJJ&&&&&&&%*-][l&&*&&&&{{{{",
"{{{{{{%%%%%%%%%%%%%%%%&%%KKKKKKKKKKKKKKKKKKKK%%&%%%%&%-`[c%%%%%%{{{{{",
"{{{{{{{%$%$%%#%%%%%{{{{{{UKUUUKUUUKUUUUKUUKUU{{{{{{$$%-][k$$$%{{{{{{{",
"{{{{{{{{{##########{{{{{{UYUUUUUUYUUUUUYUUYUU{{{{{{$######$#${{{{{{{{",
"{{{{{{{{{{@@@@@@@@@{{{{{{YYYYYYYYYYYYYYYYYYYY{{{{{{@@@@@@@@{{{{{{{{{{",
"{{{{{{{{{{{{@OO++O+{{{{{{YYTTYYTYYTTYTYTYTYYY{{{{{{+++O+O+{{{{{{{{{{{",
"{{{{{{{{{{{{{oooooo{{{{{{TTTTTTTTTTTTTTTTTTTT{{{{{{ooooo{{{{{{{{{{{{{",
"{{{{{{{{{{{{{{{ooXo{{{{{{EETETEEETTEETETTEEEE{{{{{{oXoo{{{{{{{{{{{{{{",
"{{{{{{{{{{{{{{{{.. {{{{{{EEEEEEEEEEEEEEEEEEEE{{{{{{ ..{{{{{{{{{{{{{{{",
"{{{{{{{{{{{{{{{{{{ {{{{{{WWWWWWWWWWWWEWWWWWWW{{{{{{ {{{{{{{{{{{{{{{{{",
"{{{{{{{{{{{{{{{{{{{{{{{{{WQWWQQWQWQWWQQQQWQWW{{{{{{{{{{{{{{{{{{{{{{{{",
"{{{{{{{{{{{{{{{{{{{{{{{{{!!!!!!!!!!!!!!!!!!!!{{{{{{{{{{{{{{{{{{{{{{{{"
};
