/* XPM */
static char *_0940c90b5f244cca7d23f601e3ea502[] = {
/* columns rows colors chars-per-pixel */
"36 42 34 1 ",
"  c black",
". c #010101",
"X c #020202",
"o c gray1",
"O c #040404",
"+ c gray2",
"@ c #060606",
"# c #070707",
"$ c gray3",
"% c #090909",
"& c gray4",
"* c #0B0B0B",
"= c #0C0C0C",
"- c gray5",
"; c #0E0E0E",
": c gray6",
"> c #101010",
", c #111111",
"< c gray7",
"1 c #131313",
"2 c gray8",
"3 c #151515",
"4 c #161616",
"5 c gray9",
"6 c #181818",
"7 c gray10",
"8 c #1B1B1B",
"9 c gray11",
"0 c #1E1E1E",
"q c #222222",
"w c #252525",
"e c gray17",
"r c gray18",
"t c None",
/* pixels */
"tttttttttttttttttttttttttttttttttttt",
"tttttttttttttttttttttttttttttttttttt",
"tttttttttttttttttttttttttttttttttttt",
"tttttttttttttttttttttttttttttttttttt",
"tttttttttttttttttttttttttttttttqtttt",
"tttttttttttttttttttttttttttttt4ttttt",
"ttttttttttttttttttttttttttttt8tttttt",
"tttttttttttttttttttttttttttt48tttttt",
"ttttttttttttttttttttttttttt49ttttttt",
"tttttttttttttttttttttttttt44tttttttt",
"ttttttttttttttttttttttttt$4ttttttttt",
"tttttttttttttttttttttttt$$tttttttttt",
"ttttttttttttttttttttttt>#9tttttttttt",
"tttttttttttttttttttttt-#4ttttttttttt",
"tttttt              #- --   tttttttt",
"tttttt              $#$4    tttttttt",
"tttttt  tttttttttttt# 8ttt  tttttttt",
"tttttt##ttttttttttt$ -tttt  tttttttt",
"tttttt>-tttttttttt$ #ttttt  tttttttt",
"tttttt--$4ttttttt> #8ttttt  tttttttt",
"tttttt >$ 4ttttt4  -tttttt  tttttttt",
"tttttt #4  $9ttr# #ttttttt  tttttttt",
"tttttt  t4   -r-  9ttttttt  tttttttt",
"tttttt  tt$   #  #tttttttt  tttttttt",
"tttttt  tt8#     4tttttttt  tttttttt",
"tttttt  ttt>    $ttttttttt  tttttttt",
"tttttt  tttt-   9ttttttttt  tttttttt",
"tttttt  ttttq# #tttttttttt  tttttttt",
"tttttt  ttttt4 8tttttttttt  tttttttt",
"tttttt  tttttt$ttttttttttt  tttttttt",
"tttttt  ttttttwttttttttttt  tttttttt",
"tttttt  tttttttttttttttttt  tttttttt",
"tttttt  tttttttttttttttttt  tttttttt",
"tttttt  tttttttttttttttttt  tttttttt",
"tttttt                      tttttttt",
"tttttt                      tttttttt",
"tttttttttttttttttttttttttttttttttttt",
"tttttttttttttttttttttttttttttttttttt",
"tttttttttttttttttttttttttttttttttttt",
"tttttttttttttttttttttttttttttttttttt",
"tttttttttttttttttttttttttttttttttttt",
"tttttttttttttttttttttttttttttttttttt"
};
