/* XPM */
static char *_5d2802e13e74747fa812e5d1caf33e8[] = {
/* columns rows colors chars-per-pixel */
"34 34 2 1 ",
"  c black",
". c None",
/* pixels */
"..................................",
"..................................",
"..................................",
"..................................",
"..................................",
"..................................",
"......                      ......",
"......                      ......",
"......  ..................  ......",
"......  ..................  ......",
"......  ..................  ......",
"......  ..................  ......",
"......  ..................  ......",
"......  ..................  ......",
"......  ..................  ......",
"......  ..................  ......",
"......  ..................  ......",
"......  ..................  ......",
"......  ..................  ......",
"......  ..................  ......",
"......  ..................  ......",
"......  ..................  ......",
"......  ..................  ......",
"......  ..................  ......",
"......  ..................  ......",
"......  ..................  ......",
"......                      ......",
"......                      ......",
"..................................",
"..................................",
"..................................",
"..................................",
"..................................",
".................................."
};
