/* XPM */
static char *_aee8886e91049a5a7a74c0393d7abdd[] = {
/* columns rows colors chars-per-pixel */
"112 36 242 2 ",
"   c #003D3F",
".  c #003F41",
"X  c #004143",
"o  c #00474A",
"O  c #004A4D",
"+  c #005557",
"@  c #005659",
"#  c #00595D",
"$  c #005E62",
"%  c #006165",
"&  c #00666A",
"*  c #00696C",
"=  c #006D71",
"-  c #007175",
";  c #00767A",
":  c #007A7F",
">  c #41696C",
",  c #417376",
"<  c #4F7175",
"1  c #41777C",
"2  c #4F767A",
"3  c #4F7B7F",
"4  c #66777B",
"5  c #797875",
"6  c #707579",
"7  c #917D6A",
"8  c #917F75",
"9  c #5C837A",
"0  c #66847A",
"q  c #82817F",
"w  c #89847B",
"e  c #9A8B7C",
"r  c #B1987F",
"t  c #C29F7E",
"y  c #006780",
"u  c #007683",
"i  c #007E83",
"p  c #00738E",
"a  c #007D8D",
"s  c #007D92",
"d  c #00719A",
"f  c #007D9D",
"g  c #2E7F84",
"h  c #0074A1",
"j  c #0075A8",
"k  c #007FB3",
"l  c #417D81",
"z  c #4F7D81",
"x  c #5C7D81",
"c  c #707F84",
"v  c #008186",
"b  c #00858A",
"n  c #00888D",
"m  c #008094",
"M  c #008C92",
"N  c #008398",
"B  c #009197",
"V  c #00959A",
"C  c #00999F",
"Z  c #2E8C91",
"A  c #2E9697",
"S  c #2E9499",
"D  c #0086A6",
"F  c #008DA5",
"G  c #009DA3",
"H  c #0094AE",
"J  c #0084B3",
"K  c #008AB5",
"L  c #008BBA",
"P  c #0090B3",
"I  c #0093BD",
"U  c #00A0A6",
"Y  c #00A2A8",
"T  c #00A2BC",
"R  c #418084",
"E  c #4F8084",
"W  c #41858A",
"Q  c #4F8489",
"!  c #4F888D",
"~  c #5C8489",
"^  c #418C92",
"/  c #5C8C91",
"(  c #5C999F",
")  c #668E95",
"_  c #709698",
"`  c #709B9D",
"'  c #799C9E",
"]  c #4F8EA1",
"[  c #5C85AE",
"{  c #419FA5",
"}  c #5C94A1",
"|  c #4197BD",
" . c #009CC2",
".. c #009FCB",
"X. c #00A2C3",
"o. c #00AECA",
"O. c #2EA0C9",
"+. c #2EABD2",
"@. c #2EB3DD",
"#. c #41AAC4",
"$. c #4FB1C0",
"%. c #41ADD6",
"&. c #4FAED9",
"*. c #41B1D6",
"=. c #41B3DB",
"-. c #4FB2DB",
";. c #4FB9DC",
":. c #5CBADD",
">. c #5CBCE1",
",. c #70C2E4",
"<. c #70CDE3",
"1. c #70C5E9",
"2. c #70CCEB",
"3. c #79CBEC",
"4. c #988C82",
"5. c #918D8D",
"6. c #989084",
"7. c #91928C",
"8. c #9C948A",
"9. c #829697",
"0. c #829A97",
"q. c #A59684",
"w. c #AB9A81",
"e. c #A59988",
"r. c #9FA39B",
"t. c #A5A18C",
"y. c #BDA283",
"u. c #B7A58B",
"i. c #ABB09A",
"p. c #919BAC",
"a. c #89A2A0",
"s. c #91AFA4",
"d. c #ABADA1",
"f. c #BDB7A2",
"g. c #BDBCAB",
"h. c #C2A782",
"j. c #C8A789",
"k. c #C2AC8B",
"l. c #CDB696",
"z. c #CBB59B",
"x. c #CDBC9F",
"c. c #D2B494",
"v. c #D2B799",
"b. c #D2B99D",
"n. c #DCBE9B",
"m. c #D2BDA3",
"M. c #D2BFA8",
"N. c #9FC1B9",
"B. c #DCC09C",
"V. c #D4C3A5",
"C. c #DCC5A1",
"Z. c #D3C2AC",
"A. c #E5C9A7",
"S. c #E5CDAC",
"D. c #E9CEAA",
"F. c #E9D1AE",
"G. c #E5CFB0",
"H. c #F2D6B4",
"J. c #F7DDB7",
"K. c #F7DDB8",
"L. c #FBE3BC",
"P. c #82A2C3",
"I. c #89BCC2",
"U. c #89B7CE",
"Y. c #91BDDC",
"T. c #82C5D8",
"R. c #89CFDE",
"E. c #ABC4CA",
"W. c #B1CCCE",
"Q. c #A5C8D1",
"!. c #ABC2D8",
"~. c #B7C5D7",
"^. c #82CFEF",
"/. c #82D1EC",
"(. c #89D7EA",
"). c #98D0E3",
"_. c #91D6ED",
"`. c #82D0F2",
"'. c #82D9F3",
"]. c #89DCF4",
"[. c #91DBF5",
"{. c #98DAF3",
"}. c #91DAF9",
"|. c #9ADFF9",
" X c #A5D1E4",
".X c #B1DBEE",
"XX c #98E2F7",
"oX c #91E0F9",
"OX c #9CE3FB",
"+X c #A5E5FA",
"@X c #ABE8FC",
"#X c #B7E7F1",
"$X c #BDEAF4",
"%X c #B5EAFF",
"&X c #BDEEFF",
"*X c #B7F0FF",
"=X c #C2CFCA",
"-X c #D4D2C0",
";X c #DCDDD4",
":X c #E9DCCA",
">X c #E9E4CE",
",X c #F2E2C7",
"<X c #FFE8C5",
"1X c #F2E3C8",
"2X c #FBE6C8",
"3X c #FFE9CC",
"4X c #FFF1CF",
"5X c #EEEAD2",
"6X c #EEEDDC",
"7X c #F2EAD4",
"8X c #FBECD2",
"9X c #FFF2D3",
"0X c #FFF5DA",
"qX c #FFFBDB",
"wX c #D7E7E4",
"eX c #DCE7EE",
"rX c #C8E7F4",
"tX c #C8F6FF",
"yX c #CDF9FF",
"uX c #D7F0F7",
"iX c #DCF7F7",
"pX c #D7F0F9",
"aX c #D6FCFF",
"sX c #DCFEFF",
"dX c #E0E5EC",
"fX c #F2EDE8",
"gX c #FFF5E4",
"hX c #FFFCE3",
"jX c #F7F7EA",
"kX c #FFF7E9",
"lX c #FFFEED",
"zX c #E5F4F5",
"xX c #EEF5F5",
"cX c #E5F1FC",
"vX c #E9F6FC",
"bX c #E3FFFF",
"nX c #EDFEFF",
"mX c #FBF6F5",
"MX c #FFFFF5",
"NX c #F5FFFF",
"BX c #FFFFFF",
"VX c None",
/* pixels */
"VXVXVXVXVXVXVXVXVXVXVXVXVXVXVXVXVXVXVXVXVXVXVXVXVXVXVXVXVXVXVXVXVXVXVXVXVXVXVXVXVXVXVXVXVXVXVXVXVXVXVXVXVXVXVXVXVXVXVXVXVXVXVXVXVXVXVXVXVXVXVXVXVXVXVXVXVXVXVXVXVXVXVXVXVXVXVXVXVXVXVXVXVXVXVXVXVXVXVXVXVXVXVXVXVXVXVXVXVXVXVXVX",
"VXVXVXVXVXVXVXVXVXVXVXVXVXVXVXVXVXVXVXVXVXVXVXVXVXVXVXVXVXVXVXVXVXVXVXVXVXVXVXVXVXVXVXVXVXVXVXVXVXVXVXVXVXVXVXVXVXVXVXVXVXVXVXVXVXVXVXVXVXVXVXVXVXVXVXVXVXVXVXVXVXVXVXVXVXVXVXVXVXVXVXVXVXVXVXVXVXVXVXVXVXVXVXVXVXVXVXVXVXVXVXVX",
"VXVXVXVXVXVXVXVXVXVXVXVXVXVXVXVXVXVXVXVXVXVXVXVXVXVXVXVXVXVXVXVXVXVXVXVXVXVXVXVXVXVXVXVXVXVXVXVXVXVXVXVXVXVXVXVXVXVXVXVXVXVXVXVXVXVXVXVXVXVXVXVXVXVXVXVXVXVXVXVXVXVXVXVXVXVXVXVXVXVXVXVXVXVXVXVXVXVXVXVXVXVXVXVXVXVXVXVXVXVXVXVX",
"VXVXVXVXVXVXVXVXVXVXVXVXVXVXVXVXVXVXVXVXVXVXVXVXVXVXVXVXVXVXVXVXVXVXVXVXVXVXVXVXVXVXVXVXVXVXVXVXVXVXVXVXVXVXVXVXVXVXVXVXVXVXVXVXVXVXVXVXVXVXVXVXVXVXVXVXVXVXVXVXVXVXVXVXVXVXVXVXVXVXVXVXVXVXVXVXVXVXVXVXVXVXVXVXVXVXVXVXVXVXVXVX",
"VXVXVXVXVXVXVXVXVXVXVXVXVXVXVXVXVXVXVXVXVXVXVXVXVXVXVXVXVXVXVXVXVXVXVXVXVXVXVXVXVXVXVXVXVXVXVXVXVXVXVXVXVXVXVXVXVXVXVXVXVXVXVXVXVXVXVXVXVXVXVXVXVXVXVXVXVXVXVXVXVXVXVXVXVXVXVXVXVXVXVXVXVXVXVXVXVXVXVXVXVXVXVXVXVXVXVXVXVXVXVXVX",
"VXVXVXVXVXVXVXVXVXVXVXVXVXVXVXVXVXVXVXVXVXVXVXVXVXVXVXVXVXVXVXVXVXVXVXVXVXVXVXVXVXVXVXVXVXVXVXVXVXVXVXVXVXVXVXVXVXVXVXVXVXVXVXVXVXVXVXVXVXVXVXVXVXVXVXVXVXVXVXVXVXVXVXVXVXVXVXVXVXVXVXVXVXVXVXVXVXVXVXVXVXVXVXVXVXVXVXVXVXVXVXVX",
"VXVXVXVXVXVXVXVXVXVXVXVXVXVX; M C U U U Y Y U U U Y Y U Y U Y U Y Y Y Y Y Y Y Y Y Y Y Y Y Y Y Y Y Y Y Y Y Y Y Y U Y Y Y Y Y Y Y Y Y Y Y Y Y Y Y Y Y Y Y Y Y Y Y Y Y Y Y Y Y Y Y Y Y Y Y Y Y Y G B ; VXVXVXVXVXVXVXVXVXVXVXVXVXVX",
"VXVXVXVXVXVXVXVXVXVXVXVXn U G U U U U U U U U U U U U U U U U U U U G U U G U U G U Y G U G G G U U G U U G U U G U U U G U U G Y G G Y U G G G G Y U G G Y G U Y G G U Y G Y G G U Y G U G G G U G G n VXVXVXVXVXVXVXVXVXVXVXVX",
"VXVXVXVXVXVXVXVXVXVX# G G G G C G G G G G C C G G G C G C G G G G G G G G C G G C G C G G G G G G C G G G G G G G G G G G G G C G G G G C G G G G U { U C U C G G G G G G G C G G G C G G G G G G G G G C # VXVXVXVXVXVXVXVXVXVX",
"VXVXVXVXVXVXVXVXVX* C C C C C C C C C C C C C C C C C <.xX6X( C C C C C C G o.zXxXg.C C C C C C C C C C C C C C G C C C C C T iXg.C C <.jXa.C G (.BXBXZ.C C C C G C C C C C C C C C C C C C C C C C C C C G * VXVXVXVXVXVXVXVXVX",
"VXVXVXVXVXVXVXVX# V V V V V V V V V V V V V V V V V V XXBXBXf.V V V V V V V ].BXBXZ.V V C V C V V V C V V V V V V C V V V V X.NXZ.C C XXMXr.V  .NXkXW.s.V V V C V V V V V V V C V C V V C V V C V V V V V V V + VXVXVXVXVXVXVXVX",
"VXVXVXVXVXVXVXVXB V V V V V V V V V V V V V V V B V V [.BXBX,XB V V B V B H aXBXBXZ.V V V M V V V V B V V B V V V B B V V V  .BXM.B V $.N.S V  .NXM.V B V V B V V V B V V V V V B B V V V M V V V V V V B V V B VXVXVXVXVXVXVXVX",
"VXVXVXVXVXVXVXi B V M V B B B B V B B B V B B B B B B oXMXcXlX' B B V B B =.BXeXBXM.B V B B M V B B B B B B B B V M V A B B  .BXV.B B B B B M  .NXx.B B M B B B M V V B B B V M M V B V M V B B M V B B V B B V : VXVXVXVXVXVXVX",
"VXVXVXVXVXVXVXM M M M M M M M M M M M M M M M M M M M [.MX!.BXV.M M M M M +XlXY.BXm.M M M T.vXBXBXMX-X^ M M M M #.uXBXBXMX-X| nXm.M M /.5X] #XxXBXmXxXf._.6X) M M M M F $X>X^ M M M M M M M M M M M M M M M M M M VXVXVXVXVXVXVX",
"VXVXVXVXVXVX& M M M n M M M M M M n M n M M M n M M M oXMXp.aX9XZ M M M P nXJ.=.BXm.M n {.BXlX=XQ.uXBX8X^ M n *.BXBX;XE.rXBXmXBXm.M M oXgX/ R.eXBXfXwXi.2.BXz.M M M n +.BXG.M M M M n M M M M M M M M M n M M M M % VXVXVXVXVXVX",
"VXVXVXVXVXVX; n b n n n n n b n n n n n n n b n n n n [.MX5.'.MX8.n n b >.BXu.@.BXb.n +.BX8X! n n n _.BXV.n D aXMXt.n n b :.BXBXm.n n }.qX! b L NXl.n b I nX2Xn n n n |.MX7.b n n n n n n n b n b n n b n n n n n ; VXVXVXVXVXVX",
"VXVXVXVXVXVXv b b b b b n b b b b n b b n b b b b b b [.MX6...BXS.n n n *XqX~ =.BXb.b |.MX8.b n b n D sX9XW %.BXS.n n n v n +XBXb.n b }.qX! b I NXb.b b b +XMX7.b b J bX3Xb b b b b b b b b b b b b b b n b b b b v VXVXVXVXVXVX",
"VXVXVXVXVXVXv v b v v v v v v v v b v v b v b v v v b }.MX8.N tX0X~ i I NXF.n -.BXb.N yXqXQ v v v v v |.qXQ >.MXe.v v v v b ;.BXb.v v }.qXQ b L BXb.v v v *.BXB.b v :.BXl.v b v v v b v v b v v b v v v v b b v v v VXVXVXVXVXVX",
"VXVXVXVXVXVXv i i i v v v v i i v v v i i i v i i v i }.MX6.i 1.BXu.v 3.MXq.v -.BXv.s yX<Xg i i v i i OXMX6.|.MX6.i i i i i O.BXv.v v }.qXE v L NXv.v v v f yX9XR v &XgX~ i v i v v v i v v i i v i i i i i i v i i VXVXVXVXVXVX",
"VXVXVXVXVXVX; i i i : i i i i i i : : i i i i i i i : }.MX6.i L NXK.a yX9Xl i -.BXv.s yX9Xl i i i i i |.qXx 1.MX4.i i i i i *.BXc.i i }.qXz : K BXc.i i i i ^.BXw.L BXJ.i i i i i i : i : i i i i i i i i i i i i : VXVXVXVXVXVX",
"VXVXVXVXVXVX= i : : : : : : : : : : : : : : : : i i ; }.MXe i i @XhXP.BXn.: : &.BXc.i @XlX5.; : : : f aX0X3 &.BXk.: : : i : ^.BXc.; : }.qXz i J NXc.: : : : L BXD.1.BXw.: : : : : : : : i : : : : : : : : : : : : = VXVXVXVXVXVX",
"VXVXVXVXVXVX# ; ; ; ; ; ; ; ; ; ; ; ; ; ; ; : ; ; ; ; }.MXe ; ; -.BXBXMXw ; ; &.BXc.u -.BXD.- ; ; ; ,.BXA.; J nX0X4 ; : ; K nXBXc.; ; }.qX2 ; J NXc.; ; ; ; ; %XMXvX9X1 ; ; ; ; ; ; : ; ; ; ; : ; ; ; ; ; ; : ; ; + VXVXVXVXVXVX",
"VXVXVXVXVXVXVX; ; ; ; ; ; ; ; ; ; ; ; - ; ; ; ; - ; - [.MXe ; ; d sXBXL.; - ; &.BXc.; p &XBX:X0.}  XBXgX6 ; ; _.BXgXd.) U.nXMXBXc.; ; }.qX2 ; J NXc.; ; ; ; ; -.BXBXn.; ; ; - ; ; ; - ; - ; ; ; ; ; ; - ; ; ; ; ; VXVXVXVXVXVXVX",
"VXVXVXVXVXVXVX% - - - - - - - - - - - - - - - - - - - [.MX8 - - - {.BXy.- - - &.BXy.- - p .XBXBXBXBX7X5 - - - - ).BXBXBXBX1X[ nXj.- - ^.0X< - k nXj.- - - - - d sXMX8 - - - - - - - - - - - - - - - - - - - - - % VXVXVXVXVXVXVX",
"VXVXVXVXVXVXVXVX= = = - = = - = - = = - = = = = = = = - = = - = - - = = = = = - = = = = = - i _ ' 0 = = - = = = = u _ _ 9 = - = = - = = = = = = = = = = = = - j nXL.= - = = = - = = = = = - = = - - = = = = = = VXVXVXVXVXVXVXVX",
"VXVXVXVXVXVXVXVXX = * = = = = * = = * = = = = = = = = = = = = * * = = = = = = = = = = = * = = = * = = = = = = = = = = = = = = = = = = = = = = = = = = = = = = ,.BXt * = = = * = = = = = * = = = = * = = = = = X VXVXVXVXVXVXVXVX",
"VXVXVXVXVXVXVXVXVXO * * * * * * * * * * * & * * * * & * * * * * * * * * * * * & * * * * * * * * * * * * & * * * * * * * * * & * * * * * * * * & * * & * = I.~.NX4X> * * * * * * * * * * * * * * * * * * * * o VXVXVXVXVXVXVXVXVX",
"VXVXVXVXVXVXVXVXVXVX. & & & & & & & & & & & & & & & & & & & & & * & & & & & & & & & * & * & & & & * & & & & & & & & * & & & & & & & & & & & & & & & & & y yXBXgX7 & & & & & & * & & * & * & & & & & & & &   VXVXVXVXVXVXVXVXVXVX",
"VXVXVXVXVXVXVXVXVXVXVXVX# % % % & % & % % % % & % % % % % & % % % % % % % % % & % % % % % % % % % % % % % % % % % % % % % % & % & % & % $ & & % % % % & % * , & % % % % % % % & % % % % % % % % % % & + VXVXVXVXVXVXVXVXVXVXVXVX",
"VXVXVXVXVXVXVXVXVXVXVXVXVXVXo # # $ % % % % $ % % % % % % $ % % % % % % % % % $ $ % % % % % % % % % % % % % % % % % % % $ % $ % $ % $ $ $ $ $ & % $ $ $ $ % $ % % % % % % % % $ $ % % % % % % $ + o VXVXVXVXVXVXVXVXVXVXVXVXVXVX",
"VXVXVXVXVXVXVXVXVXVXVXVXVXVXVXVXVXVXVXVXVXVXVXVXVXVXVXVXVXVXVXVXVXVXVXVXVXVXVXVXVXVXVXVXVXVXVXVXVXVXVXVXVXVXVXVXVXVXVXVXVXVXVXVXVXVXVXVXVXVXVXVXVXVXVXVXVXVXVXVXVXVXVXVXVXVXVXVXVXVXVXVXVXVXVXVXVXVXVXVXVXVXVXVXVXVXVXVXVXVXVXVX",
"VXVXVXVXVXVXVXVXVXVXVXVXVXVXVXVXVXVXVXVXVXVXVXVXVXVXVXVXVXVXVXVXVXVXVXVXVXVXVXVXVXVXVXVXVXVXVXVXVXVXVXVXVXVXVXVXVXVXVXVXVXVXVXVXVXVXVXVXVXVXVXVXVXVXVXVXVXVXVXVXVXVXVXVXVXVXVXVXVXVXVXVXVXVXVXVXVXVXVXVXVXVXVXVXVXVXVXVXVXVXVXVX",
"VXVXVXVXVXVXVXVXVXVXVXVXVXVXVXVXVXVXVXVXVXVXVXVXVXVXVXVXVXVXVXVXVXVXVXVXVXVXVXVXVXVXVXVXVXVXVXVXVXVXVXVXVXVXVXVXVXVXVXVXVXVXVXVXVXVXVXVXVXVXVXVXVXVXVXVXVXVXVXVXVXVXVXVXVXVXVXVXVXVXVXVXVXVXVXVXVXVXVXVXVXVXVXVXVXVXVXVXVXVXVXVX",
"VXVXVXVXVXVXVXVXVXVXVXVXVXVXVXVXVXVXVXVXVXVXVXVXVXVXVXVXVXVXVXVXVXVXVXVXVXVXVXVXVXVXVXVXVXVXVXVXVXVXVXVXVXVXVXVXVXVXVXVXVXVXVXVXVXVXVXVXVXVXVXVXVXVXVXVXVXVXVXVXVXVXVXVXVXVXVXVXVXVXVXVXVXVXVXVXVXVXVXVXVXVXVXVXVXVXVXVXVXVXVXVX",
"VXVXVXVXVXVXVXVXVXVXVXVXVXVXVXVXVXVXVXVXVXVXVXVXVXVXVXVXVXVXVXVXVXVXVXVXVXVXVXVXVXVXVXVXVXVXVXVXVXVXVXVXVXVXVXVXVXVXVXVXVXVXVXVXVXVXVXVXVXVXVXVXVXVXVXVXVXVXVXVXVXVXVXVXVXVXVXVXVXVXVXVXVXVXVXVXVXVXVXVXVXVXVXVXVXVXVXVXVXVXVXVX",
"VXVXVXVXVXVXVXVXVXVXVXVXVXVXVXVXVXVXVXVXVXVXVXVXVXVXVXVXVXVXVXVXVXVXVXVXVXVXVXVXVXVXVXVXVXVXVXVXVXVXVXVXVXVXVXVXVXVXVXVXVXVXVXVXVXVXVXVXVXVXVXVXVXVXVXVXVXVXVXVXVXVXVXVXVXVXVXVXVXVXVXVXVXVXVXVXVXVXVXVXVXVXVXVXVXVXVXVXVXVXVXVX"
};
