/* XPM */
static char *modify[] = {
/* columns rows colors chars-per-pixel */
"20 20 4 1 ",
"  c None",
". c #020202",
"X c gray1",
"o c #040404",
/* pixels */
"                    ",
"         X. X.      ",
"         X....o     ",
"       .........X   ",
"       X...oX...    ",
"        ..X  ...    ",
"       X... o...    ",
"       .........X   ",
"         .....X     ",
"         X.oX.      ",
"       X.o          ",
"    X.......        ",
"     ......X        ",
"    X..X ...        ",
"   ....  X...       ",
"    X..Xo...        ",
"     ......X        ",
"    X.......        ",
"       X.           ",
"        .           "
};
