/* XPM */
static char *d5c44abc097042e2dee8fe1c868b2c3c[] = {
/* columns rows colors chars-per-pixel */
"112 42 224 2 ",
"   c #37393D",
".  c #393B3F",
"X  c #393D3E",
"o  c #3B3F41",
"O  c #414449",
"+  c #42454A",
"@  c #44464A",
"#  c #44474C",
"$  c #4D5156",
"%  c #4E5257",
"&  c #4E5258",
"*  c #4E5359",
"=  c #505557",
"-  c #545656",
";  c #525558",
":  c #55595F",
">  c #585959",
",  c #585A5A",
"<  c #5B5D5D",
"1  c #555A60",
"2  c #575C63",
"3  c #575C64",
"4  c #5B5D61",
"5  c #585C63",
"6  c #585D63",
"7  c #5B5F62",
"8  c #585D64",
"9  c #5B6066",
"0  c #5B6067",
"q  c #5C6067",
"w  c #5D6167",
"e  c #5E6167",
"r  c #5C6168",
"t  c #5D6168",
"y  c #5E6369",
"u  c #5F6369",
"i  c #5F636A",
"p  c #616466",
"a  c #61666B",
"s  c #646768",
"d  c #61666C",
"f  c #62666C",
"g  c #62676C",
"h  c #62676D",
"j  c #666A6C",
"k  c #676A6D",
"l  c #64696E",
"z  c #65696F",
"x  c #656A6F",
"c  c #666A6F",
"v  c #696C6C",
"b  c #6B6E6E",
"n  c #666A70",
"m  c #666B71",
"M  c #676C71",
"N  c #656A76",
"B  c #686C71",
"V  c #686C72",
"C  c #686D72",
"Z  c #6A6F74",
"A  c #6B6F74",
"S  c #706D72",
"D  c #6B7074",
"F  c #6B7075",
"G  c #6E7277",
"H  c #6E7377",
"J  c #6F7377",
"K  c #6F7378",
"L  c #6F7478",
"P  c #757777",
"I  c #717579",
"U  c #71757A",
"Y  c #71767A",
"T  c #72767A",
"R  c #73777A",
"E  c #74777B",
"W  c #767878",
"Q  c #74797A",
"!  c #75797B",
"~  c #74797C",
"^  c #74797D",
"/  c #75797D",
"(  c #777C7C",
")  c #777C7F",
"_  c #797D7D",
"`  c #787C7F",
"'  c #907F6E",
"]  c #8A7A77",
"[  c #676C86",
"{  c #6B6F88",
"}  c #6E738A",
"|  c #787C80",
" . c #787D80",
".. c #7B7F81",
"X. c #7A7F82",
"o. c #7B7F82",
"O. c #72768C",
"+. c #7B8083",
"@. c #7D8183",
"#. c #7E8184",
"$. c #7E8285",
"%. c #7F8285",
"&. c #7E8385",
"*. c #7F8385",
"=. c #7F8386",
"-. c #758089",
";. c #778896",
":. c #818588",
">. c #818688",
",. c #828688",
"<. c #828689",
"1. c #858988",
"2. c #878B89",
"3. c #84898B",
"4. c #85898B",
"5. c #858A8B",
"6. c #888C8D",
"7. c #888C8E",
"8. c #888D8E",
"9. c #9F9182",
"0. c #9F9183",
"q. c #8B8F90",
"w. c #8B8F91",
"e. c #888C98",
"r. c #8C9091",
"t. c #8F9190",
"y. c #8E9291",
"u. c #8E9293",
"i. c #8E9393",
"p. c #8E9394",
"a. c #8F9394",
"s. c #8C9096",
"d. c #85939F",
"f. c #909495",
"g. c #919596",
"h. c #929696",
"j. c #929697",
"k. c #9D9793",
"l. c #949898",
"z. c #949899",
"x. c #959999",
"c. c #979B9B",
"v. c #9A9999",
"b. c #989C9B",
"n. c #989C9C",
"m. c #999C9C",
"M. c #999D9D",
"N. c #9B9E9E",
"B. c #9A9F9E",
"V. c #9B9F9E",
"C. c #9B9F9F",
"Z. c #9C9F9F",
"A. c #A19B8E",
"S. c #A9A49C",
"D. c #B6A498",
"F. c #BCAA98",
"G. c #8190A2",
"H. c #8E93A1",
"J. c #8896A7",
"K. c #8498AD",
"L. c #9195A3",
"P. c #9599A6",
"I. c #989CA4",
"U. c #9EA2A1",
"Y. c #9FA2A2",
"T. c #9FA3A2",
"R. c #96A9AB",
"E. c #A1A5A4",
"W. c #A2A5A4",
"Q. c #A2A6A4",
"!. c #A2A6A5",
"~. c #B1A7A0",
"^. c #BDAFA3",
"/. c #C1AD96",
"(. c #CBBBAF",
"). c #C8BCB1",
"_. c #D0C4B9",
"`. c #DCCEBF",
"'. c #ECD2B4",
"]. c #F5DFBA",
"[. c #F6DFBB",
"{. c #FCE1BC",
"}. c #A4B4C2",
"|. c #AFBDC9",
" X c #AFBECF",
".X c #B6C3D3",
"XX c #BACBD7",
"oX c #BCCDD9",
"OX c #DCCFC1",
"+X c #DED3C4",
"@X c #E0D1C4",
"#X c #E5D9CC",
"$X c #EEE0D6",
"%X c #EDE1D8",
"&X c #F1E6DB",
"*X c #C4DEEE",
"=X c #D0E7EC",
"-X c #DCE8F2",
";X c #D3E9FF",
":X c #D2F5FF",
">X c #D3F5FF",
",X c #D4F5FF",
"<X c #DBF7FF",
"1X c #DEF9FF",
"2X c #DFFAFF",
"3X c #DAFCFF",
"4X c #F4ECE0",
"5X c #F8EFE5",
"6X c #F8F1E7",
"7X c #F9F1E8",
"8X c #E0EAF3",
"9X c #E4EFF9",
"0X c #E6F0F6",
"qX c #ECF3F9",
"wX c #EFF5FC",
"eX c #FFF9F0",
"rX c #FFFCF2",
"tX c #FFFCF5",
"yX c #FFFCF7",
"uX c #FFFFFC",
"iX c #FCFCFF",
"pX c #FCFFFF",
"aX c gray100",
"sX c None",
/* pixels */
"sXsXsXsXsXsXsXsXsXsXsXsXsXsXsXsXsXsXsXsXsXsXsXsXsXsXsXsXsXsXsXsXsXsXsXsXsXsXsXsXsXsXsXsXsXsXsXsXsXsXsXsXsXsXsXsXsXsXsXsXsXsXsXsXsXsXsXsXsXsXsXsXsXsXsXsXsXsXsXsXsXsXsXsXsXsXsXsXsXsXsXsXsXsXsXsXsXsXsXsXsXsXsXsXsXsXsXsXsXsXsXsX",
"sXsXsXsXsXsXsXsXsXsXsXsXsXsXsXsXsXsXsXsXsXsXsXsXsXsXsXsXsXsXsXsXsXsXsXsXsXsXsXsXsXsXsXsXsXsXsXsXsXsXsXsXsXsXsXsXsXsXsXsXsXsXsXsXsXsXsXsXsXsXsXsXsXsXsXsXsXsXsXsXsXsXsXsXsXsXsXsXsXsXsXsXsXsXsXsXsXsXsXsXsXsXsXsXsXsXsXsXsXsXsXsX",
"sXsXsXsXsXsXsXsXsXsXsXsXsXsXsXsXsXsXsXsXsXsXsXsXsXsXsXsXsXsXsXsXsXsXsXsXsXsXsXsXsXsXsXsXsXsXsXsXsXsXsXsXsXsXsXsXsXsXsXsXsXsXsXsXsXsXsXsXsXsXsXsXsXsXsXsXsXsXsXsXsXsXsXsXsXsXsXsXsXsXsXsXsXsXsXsXsXsXsXsXsXsXsXsXsXsXsXsXsXsXsXsX",
"sXsXsXsXsXsXsXsXsXsXsXsXsXsXsXsXsXsXsXsXsXsXsXsXsXsXsXsXsXsXsXsXsXsXsXsXsXsXsXsXsXsXsXsXsXsXsXsXsXsXsXsXsXsXsXsXsXsXsXsXsXsXsXsXsXsXsXsXsXsXsXsXsXsXsXsXsXsXsXsXsXsXsXsXsXsXsXsXsXsXsXsXsXsXsXsXsXsXsXsXsXsXsXsXsXsXsXsXsXsXsXsX",
"sXsXsXsXsXsXsXsXsXsXsXsXsXsXsXsXsXsXsXsXsXsXsXsXsXsXsXsXsXsXsXsXsXsXsXsXsXsXsXsXsXsXsXsXsXsXsXsXsXsXsXsXsXsXsXsXsXsXsXsXsXsXsXsXsXsXsXsXsXsXsXsXsXsXsXsXsXsXsXsXsXsXsXsXsXsXsXsXsXsXsXsXsXsXsXsXsXsXsXsXsXsXsXsXsXsXsXsXsXsXsXsX",
"sXsXsXsXsXsXsXsXsXsXsXsXsXsXsXsXsXsXsXsXsXsXsXsXsXsXsXsXsXsXsXsXsXsXsXsXsXsXsXsXsXsXsXsXsXsXsXsXsXsXsXsXsXsXsXsXsXsXsXsXsXsXsXsXsXsXsXsXsXsXsXsXsXsXsXsXsXsXsXsXsXsXsXsXsXsXsXsXsXsXsXsXsXsXsXsXsXsXsXsXsXsXsXsXsXsXsXsXsXsXsXsX",
"sXsXsXsXsXsXsXsXsXsXsXsXsXsXsXsXsXsXsXsXsXsXsXsXsXsXsXsXsXsXsXsXsXsXsXsXsXsXsXsXsXsXsXsXsXsXsXsXsXsXsXsXsXsXsXsXsXsXsXsXsXsXsXsXsXsXsXsXsXsXsXsXsXsXsXsXsXsXsXsXsXsXsXsXsXsXsXsXsXsXsXsXsXsXsXsXsXsXsXsXsXsXsXsXsXsXsXsXsXsXsXsX",
"sXsXsXsXsXsXsXsXsXsXsXsXsXsXsXsXsXsXsXsXsXsXsXsXsXsXsXsXsXsXsXsXsXsXsXsXsXsXsXsXsXsXsXsXsXsXsXsXsXsXsXsXsXsXsXsXsXsXsXsXsXsXsXsXsXsXsXsXsXsXsXsXsXsXsXsXsXsXsXsXsXsXsXsXsXsXsXsXsXsXsXsXsXsXsXsXsXsXsXsXsXsXsXsXsXsXsXsXsXsXsXsX",
"sXsXsXsXsXsXsXsXsXsXsXsXsXsXsXsXsXsXsXsXsXsXsXsXsXsXsXsXsXsXsXsXsXsXsXsXsXsXsXsXsXsXsXsXsXsXsXsXsXsXsXsXsXsXsXsXsXsXsXsXsXsXsXsXsXsXsXsXsXsXsXsXsXsXsXsXsXsXsXsXsXsXsXsXsXsXsXsXsXsXsXsXsXsXsXsXsXsXsXsXsXsXsXsXsXsXsXsXsXsXsXsX",
"sXsXsXsXsXsXsXsXsXsXsXsXsXsXsXsXsXsXsXsXsXsXsXsXsXsXsXsXsXsXsXsXsXsXsXsXsXsXsXsXsXsXsXsXsXsXsXsXsXsXsXsXsXsXsXsXsXsXsXsXsXsXsXsXsXsXsXsXsXsXsXsXsXsXsXsXsXsXsXsXsXsXsXsXsXsXsXsXsXsXsXsXsXsXsXsXsXsXsXsXsXsXsXsXsXsXsXsXsXsXsXsX",
"sXsXsXsXsXsXsXsXsXsXsXsXsXsXsXsXsXsXsXsXsXsXsXsXsXsXsXsXsXsXsXsXsXsXsXsXsXsXsXsXsXsXsXsXsXsXsXsXsXsXsXsXsXsXsXsXsXsXsXsXsXsXsXsXsXsXsXsXsXsXsXsXsXsXsXsXsXsXsXsXsXsXsXsXsXsXsXsXsXsXsXsXsXsXsXsXsXsXsXsXsXsXsXsXsXsXsXsXsXsXsXsX",
"sXsXsXsXsXsXsXsXsXsXsXsXsXsXsXsXsXsXsXsXsXsXsXsXsXsXsXsXsXsXsXsXsXsXsXsXsXsXsXsXsXsXsXsXsXsXsXsXsXsXsXsXsXsXsXsXsXsXsXsXsXsXsXsXsXsXsXsXsXsXsXsXsXsXsXsXsXsXsXsXsXsXsXsXsXsXsXsXsXsXsXsXsXsXsXsXsXsXsXsXsXsXsXsXsXsXsXsXsXsXsXsX",
"sXsXsXsXsXsXsXsXsXsXsXsXsXsXP t.C.E.E.E.E.E.E.E.Q.Q.Q.Q.E.Q.Q.Q.Q.Q.E.E.E.E.Q.E.Q.Q.Q.W.W.Q.E.Q.Q.Q.Q.W.E.E.Q.Q.E.E.E.E.Q.Q.Q.Q.E.E.E.E.E.E.Q.E.Q.Q.Q.Q.Q.Q.T.Q.Q.Q.E.E.E.E.Q.E.Q.Q.Q.W.W.Q.E.b.t.! sXsXsXsXsXsXsXsXsXsXsXsXsXsX",
"sXsXsXsXsXsXsXsXsXsXsXsX1.U.U.U.U.U.U.U.E.U.U.U.U.U.U.U.U.U.U.U.U.U.U.U.U.U.U.U.U.U.U.U.U.U.U.U.U.U.U.U.U.U.U.U.N.U.E.U.U.U.U.U.U.U.U.U.U.U.U.U.U.U.Y.U.U.U.U.U.U.U.U.U.U.U.U.U.U.U.U.U.U.U.U.E.U.U.U.2.sXsXsXsXsXsXsXsXsXsXsXsX",
"sXsXsXsXsXsXsXsXsXsX> b.C.C.C.C.C.C.N.U.C.b.C.C.N.N.C.I.C.C.C.C.I.N.U.N.U.C.b.U.C.C.C.C.C.I.U.b.C.C.C.C.C.C.C.C.N.N.C.C.U.N.I.N.C.C.N.N.N.U.C.C.C.C.I.N.C.C.U.B.I.N.U.N.U.C.b.U.C.C.C.C.C.I.U.b.C.C.N.U.C.> sXsXsXsXsXsXsXsXsXsX",
"sXsXsXsXsXsXsXsXsXv c.c.c.C.c.b.b.b.b.b.b.b.c.C.b.b.b.b.b.b.c.n.b.b.c.b.b.b.b.b.n.n.b.b.c.n.c.I.=X@XS.b.b.b.b.b.C.b.b.b.b.b.b.b.c.c.C.b.b.c.b.b.c.c.C.b.c.c.c.n.b.b.c.b.b.b.b.b.n.n.b.b.c.n.c.b.b.c.b.b.b.C.b sXsXsXsXsXsXsXsXsX",
"sXsXsXsXsXsXsXsX- c.j.z.c.z.c.j.c.l.c.l.l.l.c.j.z.c.j.z.c.l.c.j.c.l.c.l.j.c.j.c.c.l.l.l.c.l.c.P.1XaXaX4X).b.z.l.z.z.l.l.l.l.l.c.c.j.c.c.j.c.l.l.l.l.l.l.c.l.l.l.l.c.l.c.j.c.c.z.l.c.j.c.j.c.j.c.c.l.c.j.j.c.l.> sXsXsXsXsXsXsXsX",
"sXsXsXsXsXsXsXsXp.j.j.j.j.f.j.j.f.j.j.f.j.j.j.j.j.j.j.j.j.f.j.j.f.f.j.j.j.j.j.j.f.j.j.f.j.f.j.L.<XaXaXaXaXyX#XD.g.l.l.f.l.f.j.g.f.j.j.f.j.j.f.l.g.l.l.g.j.f.j.j.f.f.j.j.j.j.f.j.f.j.j.f.j.j.j.j.j.f.j.j.j.j.j.j.sXsXsXsXsXsXsXsX",
"sXsXsXsXsXsXsX_ p.p.p.p.t.p.t.p.t.p.p.t.f.r.p.t.p.p.p.p.t.p.t.p.p.t.t.p.t.p.p.p.f.p.t.f.t.p.p.H.1XaXaXaXaXaXaXaX7X_.k.t.s.f.p.f.p.t.p.p.t.t.f.r.f.r.s.f.t.p.p.p.p.t.t.p.t.p.p.p.f.t.t.f.t.p.p.p.t.t.p.p.f.r.t.t._ sXsXsXsXsXsXsX",
"sXsXsXsXsXsXsX8.w.w.w.t.w.w.w.r.r.w.w.w.r.w.r.r.w.w.w.t.w.w.w.r.w.r.w.w.r.w.w.r.w.w.w.w.w.w.t.e.*XaXaXaXaXaXaXaXaXaXaX%X^.r.8.r.w.w.w.w.w.w.w.w.r.r.r.r.w.w.w.r.w.r.w.w.w.w.w.w.w.r.w.r.w.w.w.w.w.w.w.w.r.w.w.r.r.sXsXsXsXsXsXsX",
"sXsXsXsXsXsXp 8.8.8.8.5.5.8.8.8.8.5.8.8.8.8.8.5.8.8.8.5.5.8.8.8.8.5.8.7.8.8.8.5.8.8.5.8.8.8.8.7.8.e.|.-XaXaXaXaXaXaXaXaXaXeXOXA.8.8.5.7.w.5.8.8.8.8.8.8.8.8.8.8.8.5.8.7.8.8.8.5.8.5.8.7.8.8.8.7.8.5.8.8.8.8.8.5.8.s sXsXsXsXsXsX",
"sXsXsXsXsXsX! 5.3.3.1.5.5.1.3.3.5.3.3.3.3.3.5.5.3.3.1.5.5.1.3.3.5.5.5.5.1.3.5.5.3.3.5.5.1.3.3.1.3.3.5.5.d..X0XaXaXaXaXaXaXaXaXaX'.5.5.5.3.5.5.1.3.3.3.3.1.1.5.5.5.5.5.5.5.5.5.5.5.5.5.5.1.3.3.1.5.3.3.3.3.3.5.5.1.! sXsXsXsXsXsX",
"sXsXsXsXsXsX@.<.<.>.<.<.<.<.<.<.<.<.=.3.<.<.<.<.<.>.<.<.<.<.<.<.<.<.<.=.=.<.<.<.<.<.<.<.<.>.<.<.<.<.<.=.<.<.<.J.oXqXaXaXaXaXaXaX].<.<.<.<.:.<.<.=.<.=.3.<.<.<.=.<.=.<.<.=.<.<.<.<.<.=.<.<.>.<.<.<.<.=.3.<.<.<.<.<.@.sXsXsXsXsXsX",
"sXsXsXsXsXsX%.%.=.%.=.%.=.%.%.%.=.%.%.=.%.%.%.%.=.%.=.%.=.%.%.%.=.%.%.=.=.=.=.%.%.%.%.%.=.=.%.%.%.%.%.%.%.=.%.%.%.K.;XaXaXaXaXaX].%.%.%.%.%.%.%.=.=.=.=.%.%.=.%.=.%.%.%.=.=.=.%.%.%.=.=.=.=.%.%.=.%.%.=.%.%.%.%.=.%.sXsXsXsXsXsX",
"sXsXsXsXsXsX........X...+.+...+.+.+.....+.+.........+...+.....+.+.+.......+...X.@...+...+.........+.........G.XXwXaXaXiXaXaXaXaX{.+.......+.+.+.......@.+.....+.+.+.......X.X.X...X.+...+.......+.+.....+.+.........sXsXsXsXsXsX",
"sXsXsXsXsXsXY ..| | | | _ / | | | ) | | | ) ) | | | | | ) ) | | | | | ) | | | | / | | | | | ) ) | | | ;. X9XaXaXaXaXaXaXaXaXaX5X/.) ../ | | / | | | | / | ) | _ | | ../ | | | | _ ) | | | | ) | ) ) | | | ) ) | | E sXsXsXsXsXsX",
"sXsXsXsXsXsXj / ^ E / ^ / / ^ ^ / ^ ^ ^ / / ^ / ^ ^ ^ ^ ! / / ^ ^ ^ / / / / ^ ^ ^ Q / ^ ^ / / ^ -.}.-XaXaXaXaXaXaXaXaXaXrX`.9.Q / / / / ^ / ^ / ^ ^ / ^ / / / / ^ ^ / ^ / / ^ / / ^ / ^ ^ / / ^ / ^ / ^ / / ^ / / j sXsXsXsXsXsX",
"sXsXsXsXsXsX= Y Y Y Y Y Y Y Y Y Y Y Y Y Y Y Y L Y L E L Y Y Y Y L Y Y Y Y Y Y Y Y Y Y Y Y Y Y O.:XaXaXaXaXaXaXaXaXaX$XD.Y Y Y Y Y Y Y Y Y Y Y Y Y Y Y Y Y Y Y Y Y Y Y Y Y Y Y Y Y Y Y L Y Y Y Y Y Y Y Y Y Y Y L Y ; sXsXsXsXsXsX",
"sXsXsXsXsXsXsXL G G K G H H K G G G K K G G K K K G K K H K G H G G K K G G H H K K G G H G K } :XaXaXaXaXaXaX6X(.] K K G H H H L H H G H H G G G G H H G H H G G G K K G G H H K K G G H G K L G G K K G G K K K sXsXsXsXsXsXsX",
"sXsXsXsXsXsXsX4 F F A A D F A A A A A A A F F A F F F A A F A F F A A F A A F F F A F A F F A { :XaXaXaXtX+X9.A F F F F B F B G B G G B G B G A A F F F F F F A F A A F A A F F F F F A D F A F A A A A A F F A 4 sXsXsXsXsXsXsX",
"sXsXsXsXsXsXsXsXj m M M B m M m M V M M M M M V M m M V M M M M M M m B V m M M m m M M M M M [ 3XaX&XF.S m M V M M m V M M B M N B m M M M m m m m M M m B M m M M m B V m M M M M M V M M V M M V M M M M M m sXsXsXsXsXsXsXsX",
"sXsXsXsXsXsXsXsXX m m l j m j m j l m l j l m l j m j l l l l m l j l l m j m j j m m l l j l N R.' j l m l m l j l j l m j l M l l j l m j m m j m j l l m l m l j l l m j m j l m l l l j l j j l m l j l m o sXsXsXsXsXsXsXsX",
"sXsXsXsXsXsXsXsXsX@ h h a h h a a h h h a h h a a h a l a h h a h h h i h h h a d l y l h y l a l y l y a a a a h a h h h a h a h a h a a h h a h a a h l a a h h a h y h h a a a h a h a h h a a h a h a h # sXsXsXsXsXsXsXsXsX",
"sXsXsXsXsXsXsXsXsXsX  y p y y y y y y a y y y y y y y y a y y y y y y y y y y y y y y y y y y y y y y y a y y y y y y y y y y y y y y y y y y y y y y y y y y y y y y y y y y y y y y y y y y y y y y y q . sXsXsXsXsXsXsXsXsXsX",
"sXsXsXsXsXsXsXsXsXsXsXsX$ 0 0 0 8 q q 8 7 7 0 0 8 q 0 0 8 q 0 0 0 0 0 0 0 0 8 q 0 0 0 0 q 0 0 0 0 0 y 0 0 0 0 0 8 q q 0 q q 8 q 0 0 q 0 8 q q 0 8 y 8 y 0 0 q q 0 0 q 0 0 0 y 8 0 0 0 0 0 0 0 0 7 y y $ sXsXsXsXsXsXsXsXsXsXsXsX",
"sXsXsXsXsXsXsXsXsXsXsXsXsXsXO * 1 8 3 3 3 0 8 8 4 8 3 3 4 8 8 8 3 3 2 4 3 3 4 8 4 2 8 8 4 3 3 8 4 2 2 2 3 3 3 4 8 8 4 3 4 8 8 8 3 4 2 8 8 8 4 3 8 1 8 3 3 3 4 8 2 8 2 4 3 3 4 8 3 3 4 8 4 3 2 : * + sXsXsXsXsXsXsXsXsXsXsXsXsXsX",
"sXsXsXsXsXsXsXsXsXsXsXsXsXsXsXsXsXsXsXsXsXsXsXsXsXsXsXsXsXsXsXsXsXsXsXsXsXsXsXsXsXsXsXsXsXsXsXsXsXsXsXsXsXsXsXsXsXsXsXsXsXsXsXsXsXsXsXsXsXsXsXsXsXsXsXsXsXsXsXsXsXsXsXsXsXsXsXsXsXsXsXsXsXsXsXsXsXsXsXsXsXsXsXsXsXsXsXsXsXsXsXsX",
"sXsXsXsXsXsXsXsXsXsXsXsXsXsXsXsXsXsXsXsXsXsXsXsXsXsXsXsXsXsXsXsXsXsXsXsXsXsXsXsXsXsXsXsXsXsXsXsXsXsXsXsXsXsXsXsXsXsXsXsXsXsXsXsXsXsXsXsXsXsXsXsXsXsXsXsXsXsXsXsXsXsXsXsXsXsXsXsXsXsXsXsXsXsXsXsXsXsXsXsXsXsXsXsXsXsXsXsXsXsXsXsX",
"sXsXsXsXsXsXsXsXsXsXsXsXsXsXsXsXsXsXsXsXsXsXsXsXsXsXsXsXsXsXsXsXsXsXsXsXsXsXsXsXsXsXsXsXsXsXsXsXsXsXsXsXsXsXsXsXsXsXsXsXsXsXsXsXsXsXsXsXsXsXsXsXsXsXsXsXsXsXsXsXsXsXsXsXsXsXsXsXsXsXsXsXsXsXsXsXsXsXsXsXsXsXsXsXsXsXsXsXsXsXsXsX",
"sXsXsXsXsXsXsXsXsXsXsXsXsXsXsXsXsXsXsXsXsXsXsXsXsXsXsXsXsXsXsXsXsXsXsXsXsXsXsXsXsXsXsXsXsXsXsXsXsXsXsXsXsXsXsXsXsXsXsXsXsXsXsXsXsXsXsXsXsXsXsXsXsXsXsXsXsXsXsXsXsXsXsXsXsXsXsXsXsXsXsXsXsXsXsXsXsXsXsXsXsXsXsXsXsXsXsXsXsXsXsXsX",
"sXsXsXsXsXsXsXsXsXsXsXsXsXsXsXsXsXsXsXsXsXsXsXsXsXsXsXsXsXsXsXsXsXsXsXsXsXsXsXsXsXsXsXsXsXsXsXsXsXsXsXsXsXsXsXsXsXsXsXsXsXsXsXsXsXsXsXsXsXsXsXsXsXsXsXsXsXsXsXsXsXsXsXsXsXsXsXsXsXsXsXsXsXsXsXsXsXsXsXsXsXsXsXsXsXsXsXsXsXsXsXsX",
"sXsXsXsXsXsXsXsXsXsXsXsXsXsXsXsXsXsXsXsXsXsXsXsXsXsXsXsXsXsXsXsXsXsXsXsXsXsXsXsXsXsXsXsXsXsXsXsXsXsXsXsXsXsXsXsXsXsXsXsXsXsXsXsXsXsXsXsXsXsXsXsXsXsXsXsXsXsXsXsXsXsXsXsXsXsXsXsXsXsXsXsXsXsXsXsXsXsXsXsXsXsXsXsXsXsXsXsXsXsXsXsX"
};
