/* XPM */
static char *ed71f5816f4545b0b25d66e2fdfe4db8[] = {
/* columns rows colors chars-per-pixel */
"32 32 86 1 ",
"  c #101111",
". c #111111",
"X c #111211",
"o c #111212",
"O c #1A1B1A",
"+ c #1B1C1C",
"@ c #1C1D1C",
"# c #1C1D1D",
"$ c #1D1D1D",
"% c #1E1E1E",
"& c #262828",
"* c #272828",
"= c #272928",
"- c #282928",
"; c #282929",
": c #2A2A2A",
"> c #2D2E2D",
", c #303231",
"< c #323433",
"1 c #333434",
"2 c #333534",
"3 c #373737",
"4 c #3E3F3F",
"5 c #3E403F",
"6 c #3F403F",
"7 c #3E4040",
"8 c #414341",
"9 c #444645",
"0 c #464848",
"q c #474848",
"w c #474948",
"e c #474949",
"r c #515351",
"t c #525454",
"y c #525554",
"u c #535554",
"i c #535555",
"p c #575B59",
"a c #5A5C5B",
"s c #5D605F",
"d c #5E605F",
"f c #5E6060",
"g c #5E6160",
"h c #656867",
"j c #686B6A",
"k c #686B6B",
"l c #696B6B",
"z c #696C6B",
"x c #6B6D6D",
"c c #6F7372",
"v c #747776",
"b c #747877",
"n c #757877",
"m c #7D8180",
"M c #7F8280",
"N c #7F8382",
"B c #808382",
"V c #808482",
"C c #858989",
"Z c #8A8E8D",
"A c #8B8E8D",
"S c #8B8F8E",
"D c #949797",
"F c #959A98",
"G c #969A99",
"H c #979C9A",
"J c #9CA09F",
"K c #A1A5A4",
"L c #A1A6A4",
"P c #A1A6A5",
"I c #ACB1B0",
"U c #ADB1B0",
"Y c #ADB2B0",
"T c #B4B9B8",
"R c #B7BCBB",
"E c #B8BDBB",
"W c #B8BDBC",
"Q c #C0C6C4",
"! c #C1C6C4",
"~ c #C1C6C5",
"^ c #C5CAC8",
"/ c #C9CECD",
"( c #CCD2D1",
") c #D7DDDC",
"_ c #DDE3E1",
"` c None",
/* pixels */
"````````````````````````````````",
"````````````````````````````````",
"````````````````````````````````",
"````````````````````````````````",
"````````````````````````````````",
"````````````````````````````````",
"``````.O````````````````````````",
"``````.#;>%`````````````````````",
"``````.#;155;```````````````````",
"``````.#;14wuu2`````````````````",
"``````.#*15wuazk8```````````````",
"``````.#;17wyskvMMr`````````````",
"``````.#*15wyfzbNSGDh```````````",
"``````.#=15wyfkvNSGPYYM`````````",
"``````.#*15wyfkbMSGPYR~^````````",
"``````.#*15wyszvMSGPYR~()_``````",
"``````.#;14wyszvNSGPIR~/W```````",
"``````.#*27wuskvNSGPYTH`````````",
"``````.#=14qtakbMSGJV```````````",
"``````.#*18wugxvMCx`````````````",
"``````.#;<4wyfkcp```````````````",
"``````.#*17wya0`````````````````",
"``````.#=1793```````````````````",
"``````.#=<;`````````````````````",
"``````.#````````````````````````",
"````````````````````````````````",
"````````````````````````````````",
"````````````````````````````````",
"````````````````````````````````",
"````````````````````````````````",
"````````````````````````````````",
"````````````````````````````````"
};
