/* XPM */
static char *xpm_[] = {
/* columns rows colors chars-per-pixel */
"51 34 79 1 ",
"  c None",
". c #5B6067",
"X c #5C6067",
"o c #5C6167",
"O c #5C6168",
"+ c #676B71",
"@ c #676B72",
"# c #676C72",
"$ c #6C7077",
"% c #6C7177",
"& c #6D7177",
"* c #6D7178",
"= c #72767C",
"- c #73777C",
"; c #73777D",
": c #787C81",
"> c #787C82",
", c #797C82",
"< c #797D82",
"1 c #83878C",
"2 c #84878C",
"3 c #84878D",
"4 c #84888D",
"5 c #898C91",
"6 c #898D92",
"7 c #8A8D92",
"8 c #8F9297",
"9 c #8F9397",
"0 c #909397",
"q c #909398",
"w c #94979C",
"e c #94989C",
"r c #95989C",
"t c #95989D",
"y c #A0A3A7",
"u c #A1A3A7",
"i c #A1A4A8",
"p c #A6A8AC",
"a c #A6A9AC",
"s c #A6A9AD",
"d c #A7A9AD",
"f c #ABAEB1",
"g c #ACAEB1",
"h c #ACAEB2",
"j c #ACAFB2",
"k c #B1B3B7",
"l c #B1B4B7",
"z c #B2B4B7",
"x c #B2B4B8",
"c c #BDBEC1",
"v c #BDBFC1",
"b c #BDBFC2",
"n c #C2C4C7",
"m c #C3C4C7",
"M c #C3C5C7",
"N c #C3C5C8",
"B c #C8CACC",
"V c #C9CACC",
"C c #C9CACD",
"Z c #CECFD1",
"A c #CED0D2",
"S c #CFD0D2",
"D c #D9DADC",
"F c #DADBDC",
"G c #DADBDD",
"H c #DFE0E1",
"J c #DFE0E2",
"K c #E0E0E2",
"L c #E0E1E2",
"P c #E5E5E7",
"I c #E5E6E7",
"U c #E6E6E7",
"Y c #EAEBEC",
"T c #EBEBEC",
"R c #EBECEC",
"E c #EBECED",
"W c #F6F6F7",
"Q c #F6F7F7",
"! c gray97",
/* pixels */
"                                                   ",
"                                                   ",
"                                                   ",
"                                                   ",
"                                                   ",
"                                                   ",
"      !!!!!!!!!!!!!!!!!!!!!!!!!!!!!!!!!!!!!!!      ",
"      RRYRREYYYYYEYYYEYEYYEETEYYETYEEYTYYRRYY      ",
"      IIIIIIIIIIIIIIIIIIIIPPPPPUIIIIIIIIIIIII      ",
"      JJLLJKJLLKLJLLKLLJLLJJJLJLJJLJLLJLLJJJJ      ",
"      FFFFFFFFFFFFFFFFFFFFFFFFFFFFFFFFFFFFFFF      ",
"      ZZZZZZZSZSZZZZZZSSZZSSSSSSZZSSZZZSZZSZS      ",
"      CCCCCBCBCBCCBCBBBCCCBBBVVVCCCBBBCCCBBCC      ",
"      nnmNnnMnnmnnMnnnMnnnNNnnnnnnnnMnnnmmnNn      ",
"      bbbbbbvbbbbbvvbbbbbbvvvvvvbbbbvvbbbbbbb      ",
"      kkxxkkzzzkzzzxkzzkzzzxxzzxzkzzzxkzzkzzx      ",
"      hhjjjjjjjjhhjhjjhhjhjjjjjjjjjjjhjjjjjjj      ",
"      ppppppppppppppppapppppppdpppppaappppppp      ",
"      yyuuuiuuuuuiiyuuiyiiyiuuuuuuuuuiuuuuuuu      ",
"      wweweewweeeeeeeeeweeeewwwweeeeeeweetwwe      ",
"      qqqqqq890q08qqq8q88qqqqqq89qqq8q00qqqqq      ",
"      777755555555555555555555555555555575765      ",
"      411111134241314444414133131114444311113      ",
"      ,>,,,,>>,,,,,>>>>>>,,,,>>>,>>>>,,,>,,,,      ",
"      ;;;==-;-;;=-;=;;=;;;;=-;;-;;=;;-;;==;-;      ",
"      **$$$$$$$*$$$$$$$$$$$*$$$$$$$$$$$$$$$$$      ",
"      @@@@#+##++##@@##@@++++@@##@@@@###+##@@+      ",
"      ..OXoOoooOooXXooo.O.OO.oOo..ooooooooO.O      ",
"                                                   ",
"                                                   ",
"                                                   ",
"                                                   ",
"                                                   ",
"                                                   "
};
