/* XPM */
static char *b82a4b03eba34a23db8bf8bc6932cd34[] = {
/* columns rows colors chars-per-pixel */
"125 50 175 2 ",
"   c #1F7311",
".  c #1E7B12",
"X  c #21660E",
"o  c #216C0F",
"O  c #256510",
"+  c #226C11",
"@  c #207211",
"#  c #207C15",
"$  c #316F27",
"%  c #327127",
"&  c #327329",
"*  c #367A2D",
"=  c #457E45",
"-  c #487F46",
";  c #1D8314",
":  c #1B8B16",
">  c #1E8518",
",  c #1E8B1A",
"<  c #1A9117",
"1  c #1B9119",
"2  c #1D9D1F",
"3  c #20951F",
"4  c #1E9E20",
"5  c #219F23",
"6  c #3A8435",
"7  c #3D8639",
"8  c #3D883B",
"9  c #2AA32C",
"0  c #32A634",
"q  c #37A839",
"w  c #38A939",
"e  c #418E3B",
"r  c #44913E",
"t  c #3FAC41",
"y  c #428042",
"u  c #448C43",
"i  c #4C824A",
"p  c #4B8C4C",
"a  c #4D944E",
"s  c #4D9B4E",
"d  c #4F8350",
"f  c #4F8950",
"g  c #528452",
"h  c #548C54",
"j  c #578458",
"k  c #5C865C",
"l  c #5E8B5E",
"z  c #4F9E50",
"x  c #539353",
"c  c #529C54",
"v  c #5B955B",
"b  c #599C5A",
"n  c #60885F",
"m  c #43AE44",
"M  c #47AF48",
"N  c #4AAE4B",
"B  c #47B048",
"V  c #4CB14D",
"C  c #52A453",
"Z  c #52AC54",
"A  c #57A558",
"S  c #5DA45E",
"D  c #57AE58",
"F  c #59AB5A",
"G  c #4EB350",
"H  c #55B557",
"J  c #57B458",
"K  c #59B75A",
"L  c #5CB95E",
"P  c #5F9D60",
"I  c #638963",
"U  c #698E69",
"Y  c #649B64",
"T  c #6C926D",
"R  c #679A68",
"E  c #6D9B6D",
"W  c #739573",
"Q  c #739E74",
"!  c #799E7A",
"~  c #5FA960",
"^  c #5EB460",
"/  c #5FB960",
"(  c #63A464",
")  c #62AA62",
"_  c #68A769",
"`  c #67AF68",
"'  c #6CAB6D",
"]  c #63B364",
"[  c #62BB64",
"{  c #67B468",
"}  c #6AB36C",
"|  c #6CBE6D",
" . c #74AB75",
".. c #77A478",
"X. c #7DA47E",
"o. c #7CAD7D",
"O. c #6FB470",
"+. c #6FBA70",
"@. c #74B375",
"#. c #72BD73",
"$. c #7CB57D",
"%. c #7BBB7C",
"&. c #6CC06D",
"*. c #6FC170",
"=. c #73C274",
"-. c #77C478",
";. c #7BC57C",
":. c #7FB280",
">. c #7FB980",
",. c #7FC280",
"<. c #809F80",
"1. c #86A686",
"2. c #84AA84",
"3. c #8AAD8B",
"4. c #84B285",
"5. c #83BC84",
"6. c #87B588",
"7. c #8AB38B",
"8. c #87BE88",
"9. c #8DBB8D",
"0. c #8FAF90",
"q. c #92B392",
"w. c #93BC93",
"e. c #9BBF9B",
"r. c #83C584",
"t. c #84CA85",
"y. c #87C588",
"u. c #8BC58C",
"i. c #8BCD8C",
"p. c #8FC390",
"a. c #8FCE90",
"s. c #94C495",
"d. c #91CF92",
"f. c #97C398",
"g. c #9BC49C",
"h. c #97CD98",
"j. c #9ACC9B",
"k. c #94D195",
"l. c #9CD49D",
"z. c #9FC1A0",
"x. c #9FCDA0",
"c. c #9FD5A0",
"v. c #A2C4A3",
"b. c #A3CAA4",
"n. c #A7CFA8",
"m. c #AACEAB",
"M. c #A1D6A2",
"N. c #A4D8A5",
"B. c #ABD4AC",
"V. c #A7D9A8",
"C. c #AADAAB",
"Z. c #AFDBB0",
"A. c #B1D5B2",
"S. c #B4DEB5",
"D. c #B7DDB8",
"F. c #BADCBA",
"G. c #B7E0B7",
"H. c #BCE2BC",
"J. c #C2E4C2",
"K. c #C7E6C8",
"L. c #C9E7C9",
"P. c #CBE9CC",
"I. c #D2ECD3",
"U. c #D7EED8",
"Y. c #D8EED8",
"T. c #DFF1DF",
"R. c #DFF1E0",
"E. c #E4F3E4",
"W. c #E7F5E8",
"Q. c #EBF6EB",
"!. c #EEF8EF",
"~. c #EEF8F0",
"^. c #F6FBF6",
"/. c #FAFDFA",
"(. c None",
/* pixels */
"(.(.(.(.(.(.(.(.(.(.(.(././././././././././././.^./././././.^././././.^././././.^./././././.^./././././.^./././././.^./././././././././././././././.^././././././././././././././././././././././././././././././././././././././.(.(.(.(.(.(.(.(.(.(.(.(.",
"(.(.(.(.(.(.(.(.(.^.^.^.^.^.^.^.^.^.^.^.^.^.^.^.^.^.^.^.^.^.^.^.^.^.^.^.^.^.^.^.^.^.^.^.^.^.^.^.^.^.^.^.^.^.^.^.^.^.^.^.^.^.^.^.^.^.^.^.^.^.^.^.^.^.^.^.^.^.^.^.^.^.^.^.^.^.^.^.^.^.^.^.^.^.^.^.^.^.^.^.^.^.^.^.^.^.^.^.^.^.^.^.^.^.^.^.(.(.(.(.(.(.(.(.(.",
"(.(.(.(.(.(.(.!.!.Q.!.!.Q.!.!.!.!.!.!.!.!.!.!.!.!.!.!.!.!.!.!.!.!.!.!.!.!.!.!.!.!.!.!.!.!.!.!.!.!.!.!.!.Q.!.!.!.!.!.!.!.!.!.!.!.!.!.!.!.!.!.!.!.!.Q.!.!.Q.!.!.!.!.!.!.Q.!.!.!.!.!.Q.!.!.!.!.!.!.Q.!.!.!.Q.!.!.!.!.!.Q.!.!.!.!.!.!.!.!.!.!.!.(.(.(.(.(.(.(.",
"(.(.(.(.(.Q.Q.Q.Q.Q.Q.Q.Q.Q.Q.Q.W.Q.Q.W.Q.Q.Q.Q.Q.Q.Q.Q.Q.Q.Q.Q.Q.Q.Q.Q.Q.Q.Q.Q.W.Q.Q.Q.Q.Q.Q.Q.Q.Q.Q.Q.Q.Q.Q.Q.Q.Q.Q.Q.Q.Q.Q.Q.Q.Q.Q.Q.Q.W.Q.Q.Q.Q.Q.Q.Q.Q.Q.Q.Q.Q.Q.Q.Q.W.Q.Q.Q.Q.Q.Q.Q.W.Q.Q.Q.Q.Q.Q.Q.Q.Q.Q.Q.Q.Q.Q.Q.Q.Q.Q.Q.Q.W.W.Q.Q.Q.Q.(.(.(.(.(.",
"(.(.(.(.W.W.W.E.W.W.W.W.Q.W.E.W.W.E.W.E.W.W.W.W.E.E.E.E.Q.E.E.E.W.E.E.W.E.W.E.W.W.E.W.W.W.W.W.W.W.E.E.W.W.W.E.E.E.E.W.W.E.E.E.E.E.E.W.E.E.E.W.W.E.W.E.W.W.W.E.W.W.E.W.E.E.E.W.W.E.E.W.E.E.E.E.E.E.W.E.E.W.W.E.W.W.E.E.E.E.E.E.W.E.W.W.W.E.W.W.W.W.(.(.(.(.",
"(.(.(.E.E.E.E.E.E.E.T.E.E.E.E.E.E.E.E.E.E.E.E.E.E.E.E.E.E.E.E.E.E.E.E.E.E.E.E.E.E.E.E.T.E.T.E.E.E.E.E.E.E.E.E.E.E.E.E.E.E.E.E.E.E.E.E.E.E.E.E.E.E.E.E.E.T.E.E.E.E.E.E.E.E.E.E.E.E.E.E.E.E.E.E.E.E.E.E.E.E.E.E.E.E.E.E.E.E.E.E.E.E.E.E.T.E.E.E.E.E.E.(.(.(.",
"(.(.(.T.T.T.T.T.T.T.T.T.T.T.T.T.T.T.T.T.T.T.T.T.T.T.T.T.T.T.T.T.T.T.T.T.T.T.T.T.T.T.T.T.T.T.T.T.T.T.T.T.T.T.T.T.T.T.T.T.E.T.T.T.T.T.E.T.T.T.T.T.T.T.T.T.T.T.T.T.T.T.T.T.T.T.T.T.T.T.T.T.E.T.E.T.T.T.T.T.T.T.T.T.T.T.E.T.T.T.T.T.E.T.T.T.T.T.T.T.T.T.(.(.(.",
"(.(.Y.U.U.U.Y.Y.Y.Y.Y.Y.U.Y.U.U.U.U.U.U.U.U.U.U.Y.Y.Y.Y.Y.Y.Y.Y.Y.Y.Y.Y.Y.Y.Y.Y.Y.Y.Y.Y.Y.Y.Y.Y.Y.Y.Y.Y.U.Y.Y.Y.Y.Y.Y.Y.Y.Y.Y.Y.U.U.U.Y.Y.Y.Y.Y.Y.Y.Y.Y.Y.Y.Y.Y.Y.Y.Y.Y.Y.Y.Y.Y.Y.Y.Y.U.U.U.Y.Y.Y.Y.Y.Y.Y.Y.Y.Y.Y.Y.Y.Y.Y.Y.Y.Y.U.Y.U.U.U.U.U.U.Y.Y.Y.(.(.",
"(.(.I.I.I.I.I.I.I.I.I.I.U.I.I.I.I.I.U.I.U.I.I.U.I.I.U.I.I.I.U.I.I.I.I.I.I.I.I.I.I.I.I.I.I.U.I.I.I.I.I.I.I.I.I.I.I.I.I.I.Y.Y.I.I.U.I.U.I.U.I.U.I.U.I.U.U.I.U.I.U.I.I.U.I.U.I.U.U.I.I.U.I.I.I.I.I.I.I.I.I.I.I.I.U.I.U.I.U.I.I.I.U.I.U.U.U.U.I.U.U.U.I.U.(.(.",
"(.I.I.I.I.I.I.I.I.I.P.I.I.I.I.I.I.P.I.P.I.I.I.I.P.I.I.I.I.I.I.I.I.I.I.I.I.I.I.I.I.I.I.I.I.I.I.I.I.I.I.I.I.I.I.I.I.I.I.I.I.P.I.I.I.I.P.I.I.I.I.I.P.I.P.P.I.P.I.I.I.I.P.I.I.I.P.I.I.P.I.I.I.I.I.I.I.I.I.I.I.I.I.I.P.I.I.I.I.I.P.I.P.I.P.P.P.I.I.P.P.I.I.I.(.",
"(.P.P.I.P.P.P.I.P.P.P.I.I.P.P.P.P.P.P.P.P.P.P.P.P.P.P.P.P.P.P.P.P.P.P.P.P.I.P.P.P.P.P.P.P.P.P.L.L.L.K.K.L.L.P.P.L.P.L.P.P.P.L.P.P.P.P.P.L.P.P.P.P.P.P.P.P.P.P.P.P.P.P.P.P.P.P.P.I.P.L.P.P.P.P.P.P.P.P.P.P.P.P.P.P.P.P.P.I.P.P.P.P.P.P.P.P.P.P.P.P.P.P.P.(.",
"(.L.L.L.L.L.L.P.L.L.L.L.L.L.L.L.P.P.P.P.P.P.P.J.P.P.P.J.P.P.P.P.P.L.P.L.L.L.L.L.P.L.L.L.L.L.L.L.K.K.K.K.J.K.J.J.K.J.K.L.L.L.L.L.L.L.L.L.L.L.L.L.P.L.P.L.L.P.P.P.P.L.P.L.L.L.L.L.L.L.L.L.L.L.P.L.P.P.P.L.L.P.P.P.L.L.P.L.L.L.L.L.P.L.P.L.P.P.P.P.P.P.P.P.(.",
"J.J.J.J.J.J.J.J.J.J.J.J.J.J.J.J.J.J.J.J.J.J.J.J.J.J.J.J.J.J.J.J.J.J.J.J.J.J.J.J.J.J.J.J.J.J.J.J.F.F.F.F.F.F.F.F.F.F.F.H.J.J.J.J.J.J.J.J.J.J.J.J.J.J.J.J.J.J.J.J.J.J.J.J.J.J.J.J.J.J.J.J.J.J.J.J.J.J.J.J.J.J.J.J.J.J.J.J.J.J.J.J.J.J.J.J.J.J.J.J.J.J.J.J.J.",
"H.J.H.H.H.J.H.H.H.H.J.H.H.H.J.H.H.H.H.J.H.H.H.H.H.H.H.H.H.H.H.H.H.J.J.H.H.H.J.H.J.H.J.H.H.H.J.F.F.F.F.A.m.m.m.m.A.A.F.D.F.F.H.F.H.H.H.J.J.H.H.H.H.J.H.H.H.H.H.H.H.H.J.H.H.H.J.H.H.H.J.H.H.H.J.H.H.H.H.H.H.H.H.H.H.H.H.H.H.H.J.H.H.H.J.H.H.H.J.H.H.H.H.H.J.",
"G.H.H.H.H.G.G.H.G.H.G.H.H.G.G.H.G.H.H.G.H.H.G.H.H.H.H.H.H.H.G.G.G.G.H.H.G.H.G.H.G.H.G.H.H.G.G.D.A.A.m.m.v.v.z.z.z.b.m.B.A.A.D.D.G.H.H.H.H.H.H.H.H.H.H.H.H.H.H.H.H.H.H.H.H.H.H.H.H.H.H.H.H.H.H.H.H.H.H.H.H.H.H.H.H.H.H.H.H.H.H.H.H.H.G.G.H.H.G.H.G.H.H.H.H.",
"G.G.G.G.G.G.D.G.G.G.G.G.G.G.G.G.G.G.G.G.G.G.G.G.G.G.G.G.G.G.G.G.G.G.G.G.G.G.D.D.G.G.G.G.G.G.S.Z.A.m.v.z.S 0.0.0.0.e.e.v.n.B.B.A.Z.Z.S.S.S.S.S.G.S.G.S.S.G.G.S.S.G.G.S.S.S.G.S.S.S.G.S.S.S.G.S.S.S.G.G.S.G.S.S.S.G.G.G.G.S.S.S.S.G.G.G.G.G.G.G.G.G.G.G.G.G.",
"G.S.G.S.Z.G.G.Z.G.G.S.G.G.C.G.G.G.S.G.G.S.G.G.S.G.G.S.G.S.S.G.G.G.G.Z.G.Z.G.G.G.Z.S.S.S.S.Z.Z.Z.m.b.e.q.1 3 s ! <.1.3.q.e.g.b.n.B.B.Z.Z.Z.S.Z.S.S.S.Z.G.S.Z.S.S.S.S.S.S.S.S.S.G.G.G.Z.G.Z.G.G.G.S.S.S.S.S.S.S.S.S.S.S.S.S.S.G.S.S.S.S.S.S.S.S.S.G.S.S.G.G.",
"C.C.C.C.C.C.C.C.C.C.V.V.C.C.C.C.V.V.C.C.V.V.V.V.C.C.V.V.V.V.C.C.V.C.C.C.C.C.V.C.C.C.C.Z.C.Z.V.N.v.e.7.1.< < < 1 r U W X.2.0.w.f.j.b.b.M.V.V.V.B.C.C.C.C.C.C.C.C.C.C.V.C.V.C.V.C.V.C.C.C.C.C.V.C.C.C.C.C.C.C.C.C.C.C.C.C.C.V.C.C.C.C.C.C.C.C.C.C.C.C.V.C.V.",
"C.V.V.V.V.V.V.V.N.V.V.V.V.V.V.V.V.V.V.V.V.V.V.V.V.V.N.V.V.V.V.V.V.V.V.V.V.V.V.V.V.V.V.V.N.C.N.b.g.w.4.! < < < < : 3 7 I W X.2.3.9.w.f.j.x.c.M.V.N.V.V.V.V.V.V.V.V.V.V.V.V.V.V.V.V.V.V.V.V.V.V.V.V.V.V.V.V.V.V.V.V.V.V.N.N.V.C.N.V.N.V.V.V.N.N.C.N.V.N.N.N.",
"M.N.N.N.N.N.M.N.N.N.N.N.N.N.N.N.N.N.N.N.N.N.N.N.N.N.N.N.N.N.N.N.N.N.N.N.N.M.M.N.M.N.N.M.N.N.M.j.s.9.2.W : : : : : : : , e n T ! X.4.9.w.s.g.j.x.c.M.M.M.N.N.N.N.N.V.N.N.V.N.M.N.N.N.N.M.N.N.N.N.N.N.N.N.N.N.N.N.N.N.N.M.N.N.N.N.N.N.N.N.N.N.N.N.N.N.N.N.N.",
"M.c.c.c.c.c.M.c.N.l.N.l.l.N.l.N.N.l.N.l.l.N.l.N.l.N.l.N.l.N.l.l.M.M.l.M.M.M.M.M.M.M.M.M.M.M.l.h.s.6.X.T ; : : : : : : : ; , 6 n T Q X.4.6.w.s.j.j.j.c.M.c.M.c.c.l.l.N.M.M.M.M.M.M.M.M.l.M.M.l.M.N.l.N.l.l.l.N.l.M.M.M.M.M.M.l.M.M.c.c.N.M.M.l.N.N.N.l.N.M.",
"l.l.l.l.l.l.l.l.l.l.l.l.l.l.l.l.l.l.l.l.l.l.l.l.l.l.l.l.l.l.l.l.l.l.l.l.l.l.l.l.l.l.l.l.l.l.j.h.9.5...U ; ; ; ; ; ; ; : ; ; > > 6 n T Q o.4.8.p.h.h.h.l.l.l.c.c.l.l.l.l.l.l.l.l.l.l.l.l.l.l.l.l.l.l.l.l.l.l.l.l.l.l.l.l.l.l.l.l.l.l.l.l.l.l.l.l.l.c.l.l.l.",
"k.k.k.k.k.k.k.k.k.k.k.k.k.k.k.k.k.k.k.k.k.k.k.k.k.k.k.k.k.k.k.k.k.k.k.k.k.k.k.k.k.k.k.k.k.k.d.u.8.$.E n ; ; ; ; ; ; ; ; ; ; ; ; ; ; 6 l E ..4.5.u.u.d.k.d.k.k.k.k.k.k.k.k.k.k.k.k.k.k.k.k.k.k.k.k.k.k.k.k.k.k.k.k.k.k.k.k.k.k.k.k.k.k.k.k.k.k.k.k.k.k.k.k.",
"d.k.d.d.d.k.d.k.a.k.a.k.a.k.a.k.a.k.k.a.a.k.a.k.a.k.a.k.k.k.k.k.d.d.d.d.d.d.d.d.d.d.d.d.d.d.i.u.5.o.E n ; ; ; ; ; ; . ; ; . ; ; ; . ; # e Y  .:.5.u.u.a.a.a.d.d.d.d.d.d.d.d.k.d.d.d.d.d.d.d.d.d.d.d.k.a.a.k.k.k.d.d.k.d.d.d.d.k.d.d.d.d.d.d.d.d.a.a.k.a.a.",
"i.i.i.i.i.i.a.i.i.i.i.i.a.a.a.a.i.i.i.i.i.i.a.i.i.i.i.a.i.a.i.i.i.a.i.i.d.i.i.i.i.i.a.a.i.a.u.y.5. .E k . . ; . . . . ; . ; . . . ; . ; . # e ' >.y.u.i.i.a.a.a.i.a.i.a.a.i.i.a.i.i.a.a.a.a.d.a.i.i.a.i.i.a.i.i.a.a.a.i.i.i.i.i.i.i.i.i.i.i.i.i.i.i.a.i.i.",
"i.i.i.i.i.i.i.i.i.i.i.i.i.i.i.t.i.i.i.i.i.i.i.i.i.i.i.i.i.i.i.i.i.i.t.i.i.i.i.i.i.i.i.t.i.i.y.r.$. .R j . . . . . . . . . . . . # . . . . . # r $.,.t.t.t.i.t.a.i.i.i.t.i.i.t.i.i.i.i.t.i.t.t.i.i.i.t.i.i.i.i.i.t.i.t.i.i.i.i.i.i.i.i.i.i.i.i.i.i.i.i.i.i.",
"i.t.t.t.t.t.t.t.t.i.t.t.t.t.t.i.t.i.t.t.i.t.t.i.t.i.t.t.t.t.i.t.t.t.t.t.t.t.t.t.t.t.t.t.t.t.r.r.%.' Y j . . .   . . . . . . . . . . #   # 6 Y @.%.,.t.t.t.t.t.t.t.t.t.t.t.t.t.t.t.t.t.t.t.t.t.t.t.t.t.t.t.t.t.t.t.t.t.t.t.t.t.t.t.t.t.t.t.t.t.t.t.t.t.t.i.",
",.,.t.t.t.t.t.t.,.,.t.t.t.t.,.;.t.t.;.t.;.t.t.;.;.t.t.;.t.t.;.t.t.t.t.t.t.t.t.t.t.t.t.t.t.t.;.;.$.' Y g                             @ * h ( ' @.%.%.;.;.t.t.t.t.t.t.t.t.t.t.t.t.t.t.t.t.t.t.t.t.t.t.t.t.t.t.t.t.t.t.t.t.t.t.t.t.t.t.t.t.t.t.t.t.t.t.t.t.t.",
";.;.-.;.;.;.;.;.;.;.;.;.;.;.;.;.;.;.;.;.;.;.;.;.;.;.-.;.;.;.-.;.;.;.;.;.;.;.;.;.;.;.;.;.;.;.;.#.O._ v g   @           @   @     @ & d v Y ( ' O.#.#.;.;.-.;.;.;.;.;.;.;.;.;.;.;.;.;.;.;.;.;.;.;.;.;.;.;.;.;.;.;.;.;.;.;.;.;.;.;.;.;.;.;.;.;.;.;.;.-.;.;.;.",
"-.-.-.-.-.-.-.-.-.-.-.-.-.-.-.-.-.-.-.-.-.-.-.-.-.;.-.-.-.-.-.-.-.-.-.;.-.-.-.-.-.-.-.-.-.;.#.+.} ( v g   @ o   @ o @ @ o   @ % - h v P ( ` O.+.#.#.#.-.-.-.-.-.-.=.;.=.-.-.-.-.-.-.-.-.-.-.-.-.-.-.-.-.-.-.-.-.-.-.-.-.-.-.-.-.-.-.;.-.-.-.-.-.-.-.-.-.-.",
"-.-.=.=.-.=.=.=.-.=.=.=.-.=.=.=.=.=.=.=.=.=.-.=.-.=.-.-.-.-.=.-.=.=.=.=.=.=.=.=.=.=.=.=.=.=.=.+.` ) v f o o o o o o o o + % - f h P S ( ` } } +.*.#.#.=.=.=.=.=.=.=.=.=.=.=.=.=.=.=.-.=.-.=.=.=.=.=.=.=.=.=.=.=.=.=.=.=.=.=.=.=.=.-.=.=.=.=.=.=.=.=.=.=.-.",
"*.*.*.*.*.*.*.*.&.=.&.=.&.=.&.=.&.=.=.&.=.&.&.=.&.=.&.&.=.&.&.&.*.*.*.*.*.*.*.*.*.=.| =.| =.| } ` ) b f o o o o o o + $ = f x b S ~ ` ` { | | | +.*.*.*.&.*.=.&.=.=.=.&.=.*.*.=.&.=.&.*.*.*.*.*.=.*.*.*.=.*.*.*.*.=.*.*.*.=.*.*.&.&.=.&.&.=.&.=.&.=.&.=.&.",
"&.&.&.&.&.&.&.&.&.&.| &.&.&.&.&.&.&.| | &.&.&.&.| =.| &.&.&.&.&.&.&.&.&.&.&.&.&.&.&.| &.&.&.| { { ) b f X X X X + $ = f x x S S ~ ] ] [ } | | | | | | &.&.&.&.&.&.&.&.&.&.&.&.&.&.&.&.&.&.&.&.&.&.&.&.&.&.&.&.&.&.&.| &.&.&.&.&.&.&.| &.&.&.&.&.&.&.&.&.&.",
"[ [ [ [ [ [ / &.[ [ [ [ [ [ [ [ [ [ [ [ [ [ [ [ [ [ [ [ [ [ [ [ &.&.[ [ &.L [ [ [ [ [ [ [ [ ] ] L F A s X X O % = p p x z A F F L ] ] ] [ [ [ [ [ [ | [ [ &.[ [ [ [ [ [ [ [ | [ [ [ [ [ [ [ [ [ [ [ [ [ [ [ L &.[ [ [ [ [ [ [ [ [ [ [ [ [ [ [ [ [ [ [ [ [ ",
"[ [ [ [ / [ / [ [ [ [ [ [ [ [ [ [ [ [ [ [ [ [ [ [ [ [ [ [ [ [ L K [ L &./ [ L [ [ [ [ [ [ [ [ L K F A s O * u p a a z C A F F ^ K ] / L L [ [ [ [ [ [ [ [ / [ L / [ [ [ / [ [ / [ [ [ [ [ [ [ [ [ [ [ [ [ [ / [ [ [ [ [ [ [ [ L [ [ [ [ [ [ [ [ [ [ [ [ [ ",
"/ L L L L L L L L L L L L L L L L L L L L L L L L L L L L L L L K L L L L L L L K L L K / L K K K D A A s c s s s z C D D F L K K L L L L L K L K L L K L L L L L L L L L L L L L L K K / L L L L L L L L K L L L L L L / L L L L L L L L L L L L L L L / ",
"K K K K K K K K K K K K H K K K K K K K H K K K K K K K K K K K K K K K K K K K K K K K K K J J D D Z Z C C C C C Z A H J H J J K K K K K K K H K K H K K K K K K K K K K K K K K K K K K K K J K K K K K K K K K K K K K K K K K K K K K K K K K K K K K ",
"H K H H H H H H H H H H H H H H H K H H H H H H H H H H H H H H H H H H H H H H H H H H H H H H H Z Z Z Z N N C Z G Z Z H H H J H H H H H H H H H H H H H H H H H H H H H H H H H H H H H H H H H K H H H H H H K H H H H H H H H H H H H H H H H J H H J ",
"(.V G G N G G G G G G G G G G G G V G G G G G V G V G G G G G G G G V G G G G G G G G V G G G V V V V N N N N N N N V G G G G V G N G G G G G G G G G G G N G G G G G G V G G G G G G N G G G G G V G G V G N G G V G G G G G G G G G G G G G G G V G G (.",
"(.V V B V V N V M V V V N V V V V V V V B V V V V V V V M V V V V B V V V V B V M V V V V V V V M N N N N N N N M V M V N N G N V B V V V V V V V V N V V V V V B V V B V V V V B V V V V V V V V V V V V V V V N V V V M V V V V V V V B V V B V V V V (.",
"(.V B B B B B B B M M M M M M M M M M M M M M B B M M M M M M M B B B B B B B B M M M M B B M M M M M M M m M V M M M M M M M M M M M M M M B B M M B B M B B B B B B B M M M M M M M M M M M M m B B B M B M B B B M M M M M M m M M M M M M B M M M M (.",
"(.(.m m m m m m m m m m m m m m m m m m m m m m m m m m m m m m m m m m m m m m m m m m m m m m m m m m m m m B m m m M m m m m m m m m m m m m m m m m m m m m m m m m m m m m m m m m m m m m m m m m m m m m m m m m m m m m m m m m m m m m m m m (.(.",
"(.(.m t w t t t t t t w t w m t w m w m w t t t t t t w t t t t m w w m w m m w t t w m t t t t t t t t w m t w w m m w m m t w t t m w t t t t t t t t t t t t w t w m t t t t m w w m w m m w w m t t t t t t t t t w t t t t w m t t t t t t t t m (.(.",
"(.(.(.q w q q q w q w w q q q w w w w w w q q q w q w w q q q q w w w w w w w w w q q q q w q w w q w q q q 0 w w w w w q w w w q q q q q q q q q q q q q q w w w q w w w q q w w w w w w w w w w w w q q q q q w q w w q q q q w w w q w q q q q q (.(.(.",
"(.(.(.q q 0 0 w 0 0 0 0 0 0 0 0 0 0 0 0 q q 0 0 0 0 w 0 0 0 0 0 w 0 0 0 0 0 0 0 0 w 0 0 w 0 0 0 q q 0 0 0 0 w 0 0 0 0 0 0 0 0 q 0 0 q 0 0 0 0 0 0 0 0 0 0 0 0 0 w w 0 q 0 q q 0 q q 0 q 0 0 0 0 0 0 0 0 0 0 0 w 0 0 0 0 q 0 0 0 0 0 0 0 q 0 0 0 0 w (.(.(.",
"(.(.(.(.0 0 0 0 0 0 0 0 0 0 0 0 0 0 0 0 0 0 0 0 0 0 0 0 0 0 0 0 0 0 0 0 0 0 0 0 0 0 9 0 0 0 9 0 9 0 0 0 9 0 0 0 0 0 0 0 0 0 0 0 0 0 0 0 0 0 0 0 0 0 0 0 9 0 0 0 0 0 9 0 0 9 9 0 0 0 0 9 0 0 0 0 0 0 0 0 0 0 0 0 0 0 0 0 0 0 0 0 0 0 0 0 0 0 0 0 0 (.(.(.(.",
"(.(.(.(.(.0 9 9 9 9 9 9 9 9 9 9 9 9 9 9 9 9 9 9 9 9 9 9 0 9 9 9 9 9 9 9 9 9 9 9 9 9 9 9 9 9 9 9 9 9 9 9 9 9 9 9 9 9 9 0 9 9 9 9 9 9 9 9 9 0 9 9 9 9 9 0 9 0 0 9 9 9 9 9 9 9 9 9 9 9 9 9 9 9 9 9 9 9 9 9 9 9 9 9 9 9 9 9 9 9 9 9 9 9 9 9 0 9 9 9 (.(.(.(.(.",
"(.(.(.(.(.(.(.9 9 9 9 9 9 9 9 9 9 9 9 9 9 9 9 9 5 9 9 9 9 9 9 9 9 9 9 9 9 9 9 9 9 9 9 9 9 9 9 9 9 9 9 9 9 9 9 9 9 9 5 9 9 9 9 9 9 9 9 5 9 9 9 9 5 9 9 9 5 9 9 9 9 9 9 9 9 9 9 9 9 9 9 9 9 9 9 9 9 9 9 9 9 9 9 9 9 9 9 9 9 9 5 9 9 9 9 9 9 9 (.(.(.(.(.(.(.",
"(.(.(.(.(.(.(.(.(.5 5 5 5 5 5 5 5 5 5 5 5 5 5 5 5 5 5 5 5 5 5 5 5 5 5 5 5 5 5 5 5 5 5 5 5 5 5 5 5 5 5 5 5 5 5 5 5 5 5 5 5 5 5 5 5 5 5 5 5 5 5 5 5 5 5 5 5 5 5 5 5 5 5 5 5 5 5 5 5 5 5 5 5 5 5 5 2 5 5 5 5 5 5 5 5 5 5 5 5 5 5 5 5 5 5 5 (.(.(.(.(.(.(.(.(.",
"(.(.(.(.(.(.(.(.(.(.(.(.4 4 4 4 2 2 4 4 4 2 2 2 2 2 4 2 2 2 2 2 2 2 2 4 2 2 2 2 2 2 2 2 2 2 2 2 2 2 2 2 2 2 2 2 2 2 2 2 2 2 2 2 2 2 2 4 4 2 2 2 2 2 4 2 2 2 2 2 2 2 2 4 4 2 2 2 2 2 2 2 2 2 2 2 2 2 2 2 2 2 2 2 2 2 2 2 2 4 4 2 2 (.(.(.(.(.(.(.(.(.(.(.(."
};
