/* XPM */
static char *_695475cd1524679a13b3a72687d3a38[] = {
/* columns rows colors chars-per-pixel */
"112 43 219 2 ",
"   c #34373B",
".  c #34383C",
"X  c #424647",
"o  c #414449",
"O  c #414549",
"+  c #45474A",
"@  c #484C51",
"#  c #4B4E51",
"$  c #4C5053",
"%  c #515354",
"&  c #525456",
"*  c #51565C",
"=  c #52565C",
"-  c #565B61",
";  c #575B61",
":  c #575C63",
">  c #585C62",
",  c #585C63",
"<  c #595C63",
"1  c #585D63",
"2  c #585D64",
"3  c #5A5F65",
"4  c #5A5F66",
"5  c #5B5F66",
"6  c #5F6161",
"7  c #5B6066",
"8  c #5E6265",
"9  c #5F6367",
"0  c #5D6268",
"q  c #5E6268",
"w  c #5E6269",
"e  c #5E6369",
"r  c #5F6468",
"t  c #606262",
"y  c #616469",
"u  c #60656B",
"i  c #61656B",
"p  c #61666B",
"a  c #646768",
"s  c #61666C",
"d  c #666969",
"f  c #64686E",
"g  c #64696E",
"h  c #64696F",
"j  c #65696F",
"k  c #676B71",
"l  c #676C71",
"z  c #686C71",
"x  c #696E73",
"c  c #6A6E72",
"v  c #6A6F72",
"b  c #6A6E73",
"n  c #6A6F73",
"m  c #6A6F74",
"M  c #6E7171",
"N  c #6F7271",
"B  c #6E7273",
"V  c #6E7274",
"C  c #6E7275",
"Z  c #6D7176",
"A  c #6D7276",
"S  c #6D7277",
"D  c #6E7277",
"F  c #707478",
"G  c #707479",
"H  c #707579",
"J  c #717579",
"K  c #73777B",
"L  c #73787B",
"P  c #73787C",
"I  c #74787C",
"U  c #767B7E",
"Y  c #777B7E",
"T  c #777B7F",
"R  c #777C7F",
"E  c #7D7B7E",
"W  c #6A768E",
"Q  c #787C80",
"!  c #7A7D80",
"~  c #797E81",
"^  c #7A7E81",
"/  c #7A7E82",
"(  c #7A7F82",
")  c #7A7E87",
"_  c #747888",
"`  c #877E81",
"'  c #7D8184",
"]  c #7D8284",
"[  c #7D8285",
"{  c #7E8285",
"}  c #7F8386",
"|  c #7F8486",
" . c #7D8199",
".. c #78899C",
"X. c #7E94A7",
"o. c #808486",
"O. c #808487",
"+. c #858686",
"@. c #8F8784",
"#. c #858887",
"$. c #828789",
"%. c #838789",
"&. c #83878A",
"*. c #868A8A",
"=. c #868B8B",
"-. c #858A8C",
";. c #868A8C",
":. c #868B8C",
">. c #878B8C",
",. c #878C8D",
"<. c #898D8E",
"1. c #898D8F",
"2. c #898E8F",
"3. c #8E8D8E",
"4. c #968A87",
"5. c #948C89",
"6. c #918B8C",
"7. c #808497",
"8. c #868A96",
"9. c #838798",
"0. c #8C9091",
"q. c #8C9092",
"w. c #8D9192",
"e. c #8F9394",
"r. c #8F9494",
"t. c #8C909A",
"y. c #909392",
"u. c #919493",
"i. c #909494",
"p. c #909495",
"a. c #919495",
"s. c #929696",
"d. c #929697",
"f. c #929797",
"g. c #949797",
"h. c #949898",
"j. c #959999",
"k. c #979998",
"l. c #979A99",
"z. c #95999A",
"x. c #969A9A",
"c. c #989C9C",
"v. c #999C9C",
"b. c #999D9C",
"n. c #999D9D",
"m. c #9A9D9D",
"M. c #9B9F9E",
"N. c #9B9F9F",
"B. c #A89A86",
"V. c #9CA09F",
"C. c #B3A79B",
"Z. c #959DA6",
"A. c #8F9DB2",
"S. c #9EA2A1",
"D. c #9FA3A1",
"F. c #9EA2A2",
"G. c #9FA2A2",
"H. c #9FA3A2",
"J. c #94A1AE",
"K. c #90A3B3",
"L. c #98AABB",
"P. c #A1A5A4",
"I. c #A2A5A4",
"U. c #A2A6A4",
"Y. c #A2A6A5",
"T. c #A3A7A6",
"R. c #BCB2A6",
"E. c #BDB2A6",
"W. c #A2ADB7",
"Q. c #C2B8AD",
"!. c #CBBCB1",
"~. c #CDBFB4",
"^. c #DDCAB1",
"/. c #E6D5BB",
"(. c #F5DBB3",
"). c #F5D9B6",
"_. c #F5DCB4",
"`. c #FCDFB6",
"'. c #A4B3C2",
"]. c #A3B4C6",
"[. c #A9B9CC",
"{. c #B1BFCE",
"}. c #ACC3D7",
"|. c #BACAD4",
" X c #BACCDD",
".X c #C6D5DF",
"XX c #ECD4C2",
"oX c #E7DDD3",
"OX c #F7E2C2",
"+X c #F9E2C1",
"@X c #F9E3C4",
"#X c #EAE1D7",
"$X c #EEE8DB",
"%X c #F0E7DD",
"&X c #CDDDE8",
"*X c #D0DEE9",
"=X c #D3DFEE",
"-X c #D2E1EA",
";X c #D8E5EE",
":X c #D1EDFC",
">X c #D7F6FF",
",X c #DBF6FF",
"<X c #DEF9FF",
"1X c #F3EDE3",
"2X c #F5EFE6",
"3X c #E3EEF5",
"4X c #E4EEF7",
"5X c #E6F1F8",
"6X c #EBF4FA",
"7X c #EFF9FC",
"8X c #F3F9FF",
"9X c #F1FCFF",
"0X c #FFFFF9",
"qX c #F9FFFF",
"wX c #FFFFFC",
"eX c #FCFCFF",
"rX c #FCFFFF",
"tX c gray100",
"yX c None",
/* pixels */
"yXyXyXyXyXyXyXyXyXyXyXyXyXyXyXyXyXyXyXyXyXyXyXyXyXyXyXyXyXyXyXyXyXyXyXyXyXyXyXyXyXyXyXyXyXyXyXyXyXyXyXyXyXyXyXyXyXyXyXyXyXyXyXyXyXyXyXyXyXyXyXyXyXyXyXyXyXyXyXyXyXyXyXyXyXyXyXyXyXyXyXyXyXyXyXyXyXyXyXyXyXyXyXyXyXyXyXyXyXyXyXyX",
"yXyXyXyXyXyXyXyXyXyXyXyXyXyXyXyXyXyXyXyXyXyXyXyXyXyXyXyXyXyXyXyXyXyXyXyXyXyXyXyXyXyXyXyXyXyXyXyXyXyXyXyXyXyXyXyXyXyXyXyXyXyXyXyXyXyXyXyXyXyXyXyXyXyXyXyXyXyXyXyXyXyXyXyXyXyXyXyXyXyXyXyXyXyXyXyXyXyXyXyXyXyXyXyXyXyXyXyXyXyXyXyX",
"yXyXyXyXyXyXyXyXyXyXyXyXyXyXyXyXyXyXyXyXyXyXyXyXyXyXyXyXyXyXyXyXyXyXyXyXyXyXyXyXyXyXyXyXyXyXyXyXyXyXyXyXyXyXyXyXyXyXyXyXyXyXyXyXyXyXyXyXyXyXyXyXyXyXyXyXyXyXyXyXyXyXyXyXyXyXyXyXyXyXyXyXyXyXyXyXyXyXyXyXyXyXyXyXyXyXyXyXyXyXyXyX",
"yXyXyXyXyXyXyXyXyXyXyXyXyXyXyXyXyXyXyXyXyXyXyXyXyXyXyXyXyXyXyXyXyXyXyXyXyXyXyXyXyXyXyXyXyXyXyXyXyXyXyXyXyXyXyXyXyXyXyXyXyXyXyXyXyXyXyXyXyXyXyXyXyXyXyXyXyXyXyXyXyXyXyXyXyXyXyXyXyXyXyXyXyXyXyXyXyXyXyXyXyXyXyXyXyXyXyXyXyXyXyXyX",
"yXyXyXyXyXyXyXyXyXyXyXyXyXyXyXyXyXyXyXyXyXyXyXyXyXyXyXyXyXyXyXyXyXyXyXyXyXyXyXyXyXyXyXyXyXyXyXyXyXyXyXyXyXyXyXyXyXyXyXyXyXyXyXyXyXyXyXyXyXyXyXyXyXyXyXyXyXyXyXyXyXyXyXyXyXyXyXyXyXyXyXyXyXyXyXyXyXyXyXyXyXyXyXyXyXyXyXyXyXyXyXyX",
"yXyXyXyXyXyXyXyXyXyXyXyXyXyXyXyXyXyXyXyXyXyXyXyXyXyXyXyXyXyXyXyXyXyXyXyXyXyXyXyXyXyXyXyXyXyXyXyXyXyXyXyXyXyXyXyXyXyXyXyXyXyXyXyXyXyXyXyXyXyXyXyXyXyXyXyXyXyXyXyXyXyXyXyXyXyXyXyXyXyXyXyXyXyXyXyXyXyXyXyXyXyXyXyXyXyXyXyXyXyXyXyX",
"yXyXyXyXyXyXyXyXyXyXyXyXyXyXyXyXyXyXyXyXyXyXyXyXyXyXyXyXyXyXyXyXyXyXyXyXyXyXyXyXyXyXyXyXyXyXyXyXyXyXyXyXyXyXyXyXyXyXyXyXyXyXyXyXyXyXyXyXyXyXyXyXyXyXyXyXyXyXyXyXyXyXyXyXyXyXyXyXyXyXyXyXyXyXyXyXyXyXyXyXyXyXyXyXyXyXyXyXyXyXyXyX",
"yXyXyXyXyXyXyXyXyXyXyXyXyXyXyXyXyXyXyXyXyXyXyXyXyXyXyXyXyXyXyXyXyXyXyXyXyXyXyXyXyXyXyXyXyXyXyXyXyXyXyXyXyXyXyXyXyXyXyXyXyXyXyXyXyXyXyXyXyXyXyXyXyXyXyXyXyXyXyXyXyXyXyXyXyXyXyXyXyXyXyXyXyXyXyXyXyXyXyXyXyXyXyXyXyXyXyXyXyXyXyXyX",
"yXyXyXyXyXyXyXyXyXyXyXyXyXyXyXyXyXyXyXyXyXyXyXyXyXyXyXyXyXyXyXyXyXyXyXyXyXyXyXyXyXyXyXyXyXyXyXyXyXyXyXyXyXyXyXyXyXyXyXyXyXyXyXyXyXyXyXyXyXyXyXyXyXyXyXyXyXyXyXyXyXyXyXyXyXyXyXyXyXyXyXyXyXyXyXyXyXyXyXyXyXyXyXyXyXyXyXyXyXyXyXyX",
"yXyXyXyXyXyXyXyXyXyXyXyXyXyXyXyXyXyXyXyXyXyXyXyXyXyXyXyXyXyXyXyXyXyXyXyXyXyXyXyXyXyXyXyXyXyXyXyXyXyXyXyXyXyXyXyXyXyXyXyXyXyXyXyXyXyXyXyXyXyXyXyXyXyXyXyXyXyXyXyXyXyXyXyXyXyXyXyXyXyXyXyXyXyXyXyXyXyXyXyXyXyXyXyXyXyXyXyXyXyXyXyX",
"yXyXyXyXyXyXyXyXyXyXyXyXyXyXyXyXyXyXyXyXyXyXyXyXyXyXyXyXyXyXyXyXyXyXyXyXyXyXyXyXyXyXyXyXyXyXyXyXyXyXyXyXyXyXyXyXyXyXyXyXyXyXyXyXyXyXyXyXyXyXyXyXyXyXyXyXyXyXyXyXyXyXyXyXyXyXyXyXyXyXyXyXyXyXyXyXyXyXyXyXyXyXyXyXyXyXyXyXyXyXyXyX",
"yXyXyXyXyXyXyXyXyXyXyXyXyXyXyXyXyXyXyXyXyXyXyXyXyXyXyXyXyXyXyXyXyXyXyXyXyXyXyXyXyXyXyXyXyXyXyXyXyXyXyXyXyXyXyXyXyXyXyXyXyXyXyXyXyXyXyXyXyXyXyXyXyXyXyXyXyXyXyXyXyXyXyXyXyXyXyXyXyXyXyXyXyXyXyXyXyXyXyXyXyXyXyXyXyXyXyXyXyXyXyXyX",
"yXyXyXyXyXyXyXyXyXyXyXyXyXyXt #.x.G.T.H.Y.Y.Y.Y.Y.Y.Y.Y.H.T.Y.Y.Y.Y.H.Y.Y.Y.H.T.Y.Y.H.T.Y.Y.H.T.Y.Y.Y.Y.H.Y.Y.Y.Y.Y.Y.Y.Y.Y.Y.Y.H.T.T.H.Y.Y.Y.Y.Y.Y.Y.Y.Y.Y.Y.H.Y.T.H.Y.Y.Y.H.T.Y.Y.H.T.Y.T.D.x.+.6 yXyXyXyXyXyXyXyXyXyXyXyXyXyX",
"yXyXyXyXyXyXyXyXyXyXyXyXN m.G.G.D.G.S.D.G.G.D.G.D.D.D.G.G.G.G.G.D.D.S.G.G.G.D.S.H.D.G.S.G.D.S.G.G.D.G.G.S.S.H.G.D.D.D.G.G.D.G.G.D.G.S.D.G.G.D.G.D.D.D.G.G.G.G.G.H.D.S.G.G.G.G.S.D.D.G.S.G.D.G.D.P.G.m.N yXyXyXyXyXyXyXyXyXyXyXyX",
"yXyXyXyXyXyXyXyXyXyXyXu.V.V.V.m.S.V.m.S.S.m.S.m.S.m.V.V.m.S.N.N.G.V.m.S.S.V.m.S.S.N.m.S.S.V.V.V.V.S.S.m.S.S.m.S.S.m.m.V.V.V.V.V.S.V.m.S.S.m.S.m.S.m.V.V.m.S.S.m.S.S.m.S.S.m.S.V.S.N.m.S.S.V.V.m.V.V.m.V.w.yXyXyXyXyXyXyXyXyXyXyX",
"yXyXyXyXyXyXyXyXyXyXf.c.c.m.c.m.c.c.c.c.c.c.c.c.c.c.c.c.c.m.c.c.c.c.m.c.c.c.c.c.c.c.m.c.c.c.c.c.c.c.c.c.c.c.c.c.c.c.m.c.c.W.&X/.c.c.c.c.c.c.c.c.c.c.c.c.c.c.c.m.c.c.c.c.c.c.c.c.c.c.m.c.c.c.c.c.c.c.m.c.c.x.yXyXyXyXyXyXyXyXyXyX",
"yXyXyXyXyXyXyXyXyXi.x.x.x.x.x.x.x.x.c.x.x.x.x.d.x.x.g.x.x.x.x.c.c.x.x.x.x.x.x.x.x.x.x.x.x.x.x.x.x.x.x.x.x.x.x.x.x.x.Z.|.6XtXtX@Xm.x.x.x.x.x.x.x.x.x.x.f.x.x.x.c.x.x.c.x.x.x.x.x.x.c.x.x.x.x.x.c.x.x.x.x.x.x.i.yXyXyXyXyXyXyXyXyX",
"yXyXyXyXyXyXyXyX;.d.i.x.i.i.d.d.d.i.d.d.i.d.d.d.g.i.d.d.d.i.d.d.i.i.d.d.i.d.i.f.i.d.d.d.d.f.i.i.i.i.f.i.d.i.i.f.'.;XqXtXtXtXtXOXi.d.i.d.d.i.d.d.i.d.f.i.x.i.i.i.i.i.d.d.i.i.i.g.i.d.i.d.d.d.i.i.i.i.d.d.i.d.i.-.yXyXyXyXyXyXyXyX",
"yXyXyXyXyXyXyXd e.e.e.i.i.i.i.r.w.w.d.i.i.w.i.i.e.e.u.u.w.i.w.i.i.w.i.i.r.r.i.i.r.w.i.i.i.i.w.r.i.u.i.r.r.J..X8XtXtXtXtXtXtXtX@Xr.w.i.w.r.w.i.r.d.w.i.i.w.i.w.u.i.e.i.i.i.i.e.i.r.w.w.i.r.i.w.i.i.r.r.w.i.w.i.i.d yXyXyXyXyXyXyX",
"yXyXyXyXyXyXyX,.0.0.w.w.w.1.w.w.w.w.w.1.w.q.q.w.0.0.0.w.w.w.w.w.w.w.1.w.w.w.3.w.w.w.1.w.w.w.q.w.w.3.t.}.4XtXtXtXtXtXtXtXtXtX0X^.w.w.w.3.w.w.w.w.1.w.w.w.0.w.w.0.w.w.1.w.w.w.0.0.w.w.q.w.q.w.3.w.w.w.w.q.w.w.w.w.,.yXyXyXyXyXyXyX",
"yXyXyXyXyXyX& 2.1.1.1.2.2.2.2.2.2.2.2.2.1.1.1.1.2.2.2.2.2.2.2.,.1.1.1.1.2.2.2.2.1.1.1.1.2.2.2.2.L.-XqXtXtXtXtXtXtXtXtX0X#XE.6.2.2.2.2.2.2.1.1.1.1.1.1.2.2.2.<.2.1.1.1.1.2.2.2.2.1.1.1.1.2.2.2.2.2.2.2.2.1.1.1.1.,.% yXyXyXyXyXyX",
"yXyXyXyXyXyXV ;.;.;.;.;.-.-.-.;.-.-.-.-.;.;.;.,.-.>.>.-.;.;.;.-.;.;.;.;.;.=.-.-.;.;.;.,.=.=.8.:XtXtXtXtXtXtXtXtX0X%XQ.6.-.-.-.-.-.-.-.-.;.;.;.;.;.,.;.;.;.;.-.-.;.;.;.;.;.=.-.>.;.;.;.,.-.-.-.-.-.-.-.-.;.;.;.,.,.B yXyXyXyXyXyX",
"yXyXyXyXyXyX! &.%.%.&.&.%.%.&.&.+.&.&.&.&.&.&.&.-.O.O.&.&.&.&.&.&.&.&.&.&.O.&.&.&.&.&.&.#.&.9.,XtXtXtXtXtXtX1X~.5.&.%.%.%.%.O.-.&.&.&.&.&.&.&.&.%.&.&.&.&.&.&.-.&.&.&.&.&.O.&.&.&.&.&.&.&.&.&.&.%.%.&.&.&.&.&.&.&.E yXyXyXyXyXyX",
"yXyXyXyXyXyX{ | o.{ o.o.{ o.| | O.{ | | | O.| | O.O.O.{ | | | { O.| | | | O.O.| O.| O.{ | |  .>XtXtXtXtXtXXX4.{ &.{ O.{ o.{ o.o.| | | | | | | | &.{ { o.{ O.O.{ | | { | | O.O.| O.| O.{ | | | | o.o.{ | | O.O.| | | yXyXyXyXyXyX",
"yXyXyXyXyXyX{ { { [ [ [ { [ [ [ { { { [ { [ [ { [ [ [ [ { { [ ' { { [ [ ' [ [ [ { { { [ [ [  .,XtXtXtXtXeXtXtX2X!.@.' ' ' { ' ' [ [ [ { [ [ [ [ [ { [ [ [ [ { { { { [ [ ' [ [ [ { { [ [ [ [ [ [ ' { { ' { { [ { [ [ yXyXyXyXyXyX",
"yXyXyXyXyXyXT ! ! ! ! Q ! ! ! ! ! ! ! Q ! ! Q ! ! / ! Q ! ! ! ' ! ! ! Q ! ! Q ! ! ! Q ! ' Q ) }.7XtXtXtXtXtXtXtXtXtX$XR.` ! ! ! ! ! ! Q ! ! Q ! ! ! Q ! ! ! ! ! ! ! ! Q ! ! Q ! ! ! Q ! ! Q ! ! ! ! ! ! ! ! Q ! ! Q yXyXyXyXyXyX",
"yXyXyXyXyXyXV T U U Q U Q T T T T T U U Q Q T Q T T Q T T T T T Q T T T Q U U Q Q T Q ! T T T T T A.&XtXtXtXtXtXtXtXtXtX0XoXC.E Q T Q Q Q U U Q U U Q T Q Q Q Q Q T T T Q U U Q T T Q Q Q U Q T T T U U Q Q Q Q E C yXyXyXyXyXyX",
"yXyXyXyXyXyXr P P L P L H T H T H L L T P P H P L L P L P L H T L P L P L P P P H T H H L L L L H P H _ ].3XtXtXtXtXtXtXtXtXtX).H T H P L L P P P L P P P H H I P P L P L P P P I I H I P L L P H L L T P P H P P 7 yXyXyXyXyXyX",
"yXyXyXyXyXyX+ H F F F H H H S H F F H H H H H F F F F H F H S H F F H F F F H F G H H G H H H S H H H H F H .. X9XtXtXtXtXtXtX_.F F H F H H H H F F F L F H H G F F H F F F H F S H H H H H H S F F H F F H H H F o yXyXyXyXyXyX",
"yXyXyXyXyXyXyXc V S V V S S S V F S S m S V S V S V S V S S Z Z S S V V m F S S S V V S V S S V S V V S S V S V V K.=XqXtXtXtX(.S V S S S V S m V S F m S V S S S S V V m F m F S V S V S V S Z F S V m S S m V x yXyXyXyXyXyXyX",
"yXyXyXyXyXyXyX$ m c m m m m m m x m c m m m c m m m l m m m m m m m m m m c m m m m m m m m m m m m m m m c c m m m l W [.5XtX`.c m m m m m c m m m x m m m m m m m m m m m m m c m m m m m m m c m m m m m m m # yXyXyXyXyXyXyX",
"yXyXyXyXyXyXyXyXu l k l k k l l l l l l c l k l l l l l l l l c l l l l l l l l l l k k k k k c l k k k l l k k c k l l l l X.B.l k k k k c l l l l l l l l l l l l l l l l l l c l k k k k k m l l l l l c k r yXyXyXyXyXyXyXyX",
"yXyXyXyXyXyXyXyXyXu f h h k h k k f k f f h h k h k f f k h h k k h k s k k h s f f f k f k k s k k h h f k u k h h f f f k u k k s k k u k k s k k u k k h h k h h f f f f k s f f f k f k k s f k f f h h u yXyXyXyXyXyXyXyXyX",
"yXyXyXyXyXyXyXyXyXyXr u u u e u r u u u u u u u u u u w u u e u u e s w e s u u u u u u u r u u e u u u u u u u u u u u u u u u u u u u u u u w u u u u s e u u u u u u s s u u u u u u u r u u u u u u u e yXyXyXyXyXyXyXyXyXyX",
"yXyXyXyXyXyXyXyXyXyXyX: r r r r r r u r r r u r r r r r r r r r r r w r w r e e r r r r r w r w w w r r r r e e r r r r w r r r r w r r r r r r w r r r r w r r r r r r r r w w r r r r r w r w r r r r 1 yXyXyXyXyXyXyXyXyXyXyX",
"yXyXyXyXyXyXyXyXyXyXyXyXo : 2 7 4 4 2 2 0 2 2 2 4 2 0 4 4 2 2 7 4 7 4 4 7 4 4 7 0 2 2 7 4 4 4 4 4 4 2 4 7 5 7 2 5 2 4 0 4 4 4 4 4 4 4 2 4 0 2 4 4 2 4 4 4 4 2 7 2 0 2 4 4 0 4 7 0 2 2 7 4 4 4 4 4 4 1 o yXyXyXyXyXyXyXyXyXyXyXyX",
"yXyXyXyXyXyXyXyXyXyXyXyXyXyX. @ * : : 2 2 2 : 2 2 2 : : 1 2 : : 1 : 2 2 2 2 2 : 1 1 : : 1 2 : : 2 2 2 2 : 2 : 1 2 2 : 2 2 2 2 : 1 : : 1 : 1 : 2 2 2 2 : 2 2 : : 1 : 2 2 : 2 : 2 1 1 : : 1 2 : * @ . yXyXyXyXyXyXyXyXyXyXyXyXyXyX",
"yXyXyXyXyXyXyXyXyXyXyXyXyXyXyXyXyXyXyXyXyXyXyXyXyXyXyXyXyXyXyXyXyXyXyXyXyXyXyXyXyXyXyXyXyXyXyXyXyXyXyXyXyXyXyXyXyXyXyXyXyXyXyXyXyXyXyXyXyXyXyXyXyXyXyXyXyXyXyXyXyXyXyXyXyXyXyXyXyXyXyXyXyXyXyXyXyXyXyXyXyXyXyXyXyXyXyXyXyXyXyXyX",
"yXyXyXyXyXyXyXyXyXyXyXyXyXyXyXyXyXyXyXyXyXyXyXyXyXyXyXyXyXyXyXyXyXyXyXyXyXyXyXyXyXyXyXyXyXyXyXyXyXyXyXyXyXyXyXyXyXyXyXyXyXyXyXyXyXyXyXyXyXyXyXyXyXyXyXyXyXyXyXyXyXyXyXyXyXyXyXyXyXyXyXyXyXyXyXyXyXyXyXyXyXyXyXyXyXyXyXyXyXyXyXyX",
"yXyXyXyXyXyXyXyXyXyXyXyXyXyXyXyXyXyXyXyXyXyXyXyXyXyXyXyXyXyXyXyXyXyXyXyXyXyXyXyXyXyXyXyXyXyXyXyXyXyXyXyXyXyXyXyXyXyXyXyXyXyXyXyXyXyXyXyXyXyXyXyXyXyXyXyXyXyXyXyXyXyXyXyXyXyXyXyXyXyXyXyXyXyXyXyXyXyXyXyXyXyXyXyXyXyXyXyXyXyXyXyX",
"yXyXyXyXyXyXyXyXyXyXyXyXyXyXyXyXyXyXyXyXyXyXyXyXyXyXyXyXyXyXyXyXyXyXyXyXyXyXyXyXyXyXyXyXyXyXyXyXyXyXyXyXyXyXyXyXyXyXyXyXyXyXyXyXyXyXyXyXyXyXyXyXyXyXyXyXyXyXyXyXyXyXyXyXyXyXyXyXyXyXyXyXyXyXyXyXyXyXyXyXyXyXyXyXyXyXyXyXyXyXyXyX",
"yXyXyXyXyXyXyXyXyXyXyXyXyXyXyXyXyXyXyXyXyXyXyXyXyXyXyXyXyXyXyXyXyXyXyXyXyXyXyXyXyXyXyXyXyXyXyXyXyXyXyXyXyXyXyXyXyXyXyXyXyXyXyXyXyXyXyXyXyXyXyXyXyXyXyXyXyXyXyXyXyXyXyXyXyXyXyXyXyXyXyXyXyXyXyXyXyXyXyXyXyXyXyXyXyXyXyXyXyXyXyXyX",
"yXyXyXyXyXyXyXyXyXyXyXyXyXyXyXyXyXyXyXyXyXyXyXyXyXyXyXyXyXyXyXyXyXyXyXyXyXyXyXyXyXyXyXyXyXyXyXyXyXyXyXyXyXyXyXyXyXyXyXyXyXyXyXyXyXyXyXyXyXyXyXyXyXyXyXyXyXyXyXyXyXyXyXyXyXyXyXyXyXyXyXyXyXyXyXyXyXyXyXyXyXyXyXyXyXyXyXyXyXyXyXyX"
};
