/* XPM */
static char *_097aea1ad294b9c948a909bbd1e2d28[] = {
/* columns rows colors chars-per-pixel */
"32 32 91 1 ",
"  c #101111",
". c #111111",
"X c #111211",
"o c #111212",
"O c #1B1B1B",
"+ c gray11",
"@ c #1C1D1C",
"# c #1C1D1D",
"$ c #1D1D1D",
"% c #252525",
"& c #272828",
"* c #272928",
"= c #282928",
"- c #282929",
"; c #2A2A2A",
": c gray18",
"> c #2F2F2F",
", c #303232",
"< c #323433",
"1 c #333434",
"2 c #333534",
"3 c #353737",
"4 c #383A3A",
"5 c #3D3F3F",
"6 c #3E3F3F",
"7 c #3E403F",
"8 c #3E4040",
"9 c #404242",
"0 c #444646",
"q c #454747",
"w c #474847",
"e c #494B4A",
"r c #494B4B",
"t c #494C4B",
"y c #4A4C4B",
"u c #525454",
"i c #535555",
"p c #545656",
"a c #545756",
"s c #555756",
"d c #555757",
"f c #565A58",
"g c #595C5C",
"h c #5F6261",
"j c #606261",
"k c #606262",
"l c #606362",
"z c #626464",
"x c #666968",
"c c #6B6E6D",
"v c #6B6E6E",
"b c #6C6E6E",
"n c #6F7373",
"m c #747777",
"M c #767978",
"N c #767979",
"B c #767A79",
"V c #777A79",
"C c #7A7D7C",
"Z c #7F8382",
"A c #808382",
"S c #838685",
"D c #8A8E8D",
"F c #8B8E8D",
"G c #8B8F8E",
"H c #8C9290",
"J c #909392",
"K c #959A98",
"L c #969A99",
"P c #999D9C",
"I c #A1A5A4",
"U c #A1A6A4",
"Y c #A1A6A5",
"T c #A2A6A5",
"R c #A7ACAA",
"E c #ACB1B0",
"W c #ADB1B0",
"Q c #ADB2B0",
"! c #AFB3B1",
"~ c #B1B5B4",
"^ c #B7BCBB",
"/ c #B8BDBB",
"( c #B8BDBC",
") c #C1C7C4",
"_ c #C3C8C7",
"` c #C3C9C7",
"' c #C9CDCC",
"] c #CED4D2",
"[ c #D8DFDC",
"{ c #D9E0DE",
"} c None",
/* pixels */
"}}}}}}}}}}}}}}}}}}}}}}}}}}}}}}}}",
"}}}}}}}}}}}}}}}}}}}}}}}}}}}}}}}}",
"}}}}}}}}}}}}}}}}}}}}}}}}}}}}}}}}",
"}}}}}}}}}}}}}}}}}}}}}}}}}}}}}}}}",
"}}}}}}}}}}}}}}}}}}}}}}}}}}}}}}}}",
"}}}}}}}}}}}}}}}}}}}}}}}}}}}}}}}}",
"}}}}}}}}}}}}}}}}}}}}}}}}Oo}}}}}}",
"}}}}}}}}}}}}}}}}}}}}}}:&+o}}}}}}",
"}}}}}}}}}}}}}}}}}}}%881=@o}}}}}}",
"}}}}}}}}}}}}}}}}}>idy61&@ }}}}}}",
"}}}}}}}}}}}}}}}4xvhdy82&@o}}}}}}",
"}}}}}}}}}}}}}wCANvhdr81=@o}}}}}}",
"}}}}}}}}}}}fJLGZNvjse62&Oo}}}}}}",
"}}}}}}}}}}RQULGANvhsy81=+o}}}}}}",
"}}}}}}}})_(QULGZMvhse62&+o}}}}}}",
"}}}}}}[{]_/QULGZNvhfe72=+o}}}}}}",
"}}}}}}}!'`^EULGZNclsr82&@o}}}}}}",
"}}}}}}}}}G~EULGANclsy61&@o}}}}}}",
"}}}}}}}}}}}NPLGZNvhsr62&@o}}}}}}",
"}}}}}}}}}}}}}lSZNbjse62&@o}}}}}}",
"}}}}}}}}}}}}}}}invjsy72=+o}}}}}}",
"}}}}}}}}}}}}}}}}}wgdy72&+o}}}}}}",
"}}}}}}}}}}}}}}}}}}}3w82&+o}}}}}}",
"}}}}}}}}}}}}}}}}}}}}}=,&+o}}}}}}",
"}}}}}}}}}}}}}}}}}}}}}}}}+o}}}}}}",
"}}}}}}}}}}}}}}}}}}}}}}}}}}}}}}}}",
"}}}}}}}}}}}}}}}}}}}}}}}}}}}}}}}}",
"}}}}}}}}}}}}}}}}}}}}}}}}}}}}}}}}",
"}}}}}}}}}}}}}}}}}}}}}}}}}}}}}}}}",
"}}}}}}}}}}}}}}}}}}}}}}}}}}}}}}}}",
"}}}}}}}}}}}}}}}}}}}}}}}}}}}}}}}}",
"}}}}}}}}}}}}}}}}}}}}}}}}}}}}}}}}"
};
