/* XPM */
static char *bfb72978a2774ab9dd8910b0ec0e52c1[] = {
/* columns rows colors chars-per-pixel */
"96 25 256 2 ",
"   c #0A0C0D",
".  c #060B06",
"X  c #0B1809",
"o  c #0E0F11",
"O  c #0F1012",
"+  c #121416",
"@  c #141618",
"#  c #16191A",
"$  c #191D1E",
"%  c #0E2709",
"&  c #0E3307",
"*  c #12340A",
"=  c #172716",
"-  c #1A1E20",
";  c #1E2225",
":  c #23272A",
">  c #252A2D",
",  c #292C2C",
"<  c #2C3236",
"1  c #2E3438",
"2  c #333A3E",
"3  c #15420B",
"4  c #184B0C",
"5  c #18510B",
"6  c #1C5A0C",
"7  c #1D630E",
"8  c #1F700F",
"9  c #1F6D17",
"0  c #1F7310",
"q  c #1E7B13",
"w  c #22630D",
"e  c #216B0E",
"r  c #206F10",
"t  c #24691B",
"y  c #207110",
"u  c #317E13",
"i  c #3F7B12",
"p  c #397411",
"a  c #2C5632",
"s  c #1F742C",
"d  c #1E793B",
"f  c #2C6529",
"g  c #386639",
"h  c #3A733D",
"j  c #4A7611",
"k  c #4B7D11",
"l  c #547A12",
"z  c #657712",
"x  c #373D42",
"c  c #3A4246",
"v  c #3E454A",
"b  c #3B5F40",
"n  c #1E7648",
"m  c #207848",
"M  c #1E7C6C",
"N  c #1E7E64",
"B  c #1E7773",
"V  c #414B4D",
"C  c #404447",
"Z  c #444C52",
"A  c #4C5155",
"S  c #4C5558",
"D  c #545A5E",
"F  c #4F7456",
"G  c #506E57",
"H  c #545C62",
"J  c #595F62",
"K  c #5B6266",
"L  c #5B646A",
"P  c #5D6870",
"I  c #5D7767",
"U  c #626A6D",
"Y  c #616666",
"T  c #636C71",
"R  c #696E72",
"E  c #6A7575",
"W  c #7B7F7E",
"Q  c #627368",
"!  c #1C8415",
"~  c #1B8C16",
"^  c #1D8E1B",
"/  c #1A9017",
"(  c #199418",
")  c #199819",
"_  c #208118",
"`  c #308013",
"'  c #1C862D",
"]  c #288B25",
"[  c #299428",
"{  c #388E38",
"}  c #3CA13A",
"|  c #4A8014",
" . c #7C8512",
".. c #738113",
"X. c #54802B",
"o. c #79942D",
"O. c #798C3C",
"+. c #1D8148",
"@. c #1D845C",
"#. c #398155",
"$. c #1D8364",
"%. c #1D8D73",
"&. c #3F816C",
"*. c #439D40",
"=. c #4B8857",
"-. c #598954",
";. c #558D50",
":. c #56AB54",
">. c #60A55F",
",. c #618E63",
"<. c #649166",
"1. c #739164",
"2. c #6D8B74",
"3. c #75846E",
"4. c #888612",
"5. c #908912",
"6. c #8B9214",
"7. c #909014",
"8. c #908D2C",
"9. c #87932D",
"0. c #8B8C3C",
"q. c #A49C3C",
"w. c #A9A858",
"e. c #B8A854",
"r. c #B6A548",
"t. c #A49C77",
"y. c #90A67C",
"u. c #A9A868",
"i. c #BEB46C",
"p. c #BAB073",
"a. c #B6AA64",
"s. c #C6B36C",
"d. c #1F7E80",
"f. c #757D81",
"g. c #1F888C",
"h. c #1D9086",
"j. c #1E8995",
"k. c #1D9494",
"l. c #1D9892",
"z. c #3F8A86",
"x. c #318F97",
"c. c #3195A1",
"v. c #4A9592",
"b. c #768187",
"n. c #798786",
"m. c #6C9297",
"M. c #72AD9D",
"N. c #6CA692",
"B. c #4995A1",
"V. c #54A5A1",
"C. c #4AA2B6",
"Z. c #54A9BD",
"A. c #56A4B9",
"S. c #79AAAB",
"D. c #6CAAB0",
"F. c #7BB2B4",
"G. c #75AEC1",
"H. c #6FB0C1",
"J. c #77B8C8",
"K. c #7CBFD5",
"L. c #7FC2D7",
"P. c #868885",
"I. c #859480",
"U. c #878E92",
"Y. c #899297",
"T. c #939A9D",
"R. c #A9A08E",
"E. c #A4B080",
"W. c #B8B986",
"Q. c #A9B39A",
"!. c #BEB997",
"~. c #989EA0",
"^. c #98B6A6",
"/. c #9AB5B0",
"(. c #8BB3B9",
"). c #A3A6A4",
"_. c #A0A6A9",
"`. c #B1BEA2",
"'. c #B9B6AB",
"]. c #ADBBB0",
"[. c #B1B3B3",
"{. c #BEBEBB",
"}. c #B5BBB3",
"|. c #C2BF8C",
" X c #D1BD80",
".X c #D1BD97",
"XX c #C2BFA6",
"oX c #B2C0A6",
"OX c #AED2AA",
"+X c #ADC3B9",
"@X c #B3C1B4",
"#X c #B6C2B9",
"$X c #BEC0BD",
"%X c #CEC08C",
"&X c #D5C286",
"*X c #D8C789",
"=X c #CAC392",
"-X c #CEC5A1",
";X c #CECAA1",
":X c #D4CBA6",
">X c #D4C9A1",
",X c #DCD1A6",
"<X c #DCD4AB",
"1X c #C2CFBD",
"2X c #C7C5B9",
"3X c #D1C9B0",
"4X c #DCD4B0",
"5X c #DCDCBA",
"6X c #D7D4BB",
"7X c #85C3D9",
"8X c #92C1D1",
"9X c #9CCAD5",
"0X c #90CADC",
"qX c #95C2C5",
"wX c #ADCFD3",
"eX c #A7C7D3",
"rX c #B9CBD2",
"tX c #BAD1DC",
"yX c #A4C7CD",
"uX c #A9D4E0",
"iX c #A4D2E0",
"pX c #B5D6E0",
"aX c #BAD5E0",
"sX c #BCDBE0",
"dX c #CECFC1",
"fX c #CBCFCD",
"gX c #C3C8C3",
"hX c #D1CFC5",
"jX c #CDD9CC",
"kX c #DAD6C3",
"lX c #DCDDCD",
"zX c #D9D9C4",
"xX c #CAD7D9",
"cX c #C4D9D9",
"vX c #DCDDD4",
"bX c #DCDEDB",
"nX c #D4D6D3",
"mX c #E1DFD9",
"MX c #DEE9DB",
"NX c #C7E2C6",
"BX c #E3E2DC",
"VX c #C4DEE0",
"CX c #CDDDE0",
"ZX c #D2DEE0",
"AX c #DBDEE0",
"SX c #E7E6E1",
"DX c #E9E7E1",
"FX c #EBEAE5",
"GX c #EEEDEA",
"HX c #E6E7E8",
"JX c #F0EFEC",
"KX c #F2F1ED",
"LX c #F5F4F2",
"PX c #FDFDFD",
"IX c #F8FAF7",
"UX c None",
/* pixels */
"UXUXUXUXUXUXUXUXUX) ) ) ) ) ) ) ) ) ) ) ( ) ) ) ) ) ) ) ) ( ) ) ) ) ( ( ) ) ( ) ) ) ) ) ) ) ) ) ) ) ) ) ) ) ) ) ) ) ) ( ) ( ) ) ) ) ) ) ) ) ) ) ) ) ) ) ) ) ) ) ) ) ) ) ) ) ) UXUXUXUXUXUXUXUXUX",
"UXUXUXUXUXUXUX) ( ( ( ( ( ) ) ( ) ^ ) ) ) ( ( ^ ) ) ( ( ( ) ( ( ( ) ) ) ) ( ) ( ) ( ( ( / ( ) ( ( ( ( ( ) ( ( ( ( ( ) ( ( ) ( ( ) ( ) ( / ) ) ) ( ( ( ( ( ( ( ( ) ( ( ) ( ) ( ) ( UXUXUXUXUXUXUX",
"UXUXUXUXUX( / ( ( ( ( ( ( / / / ^ ) ^ ( } [ / ) / ( / / / ( ( ( ( ( / ( / ) / ) ( ( / ) ( ( / / / ( ( ( / ( / ( ( ( / ( ( ( ( ( ( ( / / ( / / ( ^ ( / / / ( ( ( / ( ( / ( ( ^ ( ( / ( UXUXUXUXUX",
"UXUXUXUX/ / / / / / ~ / / / / [ [ ^ :.NXIXMXOX:./ / / / / / / / / / / / / / / ~ / / / / ( ~ ( ( / / ( ~ / / / / / / / / / / / / / ^ / / / / / / ( / / / / / / / / / / / / / / / / / / / UXUXUXUX",
"UXUXUX/ ~ / ~ / / ~ / / / / ^ 2.~.jXIXPXPXPXPXGX*.( / ~ / ~ ~ ~ ~ ~ ~ ~ ~ ~ / / ~ ~ / ~ ( ~ ~ ~ / ~ / / ~ ~ / / ~ / ~ ~ / ~ / ~ / / / ~ / / ~ ~ / / / ~ / / ~ / ~ / / / ~ / / ~ ~ ~ / ~ / UXUXUX",
"UXUX~ ~ / ~ ~ ~ ~ ~ ~ / / ~ { _.HXPXIXLXLXLXJXKXfX2.2.,.,.{ ~ ~ ~ ( ~ ~ ~ ~ ~ ~ ~ ~ ~ ~ ~ ~ ~ ~ ~ ~ ~ / ~ ~ ~ / ~ ~ ~ ~ ~ ~ / ~ ~ ~ ~ ~ ~ ~ ~ ~ / ~ ~ ~ ~ ~ / ~ ~ ~ ~ ~ ~ ~ / ~ ~ ~ ~ ~ ~ ~ UXUX",
"UXUX~ ~ ! ~ ~ ~ ! ~ ~ ! ~ ! >.PXPXLXLXKXJXGXFXFXSXf.K L T b.] ~ ~ ~ ~ ~ ~ ~ ~ ~ ~ ~ ~ ! ~ ~ ~ ~ ~ ~ ~ ~ ~ ~ ~ ~ ~ ~ ~ ~ ~ ~ ~ ~ ~ ! ~ ~ ~ ! ~ ~ ! ~ ! ~ ! ~ ! ~ ~ ! ~ ~ ! ~ ~ ! ~ ~ ! ~ ~ ~ UXUX",
"UX~ ! ! ~ ! ! ! ~ ! ~ ! ! ! h nXPXLXKXJXGXFXDXSXSX$XL L L E ] ~ ! ! ! ! ! ! ~ ! ! ~ ! ~ ! ! ! ~ ! ! ! ! ! ! ! ! ~ ! ! ! ! ! ~ ! ~ ! ! ! ! ~ ~ ! ! ~ ! ~ ! ~ ~ ! ~ ! ! ! ~ ! ~ ! ! ~ ! ~ ! ! ~ UX",
"UX! ! ! ! ! ! ! ! ! ! ! ! ! a R LXJXHXGXHXDXSXBXmXmXP.H K Q ! ! ! ! ! ! ! ' M.+X`.o.! ! ! ! ! ! ! ! ! ! ! ! ! ! ! ! ! ! ! ! ! ' M.+X`.o.! ! ! ! ! ! ! ! ! ! ! ! ! ! ! ! ! ! ! ! ! ! ! ! ! ! ! UX",
"! ! ! ! ! ! ! _ ! ! ! ! ,.<.Q H {.LXGXHXDXBXmXvXvXvX{.D H F ! ! ! ! ! ! $.pXbXfXAXbX6.! ! q ! ! ! ! ! ! ! ! ! ! ! q ! ! ! ! $.pXbXfXAXvX6.! ! ! ! ! ! q ! ! ! _ ! ! ! ! ! ! ! ! ! ! ! ! ! ! ! ! ",
"_ ! ! q q ! q ! q q ! _ G S L f.Y.[.gXfXnXvXvXvXvXnXlXb.c g ! ! q ! ! q Z.bX7._ l.1X9.V.CXAX6XO.9X,X| h.cXi.%.wXAXhX9.! q ! Z.bX7.q l.1X9.@.yXbXnXw.! F.ZXbX|.u F.hXrXAX;Xk m qXAXvXw.q ! q ! q ",
"q q q ! q q q q q ! q q b V Z L P f.Y.Y.T.~._.[.{.2XhX'.v f q q ! q ! q Z.AXAXhXE.u k.AX-X(.AXe.7X5Xl 7XlX3.sX5X^.CX*Xq q q Z.AXAXdXE.u +.iXvX].CX5XH.AX!.eXbX0.iXAX'.aXbX6.0XbXQ.sX5Xl ! q q ! ",
"q q q q q q q q q q q q g x x H P P f.f.E T U U U E ).kXP.t q q q q q q q F.xXAXAX,X&.^.].rXAXq.J.vXI.CXs.C.bX3X/.CX,Xi q q q F.xXAXAX,XB.bXe.q N.y.pXlXQ.wXbXt.VX*Xq L.lXn.ZXkX^.tXlX..q ! q q ",
"q q q q q q q q q q q q f x 2 x A Z K T U U U U K J P.'.Y y q q q q q N ^...q $.aX5X8XAX2XaXlX .C.vXrX5Xz 7XvX#X#X+Xu.q q N ^. .0 M sX5XG.lX4.q =.z.ZX1X#X@X`.m.ZXr.d uX<XA.AX2X#X}.W.i 0 q 0 q ",
"q q 0 q q 0 0 q q 0 q 0 f < > : < x C J L K J J J H J , = y q 0 q q q j.AX:X1.S.AX.XsX*XN aX4Xj c.AXAXe.y 7XMX0.D.jX8.0 q j.AX,X1.S.AX XK.bXu.J.AXR.AX%X&.wX%XC.bX7.B VX&XC.AXw.v.tXa.0 q q q q ",
"q 0 0 0 q 0 0 0 q 0 0 0 t : $ ; ; : 1 V J D H H A C x + = 0 0 0 8 8 8 n 9XAXAXAX-XF pXAXvXZX>Xj g.CX4Xj q x.CXAXAXp.0 0 q n 9XAXAXAX-Xl g.ZXAXAXp.s 8XbXAXkX .7XzXz j.bXr.M pXAXAX:Xl 0 0 0 0 0 ",
"UXy 0 0 y y 0 y y y y y t $ @ # # # $ ; v A A c 1 < 2 # % y y y y y 0 8 8 #.-.k 8 8 s ;.p y y y 8 8 8 0 8 0 d ;.j y 8 8 y y 0 #.-.l 8 y y m -.k y y y =.;.e 8 0 y y y y y y y =.X.y y y y y y UX",
"UXy y r r 8 0 y y r y y r = O O + + @ @ - > ; ; , , 1 + & y y y 0 8 8 8 8 8 r r 8 r r 8 8 y y y 8 8 r 0 8 r r r 8 r 8 r 8 y 8 8 y 8 8 8 8 0 r r y y 8 8 8 r 8 8 y y y y y e y r y y y r y y y UX",
"UXUXr r r 8 r r r r r e r 7 3 %       o O O + + + # ; # 3 8 y e 8 8 r e 8 8 r r r r r r r r y y r r r r r r r r r r r r 8 r 8 8 y y y e 8 r r r 8 8 e 8 r r r r y r y e y y r r y e r r r r UXUX",
"UXUXr e e e e e e e r e r e e e 7 4 * X         O O + # 5 e e e r e e r e e e e e r e e e e e e e r e e e e e e e r e e e e e r e e e e r e e r e e e e r e e e r e e e e e e r e e e e e r UXUX",
"UXUXUXe e e e w e e e e e e w w e e e w 5 * X . . .   # w e w w e e w e e e e e w e e e p w w w e w e e 7 e e e e e e e e e e w e e w e w w w w 7 e r e e e e e e e w e e e e e e e e e e UXUXUX",
"UXUXUXUXw e w e w e w e e w e w w w e e w e e 6 * % . = w w w w w e w e e w w e e w e w w w w w w e e w e w e e e w w e w e e e e w e w w p w w e w 7 e e w w e w e w e e e w w e w w e UXUXUXUX",
"UXUXUXUXUXw w e w w w w w w w w w e w w w w e w w w w w w w w w e w w w w e w w w w w w w w w w w w e w w w w w w w w w w w w w w w w w w w w w w w w w w w w w e w w w w w w w w w e UXUXUXUXUX",
"UXUXUXUXUXUXUXw w w w w w w w w w w w w w w w w w w w w w w w w w w w w w w w w w w w w w w w w w w w w w w w w w w w w w w w w w w w w w w w w w w w w w w w w w w w w w w w w w UXUXUXUXUXUXUX",
"UXUXUXUXUXUXUXUXUXw w w w w w w w w w 6 w w w w w 6 w w 6 w w w w w w 6 w w w w w w w 6 w w 6 w w w 6 w w w w w w w w 6 w w 6 w w w w 6 w w w w w w w 6 w w w w w w w 6 w w w UXUXUXUXUXUXUXUXUX"
};
