/* XPM */
static char *aa1966bbbc384c5ce7e86ddc495626a3[] = {
/* columns rows colors chars-per-pixel */
"96 25 256 2 ",
"   c #1F700F",
".  c #1F7311",
"X  c #1E7C13",
"o  c #1E7419",
"O  c #1C7E18",
"+  c #22630D",
"@  c #216A0E",
"#  c #206F10",
"$  c #207110",
"%  c #3F7610",
"&  c #327B12",
"*  c #397812",
"=  c #1D7522",
"-  c #1C7B2D",
";  c #1E7728",
":  c #1F723B",
">  c #20733B",
",  c #4A7611",
"<  c #4B7D11",
"1  c #547E14",
"2  c #5D7611",
"3  c #677A11",
"4  c #767A11",
"5  c #4A792C",
"6  c #5C772C",
"7  c #1E7548",
"8  c #1E795B",
"9  c #1E7B6C",
"0  c #1E7E64",
"q  c #1E7A77",
"w  c #547A5C",
"e  c #1C8415",
"r  c #1B8C16",
"t  c #1B851F",
"y  c #1B8F18",
"u  c #1A9017",
"i  c #199418",
"p  c #199819",
"a  c #318014",
"s  c #198D22",
"d  c #1B862B",
"f  c #198C2C",
"g  c #199124",
"h  c #1A8032",
"j  c #188934",
"k  c #1A813D",
"l  c #19893A",
"z  c #16933A",
"x  c #179237",
"c  c #4A8014",
"v  c #7C8412",
"b  c #7F8811",
"n  c #54833B",
"m  c #79942D",
"M  c #798C3C",
"N  c #168C48",
"B  c #169342",
"V  c #14934F",
"C  c #14994C",
"Z  c #168A52",
"A  c #168E5A",
"S  c #168752",
"D  c #149157",
"F  c #149A55",
"G  c #13975F",
"H  c #139F5F",
"J  c #3F8052",
"K  c #398157",
"L  c #12A05E",
"P  c #1D8364",
"I  c #139B64",
"U  c #13956A",
"Y  c #139968",
"T  c #1D8A73",
"R  c #129772",
"E  c #119B7C",
"W  c #129971",
"Q  c #3F816C",
"!  c #10A36E",
"~  c #0FA77C",
"^  c #10A374",
"/  c #548648",
"(  c #4A8552",
")  c #568854",
"_  c #7F8748",
"`  c #4A8073",
"'  c #798264",
"]  c #739164",
"[  c #8B8812",
"{  c #908711",
"}  c #8B9114",
"|  c #909014",
" . c #A49512",
".. c #908D2C",
"X. c #88932D",
"o. c #8B8D3B",
"O. c #9F933B",
"+. c #A49C3C",
"@. c #B6A43B",
"#. c #869248",
"$. c #9FA248",
"%. c #8BA45C",
"&. c #B9A752",
"*. c #858573",
"=. c #A4AB6C",
"-. c #BEB46C",
";. c #ADA07D",
":. c #C2AE5B",
">. c #C2AD64",
",. c #C6B36C",
"<. c #C6B878",
"1. c #C4B578",
"2. c #D1C17A",
"3. c #1E7E83",
"4. c #1E8586",
"5. c #0F9E87",
"6. c #1D9086",
"7. c #1E8B9A",
"8. c #1D9594",
"9. c #319080",
"0. c #318F97",
"q. c #338C9C",
"w. c #31929C",
"e. c #0FA484",
"r. c #0EA986",
"t. c #0DAA8E",
"y. c #0FA689",
"u. c #0EA694",
"i. c #0CAB93",
"p. c #0CAC9B",
"a. c #0CA799",
"s. c #0BB29B",
"d. c #369AA4",
"f. c #319CB0",
"g. c #0BADA5",
"h. c #0AAEAA",
"j. c #0AB4AC",
"k. c #09B4B3",
"l. c #09B8B4",
"z. c #08B7B9",
"x. c #07BABD",
"c. c #08BBBA",
"v. c #3FA2B9",
"b. c #408A8C",
"n. c #4A9597",
"m. c #7F8D86",
"M. c #72AD9A",
"N. c #4A9FB4",
"B. c #54A5A1",
"V. c #4AA2B4",
"C. c #54A7BD",
"Z. c #54A8B9",
"A. c #79ABA6",
"S. c #6CACB0",
"D. c #64ACB9",
"F. c #79B2B4",
"G. c #07C0BC",
"H. c #07BBC4",
"J. c #06BECC",
"K. c #05BDD5",
"L. c #5CB0C1",
"P. c #6CB6C9",
"I. c #74BBC9",
"U. c #05C3CE",
"Y. c #05C3D5",
"T. c #04C3DC",
"R. c #05CAD0",
"E. c #03C5E3",
"W. c #03C8E4",
"Q. c #02C7E8",
"!. c #02CBEC",
"~. c #01D0EF",
"^. c #01CCF3",
"/. c #00CFFA",
"(. c #01D1F5",
"). c #00D3FE",
"_. c #00DBFF",
"`. c #00E3FF",
"'. c #7FC0D5",
"]. c #7FC4D9",
"[. c #859480",
"{. c #90A497",
"}. c #A9A28E",
"|. c #A4B080",
" X c #BEB780",
".X c #ADB69C",
"XX c #BCBA97",
"oX c #8BAAA1",
"OX c #95B5A8",
"+X c #8BB3B9",
"@X c #9AB5B0",
"#X c #ADBEAB",
"$X c #B1BEA1",
"%X c #ADBBB0",
"&X c #C2BE86",
"*X c #D5BF86",
"=X c #D1BD97",
"-X c #B2C0A6",
";X c #ADC3B9",
":X c #B4C1B3",
">X c #B6C2B9",
",X c #BEC1B9",
"<X c #CEC08C",
"1X c #D1C080",
"2X c #D8C786",
"3X c #D8C68C",
"4X c #CAC392",
"5X c #DACB94",
"6X c #CEC5A1",
"7X c #D5CDA6",
"8X c #D3CBA4",
"9X c #DCD1A6",
"0X c #DCD4AB",
"qX c #C4C2B2",
"wX c #C8CEBD",
"eX c #D5CFBB",
"rX c #D4CBB0",
"tX c #DCD4B0",
"yX c #DCD9B4",
"uX c #DCD7BB",
"iX c #DCDBBB",
"pX c #D1D2B9",
"aX c #85BFD5",
"sX c #85C3D9",
"dX c #8BC0D1",
"fX c #93C3D2",
"gX c #9DCBD5",
"hX c #ADC6CD",
"jX c #B2C7C9",
"kX c #A9C7D1",
"lX c #ACCDD4",
"zX c #A4C7D5",
"xX c #BCCED3",
"cX c #B4C8D3",
"vX c #B8D2DB",
"bX c #98CCE0",
"nX c #9FD1E0",
"mX c #ABD6E0",
"MX c #B3D6E0",
"NX c #BCDCE0",
"BX c #B2D9E0",
"VX c #CECFC1",
"CX c #CACFCD",
"ZX c #CED9C9",
"AX c #DBD7C4",
"SX c #DCDDC2",
"DX c #DBDCCD",
"FX c #D1D7C7",
"GX c #C8DADB",
"HX c #DCDED3",
"JX c #DCDDDB",
"KX c #C5DDE0",
"LX c #CCDDE0",
"PX c #D3DDE0",
"IX c #DBDEE0",
"UX c None",
/* pixels */
"UXUXUXUXUXUXUXUXUXp p p p p p p p p i p p p i p p p p p i p i p p p i p p p p p p p p p p p p p p p i i i p p p p p i p p p p p p p i i i p i p p p p p i i p p p p i p p p p UXUXUXUXUXUXUXUXUX",
"UXUXUXUXUXUXUXp i p i p i p p u i i i p i i i i i i p i i i i i i p i i i i i i i p p i u i p i i i p p i i i i i i i i i p i i i p i p p i i i i i p i i i i i i p i i i i i p p UXUXUXUXUXUXUX",
"UXUXUXUXUXi i i i i i p u p u u i i i i i i i i i i i i i i u i i i u i u i i i i u i p i p i i u i i i u i i i i i i i i u i u i i i i i p u i i i i i i i u i i i i i u p p i i i i UXUXUXUXUX",
"UXUXUXUXi u r i r i r r i r y i r i y u u u u u u i u u i r i i u i i u i u u i u i r u r u r i r y i r i u r u u i u u u u i i r i u u u u r i r i r u u u i y u i u u r u r y y y y y UXUXUXUX",
"UXUXUXy r r r r u r r r r r r i u r u y r r u s z L h.i.y y r r u u u y u r u u y r u r i y r r u u u r u r r y u r u u r u u r r r u u u r r r u r r u r u u u u r y r u r r u r y y y i UXUXUX",
"UXUXr r u r r r r r r r r r r.j.t.! C C ! s.x.E.^.^.~.~.g r r r r r r r r r r r r r r r r r r r r r u r r r r r r r r r y r u r r r r r r r r r r r r r r u r r r r r r r u r r r r r r r r UXUX",
"UXUXr r r r e r r r r r s B ~.Y.Y.W.^.).`.`.`.).z.^ r.).C r r r e r r r r r e r r e r r r e r r r r r e r r e r e r r r r r e r r r r r r r r r r r r r r r r r r r r r e r r r r e r r r e UXUX",
"UXr e e e r r e r e V x.Q./._.C e r f z I ~ s.c.Y.!.^.).!.x.! e e e e e e r e e e r e e r e e e e e e r e r e r r e e e e e r e e e e e r e e r e r e e e e e e e e e e r r e e e r e e r e r UX",
"UXe e e e e e e e e e._.r.r./.z e ^ x.F r e e e e s x F ~ /.l.e e e e r e j M.;X$Xm e e e e e e e e e e e e e e e e e e e e d M.%.e e e e e e e e e e e e e e e e e e r e e e e e e e e e e e UX",
"e e e e e e e e e e B ).d I ~.t t !.`.U.e e X e e e X e t ~.I e e e O e P NXJXCXIXHX} e e e e e e e e e e e e e e e e e e e T KX1.e e e e e O e e e e O e e e e e e X e e e e X e e e e e e e e ",
"O e X e X e e e X X d /.I t.Y.e e y.R.I X e d j e X e e B ^.B X X e X e C.JX| X 8.jXX.B.LXJXpXM gX9Xc 6.KX-.T lXIXAXX.X e e d.FX[ P.FXxXHXXXzXJX&XX T GXIXDX$.e S.PXAXjXrX, S.PXJX4Xa e e X X e ",
"e X e X X X X X X e e Q.t.j.l.X O X e X e O H.z.e X X X G (.d e X X e X C.IXIXVX=.& 8.IX8X+XIX&.sXiXc sXDX' NXuXOXLX2XX O X I.HX#.mXIXqXPXIXqXLXiXw NXuXoXLX3XV.IXeXlXIX5XL.IXXXzXJX[ X e X X X ",
"X X X X X X X X X X X z.U.Y.t.X X U j O O k._.).D D l X e.W.e X X X X X X F.GXIXIXtXK OX%XvXIX+.I.HX[.PX,.N.JXrX@XLX9X% X - nXyX` KX2.- BX5XX mX0X5 A.-XjXIX<.nXiX1 q PX1.MXHX.XkXJX+.X X X X X ",
"$ X X X X . X X . X X e.(./.Y O a._.(.t.h._.).).E.(.G X h.H.X . X X X 0 OXv $ T KXiXfXIXqXvXDX4 V.JXcXSX3 sXDX>X:X:X=.X . 8 NX3Xw.IX@.3.PX:.q KX2.Z.IXeXkXIX;.KX2.X f.IX}.LXVX>X:X-X3 X X X X X ",
"$ X $ X X X $ X X $ X D ).).l E (./.).`._.).).)._._.y.. H.U.. X . X . 7.JX7X] A.IX=XNX3X9 NXtX, d.IXJX&.X sXHXo.S.ZX..X o 4.PX>.C.JX{ f.IX .7.IX&.bXiX6 gXHX*.LXAX{.KXHX[.IX<XQ lX4X& X . . X X ",
"X $ X $ $ . X . X $ . h ^.).a.5.W U W 5.t.h.H.Y.!.).l.o T.(.; . . X . 7 gXJXIXIX6Xw BXIXJXIX8X, q PXtX, X 0.LXIXIX X. . . N.JXO.sXSX2 P.HX4 v.HX{ sXIXJXPXSX4 D.IXHXPXyX5 aXIXIXAXb   . . X . . ",
"UX$ # . . $ . $ # $ $ $ T.~.Q.^.^.!.K.H.h.u.E U A A S - /.h.o $ . . # .   K ) <   o = ) * . # # o .   .   $ > ) , . .   o . # . $ $ . . . $ # . # . ( % . . n.:X#.b.LX*X. . w / $ $ # $ $ $ $ UX",
"UX$ # # # # # . # $ $ . k.U.S y.K.)._._._.).^./.).^.K.K.).- # # . # # .   # # #   @ @ #   . # #     $         .         # . # # # # # # . # # #   # # . # # 0.JXJXJXrX2       # . # # $ $ $ $ UX",
"UXUX# # # # # # # @ # $ 5._.)._.!.J.g.E Z - = > Z R a.z.h.o # #   #   @       # # #     @   + # # # # # @   # @ $ # # @ # # # # # # # # # # # # #   # #   # # > ) /         # # # # $ $ @ $ UXUX",
"UXUX# @ @ @ # # @ # @ @ - k.U > = @ @ @ @ @ @ # @ # @ @ # @ @ # @ @ @ @ @ @ @ @ # # @ @   @ + + @ @ # @ @ @ @ @ # @ @ @ @ @ # # @ @ # @ # @ @ # @   @ @ @ @ @ @ @ # @ @ @ @ @ @ # # @ @ @ @ UXUX",
"UXUXUX@ @ @ @ @ @ @ @ @ @ @ + + @ @ @ @ @ @ @ @ @ + @ @ + + + + @ @ @ @ @ @ @ @ @ @ @ @ + + + + @ @ @ @ @ + @ @ + @ @ @ @ @ @ @ + @ + @ + + + + @ @ @ @ @ @ @ @ @ @ @ @ @ @ @ @ @ @ # @ @ UXUXUX",
"UXUXUXUX+ @ + + @ + + + + + @ + + @ + + @ + @ + @ + @ + + + + + @ + @ + @ + @ + + + + @ + + + + @ @ @ + + @ @ + @ @ + @ @ + @ + + + + @ + + + + + + + @ @ + + @ @ + + @ @ + + @ + + @ + UXUXUXUX",
"UXUXUXUXUX@ + + + + + + @ + + + + + + + + + @ + + + + + + + + + + + + + + + + + + + @ + + + + + + + + + + + @ + + + + + + + + + + + + + + + + + @ + + + + + + + @ + + + + @ + + + + + UXUXUXUXUX",
"UXUXUXUXUXUXUX+ + + + + + + + + + + + + + + + + + + + + + + + + + + + + + + + + + + + + + + + + + + + + + + + + + + + + + + + + + + + + + + + + + + + + + + + + + + + + + + + + + UXUXUXUXUXUXUX",
"UXUXUXUXUXUXUXUXUX+ + + + + + + + + + + + + + + + + + + + + + + + + + + + + + + + + + + + + + + + + + + + + + + + + + + + + + + + + + + + + + + + + + + + + + + + + + + + + + UXUXUXUXUXUXUXUXUX"
};
