/* XPM */
static char *a67012cd08f84e589178581efbbc04dc[] = {
/* columns rows colors chars-per-pixel */
"96 25 74 1 ",
"  c #3F4245",
". c #404347",
"X c #424649",
"o c #46494C",
"O c #484C4F",
"+ c #4A4E51",
"@ c #4D5155",
"# c #4F5458",
"$ c #505457",
"% c #52565B",
"& c #55595D",
"* c #585B5F",
"= c #575C63",
"- c #595E64",
"; c #5B6066",
": c #5E6269",
"> c #61666B",
", c #64696E",
"< c #676C71",
"1 c #6A6F73",
"2 c #6D7276",
"3 c #6F7578",
"4 c #707475",
"5 c #717579",
"6 c #757A7D",
"7 c #787C7F",
"8 c #767E81",
"9 c #797E81",
"0 c #7D8285",
"q c #7E8588",
"w c #7D898C",
"e c #808486",
"r c #858A87",
"t c #838789",
"y c #868A8C",
"u c #898D8E",
"i c #8E928B",
"p c #92948E",
"a c #838F91",
"s c #8A8F91",
"d c #869294",
"f c #8E9293",
"g c #8B959A",
"h c #8E999D",
"j c #929696",
"k c #939994",
"l c #9A9B93",
"z c #93979A",
"x c #95999A",
"c c #999D9D",
"v c #9DA097",
"b c #9CA09F",
"n c #A2A29F",
"m c #8E9CA1",
"M c #949DA1",
"N c #9B9EA1",
"B c #96A2A5",
"V c #9EA2A2",
"C c #A2A6A5",
"Z c #A6A8A6",
"A c #A8A9A6",
"S c #A5A9A8",
"D c #ACAEAC",
"F c #AEB0AF",
"G c #AFB1B1",
"H c #B3B5B4",
"J c #B6B8B7",
"K c #B4B7B8",
"L c #B7B9B9",
"P c #BABCBC",
"I c #BDBFC0",
"U c #BFC2C1",
"Y c #C1C3C3",
"T c None",
/* pixels */
"TTTTTTTTTCCCCCCCCCVCCCCCCCCCCVCCCCVCCCCCCCCCCCCCCCCCCCCCCCVCCCCCCCCCCCCCCCCCCCCCCCVCCCSTTTTTTTTT",
"TTTTTTTCVVVVVVbVVVVVVVVVVVVbVVVVVVVVVVVVVVVVbVVVVVVVVbVVbVVVVVbVCCNVCbVVbCVbVVVVVVVVVVVVVTTTTTTT",
"TTTTTbbbbcbbcbbbbbbVCbbbbbbbcbbbbbbcbbbbcVVcbbbcbbbbcbbbbbbbbbbbccccccbbbcbbcbbbbbbcbbbbcbbTTTTT",
"TTTTcccccccccccbcxSPYUHZcccbccccbccccccbccxccccccccccccccccccccbcccccccccccccccccccccccbccccTTTT",
"TTTxxxxxxxxxxxjfcKUYUUYPbxxjcjxxxckcjxcjclxzxxxzxjxxlxxxjxxxxjxxxzxcxxzzxxxxxlxxxcjcjxcjxxxxxTTT",
"TTjjjjjjjjjjjjcVPUPPPPPPDusdjjjjfjjjjjjjjjjjjjjzjjjjxfzjjjjjjjjjjjjjjjjjjjjjfjjxfjjjjjjjjjjjzzTT",
"TTffffffffffffxUPPPPLLHHHf700yfffffffffffffffjfffffffffffffkffffjsffffjjfffffffffffffffffjfffjTT",
"Tfffffffffffff0VPLLHHHHHGS088qfffffsffffffffssffffffffffffsfffffpffsffssffffffffffsfffffuffffsfT",
"Tuuuuuisuuuuus64GKHHGGFFFFf66euususuuufNzuuuusuuuuuuuuuusuuuuuuujczuuuuuuuuusysssssuuuuuuusuuuuT",
"uyyyyyyyyyyyttq0xDDGDDDAAAC650yyyyyyuBCNCCyyyyyyyyyyyyyyyyyuutuBCNCVyyyyyyyuyyyyyyyyyyyyyyyyuyyy",
"yettttrttttt51180ajkVVVZAZAs>7tteyttuNtytcyyNVcthcttBitcVbttttaVtttctyzCNutsVVjtdccVlttzVVuttttt",
"eeee0q0eq0ee4<,550wwq0qqysln46eee0eqyVNluqqNjunyfvtdb0BcuVpeeqtVNcyeemNsNluNszNeMVfMV0hNsMveeeet",
"0000000000006>:<3166664425yne60000000yMNNl0yszcedcecyqcjuMl0009uxNNl0Ny9tymcsfNeMf0ac0Blyml09e9e",
"9999999999994;;*:>,344441271-6970799u799hlaNfhc9qcfl9acusse999u999mlqc9999Mjsss9c08hl0xsfsu99999",
"8777679666864*$$&*;,11111,>@*6967776xf90zyhu8hp78Mx07ac9ej9777xf9qxyyz9yz9zu9gu9x66hr0x09ge79899",
"5575665656564$@$@@$&,,,>**;+%6466556azxzu6gzzzp55zp557gzze5656azzxu56hzz06yzzf6wk66x76gzzu565654",
"T535535555553@++++++$*%$##-+=246281855285518822855553355555555558155558155558225555555555656556T",
"T222222231131>%+ooooo+++++@+=241121222121222121222222331133113112215212212212221131551131111113T",
"TT1111111111111<:*+oXoXXoo++-111111111111111<1111111111121111111111111112112122<1111<111121122TT",
"TT1<<<<<<<<<<<<1<<<,=$XX...X><<<<<,1<<,1<1<<<<<<<<<<<<<<<<<<<<<<<<<<<<1<,<<<<<<<<<<<<<<<<<<<<<TT",
"TTT<<<,>,,,,,<<>,>,,,,>-%+.@>,>,,,,,,,,,,,,,,,,,,,,,,,<,,,,,<,,,,,>,,,,,,,,,,,,,<,,,,,,,,,,,<TTT",
"TTTT>:>>>>:>>:>>>>>>>>,>>>;:>>>>>>>>>>>>>>>>>>>>>>>>>:>:>>>>>>>>>,>>>:>>>>>>>>>>>>>>>>>>>>>>TTTT",
"TTTTT::::::::::::>:::>:::::::::::::::::::::::::::::::::::::::::::::::::::::::::::::::::::::TTTTT",
"TTTTTTT:;;;;;-;;--:---:--;-:-::--:---:-:--:---::;-:-:;-:;;-:-;-:-;;;;;;;:-:--;:-;-;;--:;:TTTTTTT",
"TTTTTTTTT-=-=-=-----==-==-=-=-==----===-=-=-=-=====;===-=====-==-=-=-==-==-==-=---=--==TTTTTTTTT"
};
