/* XPM */
static char *_7228c7c492f48259a6a1aeb6c7f9348[] = {
/* columns rows colors chars-per-pixel */
"96 25 105 2 ",
"   c #575C63",
".  c #595E64",
"X  c #5B6066",
"o  c #5E6269",
"O  c #61666B",
"+  c #64696E",
"@  c #676C71",
"#  c #6A6F73",
"$  c #6D7176",
"%  c #65717B",
"&  c #6B747B",
"*  c #6D787E",
"=  c #717579",
"-  c #757A7D",
";  c #787C7E",
":  c #647785",
">  c #677884",
",  c #6B7A87",
"<  c #637C8C",
"1  c #6A7D8A",
"2  c #757C81",
"3  c #7A7E81",
"4  c #737F89",
"5  c #627F93",
"6  c #5D819A",
"7  c #6C818F",
"8  c #7D8285",
"9  c #70828D",
"0  c #7C858A",
"q  c #7F898E",
"w  c #638195",
"e  c #6B8292",
"r  c #63859C",
"t  c #6B879A",
"y  c #66899E",
"u  c #6D899C",
"i  c #748693",
"p  c #758995",
"a  c #7D8B93",
"s  c #718B9D",
"d  c #7A8E9A",
"f  c #7D909C",
"g  c #5E87A2",
"h  c #5E89A5",
"j  c #5D8DAD",
"k  c #5C90AE",
"l  c #5C8EB0",
"z  c #5E92B0",
"x  c #648BA4",
"c  c #6B8CA2",
"v  c #638EAA",
"b  c #728EA1",
"n  c #6E91A7",
"m  c #6291AF",
"M  c #6B92AA",
"N  c #7590A2",
"B  c #7B94A3",
"V  c #7F98A6",
"C  c #7699AD",
"Z  c #7D9BAC",
"A  c #6394B4",
"S  c #6A96B2",
"D  c #6598B6",
"F  c #6D9AB4",
"G  c #679AB8",
"H  c #6C9CBA",
"J  c #759BB2",
"K  c #7C9EB2",
"L  c #729EB9",
"P  c #6EA2BD",
"I  c #73A1BD",
"U  c #6FA1C0",
"Y  c #71A4C1",
"T  c #808486",
"R  c #838789",
"E  c #868A8C",
"W  c #898D8E",
"Q  c #8E918B",
"!  c #93948E",
"~  c #838E91",
"^  c #8A8F91",
"/  c #859195",
"(  c #8D9293",
")  c #84939B",
"_  c #8B959A",
"`  c #8D999D",
"'  c #929696",
"]  c #959993",
"[  c #9A9C93",
"{  c #93979A",
"}  c #95999A",
"|  c #999D9D",
" . c #9DA097",
".. c #9CA09F",
"X. c #A0A09D",
"o. c #8196A2",
"O. c #869AA6",
"+. c #8D9CA2",
"@. c #819CAB",
"#. c #949EA2",
"$. c #9B9EA1",
"%. c #94A1A4",
"&. c #9EA2A2",
"*. c #A2A6A4",
"=. c None",
/* pixels */
"=.=.=.=.=.=.=.=.=.*.*.*.*.*.*.*.*.*.*.*.*.*.*.*.*.*.*.*.*.*.*.*.*.*.*.*.*.*.*.*.*.*.*.*.*.*.*.*.*.*.*.*.*.*.*.*.*.*.*.*.*.*.*.*.*.*.*.*.*.*.*.*.*.*.*.*.*.*.*.*.*.*.*.*.*.*.*.=.=.=.=.=.=.=.=.=.",
"=.=.=.=.=.=.=.*...*.&.&.&.*...&.&.&.&.&.&.&...&.&.&.*...&.&...*.*...&.&.*.....*.| *.*.X.$.*.*.*.&...&.*.*.&...*.&...&.*...*.&...&.*.&.*.*.| &.*...*.*.....*...*.*...&.*.&.&...*.&.=.=.=.=.=.=.=.",
"=.=.=.=.=.........| ..| | ......| &.$.| ................| &.....| ..| | ........$.$.X.| | &.| | | | | | | ....X.| | &...| ....| | ..$.X.| ....| ..| | | ........| ....| ..........| ..=.=.=.=.=.",
"=.=.=.=.| | | | | | | | | | | | | | | | | } | | } | | | | | | | | | | | | } | | | | } | | } | | | | | | | | | | | | | } | | | | | | | } | } | | | | | | | | | | } | | | | } | | | | | | =.=.=.=.",
"=.=.=.| } } | } } } } } } } } ' } } } { { | } { ` +.K @.} } | ' } [ } | } } | } } } } } } } } } } } } } } } } } ' | | } } } } ' } } } } ' } { { } } | } } } | ' } } } | } } } } | } } | } =.=.=.",
"=.=.' } ' ( ' ' ' ' ' { ( } @.@.@.+._ +.O.@.K L Y I Y I { ' ' ' { ' ' ' ( ' ' ( } ] ] ' ' ' ' { ' ' ' ' ' ' ' ' ' ' ( ' ' ' ' ' ' ' ' ' ' ' ' ' ' ( ' ' ' ' ' ' ' ' ' ( ' ' ' ' ' ' ' ( ( { =.=.",
"=.=.( ( ( ( ( ( ( ( ( ( ( _ I I L I I I U Y Y U J o.@.Y ) ^ ( ( ^ ( ( ( ( ( ( ' ( ( ( ( ( ' ( ( ( ( ( ( ] ( ' ( ( ( ( ' ( ( ( ( ] ( ' ( ' ( ' ' ( ( ( ( ( ( ( ( ' ^ ' ^ ( ( ( ( ( ' ( ( ( ( =.=.",
"=.^ ^ ^ ( ( ( ( ^ ( ) J L P U _ ^ ^ / ) o.V Z J L L H I L J O.^ ( ^ ( ^ ( ( ( ^ ^ ( ( ( ^ ^ ( ( ^ ( ( ( ^ ( ^ ^ ( ( ^ ( ( ( ( ( W ( ^ ^ ^ ( ^ ^ ( ( ( ( ^ ( ( ( ( ^ ! ^ ( ( ( ( ^ ( ( ( ( ( ' =.",
"=.W W W W W W W ^ W B U B B P / E B C / ~ E W ^ E ^ ~ ) B H C W ^ W ^ W ^ W ( $.{ W ^ W W W W W W W W W W W W ^ ^ W W W W W W ( ^ W W ^ W W ^ ^ W W W W W W W W W W W W W W W W W W W W W W W =.",
"E E E E E E E E E E a H ~ f G ~ E H P J E E E R E W R E E H f E W R E E E %.*.$.*.&.E E E E E E W E E W R W E E E E E E E E W &.( W W R R W E R E E E E W E E E E E E E E E E E E E E E E E E E ",
"E R R R R R R R R R E H d N S R R N F d R R R ~ R R R R ~ G d R R R R R W &.R R R #.R E $.&.X.R ` [ R R &.W R #.*.| R R R R E ..T ( ..| &.' } *.( R T %.&.&.W R E *.X.} | R ^ *.*.( E R R R R R ",
"R T T T T T T T T T 8 S b n n T T T T 0 R 0 n M T T T R p A 0 T T T T T R &.&.| E 8 R &.' W $.R _  .8 _ ..8 %. .W $.] T T T / ..R +.&.( %.&.( %. .T %.| R $.( R $.} { *.' E $.^ { X.T T T T T T ",
"3 T 3 T 3 8 8 8 8 T 3 n M M b 8 8 i 0 3 3 c G G i i 0 8 u S 3 T 8 8 8 8 8 E } $.$.[ 3 W W { $.T ~ ..8 | R 8 &.( E $.] 8 8 8 _  .8 #.Q 8 ` ] 8 +.[ 8 R ^ ( $.W +.| T T $.E +.| E ( $.T 8 3 T 3 0 ",
"3 3 3 3 3 3 3 3 3 3 3 u A A i 3 s A A s c G A A m A i 3 c n 3 3 3 3 3 3 E 3 3 3 { [ W #._ { | 3 8 | _ [ 3 ~ | ^ ( ^ T 3 ; 3 ` Q 8 | 8 3 | T 3 #.Q T | ' ( | T } Q ; 3 | 3 | ' ^ ^ ^ 3 ; 3 3 3 3 ",
"3 3 3 2 3 - 3 3 3 2 2 9 A A 4 e A A A D G A A A A A t 3 x v 2 3 ; ; ; 2 #.( 3 T #.W +.Q 2 ` ] ; 2 | | 8 ; ~ } ; 0 ' ; ; ; ; | 8 8 } * 8 | ; 2 } 3 / [ ; / } 3 +.] 3 } } 2 | E 3 _ E ; - ; 3 ; ; ",
"= = = = 3 = = = = = = 2 l A r e 7 5 e e t y x v m A x = v A = = = ; = = ~ { } { E = _ { { { Q = = _ ! = * ; { { } T - * = 2 { ; q ] = 8 } = 3 { * E { { { ' = 3 { ' ` ] = ~ { { ] - - - = = = ; ",
"=.= = = = = = = = = = $ v j j j j v j x r w e 1 1 1 , * j r = = = = = = = = = = = = = = = = = = = = = = = = = = = = = = = = = = = = = = = = = = = = = = = $ ; E = = ( T = = = = = = $ = = = = =.",
"=.= $ $ $ $ $ $ $ $ $ $ 6 x : 5 g k k k z j j j l h h h l * $ $ $ $ $ $ $ $ $ $ $ $ $ $ $ $ $ $ $ $ $ $ $ $ $ $ $ $ $ $ $ $ $ # $ $ $ $ $ $ $ $ $ $ $ $ $ $ $ ( { ' Q $ $ $ $ $ $ $ $ $ $ $ $ =.",
"=.=.# # # # # # # # # # 5 j j l h g w < > % % % : < 5 r 6 # # # @ # $ # # # # # # # # # @ $ $ @ # # # # # # # # # # # # # # # # # # # # # # # # # # # # # # # # # # # # # # # $ $ # # # # # =.=.",
"=.=.# @ @ @ @ @ @ @ @ + % 6 : % % @ @ @ # @ @ # @ @ @ @ @ @ @ @ @ @ @ @ @ @ @ @ @ @ @ @ @ @ @ @ @ @ @ @ @ @ @ @ @ @ @ @ @ @ @ @ @ @ + # @ @ + # + @ @ @ @ @ @ @ @ @ @ @ @ @ @ @ @ @ @ @ @ # =.=.",
"=.=.=.@ + + + + + + + + + @ + + + + + + + + + + + + + + + + + + + + + + + + + + + + + + + + + + + + + + + + + + + + + + @ + + + + + + + + + + + + + + + + + + + + + + + + O + + + + + + @ =.=.=.",
"=.=.=.=.+ o + o + + o + O o o + O O O O O o + O O O O O O O O + + O O O O + O o O O O O + O O O o + o + + o + o o + o + + o + o O + o O O O + O + O O O O O O + + O o O O O O O O O O O =.=.=.=.",
"=.=.=.=.=.o o o o o o o o o o o o o O o X O X o O o o O X o O X o O o . o o o o o o o X o X O o o o o X o o o o o o o o o o o X O o o o X O O X X o o o O O X o O o o o O O O O X O X =.=.=.=.=.",
"=.=.=.=.=.=.=.X . X X X . . X X . . X . X X . X . X . X . . X X . X X . X X X X X X X . X X . X X X X X X X X X X X X X X X X X . X X . X . . X X X . X . . X X . . X . . . . X . =.=.=.=.=.=.=.",
"=.=.=.=.=.=.=.=.=..   .   .   . .   . .       .     .         .   .   .     .           . .       .   .       .               .     . .       .     .         . . . .   .     =.=.=.=.=.=.=.=.=."
};
