/* XPM */
static char *_b57e5e9e7684020ce28fb4832cc4db8[] = {
/* columns rows colors chars-per-pixel */
"23 23 229 2 ",
"   c black",
".  c #000001",
"X  c #000002",
"o  c #010102",
"O  c #020509",
"+  c #03070A",
"@  c #00070F",
"#  c #05090D",
"$  c #000810",
"%  c #000811",
"&  c #000812",
"*  c #060B10",
"=  c #040C13",
"-  c #060E16",
";  c #000D19",
":  c #000D1A",
">  c #000C1B",
",  c #060F18",
"<  c #000D1C",
"1  c #0F1316",
"2  c #00101F",
"3  c #12161B",
"4  c #15191C",
"5  c #161A1F",
"6  c #000F21",
"7  c #001020",
"8  c #001022",
"9  c #001324",
"0  c #011228",
"q  c #01152D",
"w  c #00162C",
"e  c #00172D",
"r  c #01162E",
"t  c #1B1F23",
"y  c #011833",
"u  c #001A32",
"i  c #021E3A",
"p  c #021E3B",
"a  c #021D3D",
"s  c #021E3E",
"d  c #1C2024",
"f  c #1E2225",
"g  c #2C2F32",
"h  c #2D2F33",
"j  c #2E3034",
"k  c #2D3235",
"l  c #012447",
"z  c #002548",
"x  c #01274F",
"c  c #012850",
"v  c #012851",
"b  c #012951",
"n  c #032954",
"m  c #032A56",
"M  c #022B57",
"N  c #032B58",
"B  c #042B5B",
"V  c #002D5A",
"C  c #012E5B",
"Z  c #042D5F",
"A  c #00305E",
"S  c #032F60",
"D  c #003261",
"F  c #013364",
"G  c #033266",
"H  c #003466",
"J  c #033467",
"K  c #00366A",
"L  c #01366A",
"P  c #02366B",
"I  c #03356D",
"U  c #03356E",
"Y  c #05356E",
"T  c #013970",
"R  c #003B73",
"E  c #043872",
"W  c #033B77",
"Q  c #053977",
"!  c #043A77",
"~  c #013D79",
"^  c #003E78",
"/  c #033D7B",
"(  c #013F7D",
")  c #023F7F",
"_  c #053C7E",
"`  c #043E7F",
"'  c #3F4142",
"]  c #3F4145",
"[  c #3F4244",
"{  c #00417E",
"}  c #404243",
"|  c #414344",
" . c #464848",
".. c #45484A",
"X. c #4D5154",
"o. c #55585C",
"O. c #585A5A",
"+. c #656869",
"@. c #65696F",
"#. c #656A6F",
"$. c #6C6F6F",
"%. c #666A70",
"&. c #6B7075",
"*. c #6C7075",
"=. c #6C7175",
"-. c #72777B",
";. c #73777B",
":. c #063D81",
">. c #004281",
",. c #024281",
"<. c #014382",
"1. c #054083",
"2. c #034386",
"3. c #054084",
"4. c #044184",
"5. c #064185",
"6. c #064186",
"7. c #044286",
"8. c #044387",
"9. c #054289",
"0. c #064288",
"q. c #064289",
"w. c #064389",
"e. c #06438A",
"r. c #06438B",
"t. c #024588",
"y. c #004688",
"u. c #034689",
"i. c #01468A",
"p. c #02478A",
"a. c #05458B",
"s. c #06448A",
"d. c #07438C",
"f. c #07438D",
"g. c #06438E",
"h. c #05458D",
"j. c #06448D",
"k. c #07448D",
"l. c #04468D",
"z. c #05458E",
"x. c #07448E",
"c. c #06448F",
"v. c #06458F",
"b. c #07458F",
"n. c #01488C",
"m. c #00498C",
"M. c #004A8D",
"N. c #03488E",
"B. c #02488F",
"V. c #054790",
"C. c #074690",
"Z. c #064791",
"A. c #074692",
"S. c #074793",
"D. c #024991",
"F. c #034991",
"G. c #014A90",
"H. c #014B91",
"J. c #014B93",
"K. c #034A92",
"L. c #024B92",
"P. c #044891",
"I. c #044992",
"U. c #054993",
"Y. c #044A93",
"T. c #024B95",
"R. c #064894",
"E. c #054A96",
"W. c #064A96",
"Q. c #064A97",
"!. c #014C94",
"~. c #014D94",
"^. c #014D95",
"/. c #024C95",
"(. c #034C95",
"). c #024D95",
"_. c #034C96",
"`. c #004D98",
"'. c #004E98",
"]. c #024E98",
"[. c #034D9A",
"{. c #004F9B",
"}. c #024E9A",
"|. c #024E9B",
" X c #054D9A",
".X c #054C9B",
"XX c #044E9B",
"oX c #054E9B",
"OX c #034F9D",
"+X c #01509A",
"@X c #00509B",
"#X c #01509C",
"$X c #01519D",
"%X c #02509C",
"&X c #02509D",
"*X c #00529D",
"=X c #02509E",
"-X c #02519E",
";X c #01529F",
":X c #0351A0",
">X c #0053A0",
",X c #0153A0",
"<X c #0053A1",
"1X c #0352A2",
"2X c #0154A1",
"3X c #0054A2",
"4X c #0155A4",
"5X c #0254A5",
"6X c #0355A5",
"7X c #0156A6",
"8X c #0157A7",
"9X c #0159AB",
"0X c #797D80",
"qX c #797D81",
"wX c #797E81",
"eX c #7A7E81",
"rX c #808486",
"tX c #808487",
"yX c #808587",
"uX c #818587",
"iX c #868B8C",
"pX c #878B8C",
"aX c #878B8D",
"sX c #8E9293",
"dX c #8F9393",
"fX c #8F9394",
"gX c #959999",
"hX c #969A9A",
"jX c None",
/* pixels */
"jXjXjXjXjXjXjXjXjX            jXjXjXjXjXjXjXjX",
"jXjXjXjXjXjX                      jXjXjXjXjXjX",
"jXjXjXjXjX      e H M.<X;XM.D 9       jXjXjXjX",
"jXjXjXjX    : <.8X4X<X=X<X<X8X9XW &     jXjXjX",
"jXjXjX    w +X;X+X).H.M.H.).+X<X4X+X2     jXjX",
"jXjX    : {.=X).M.{ A z z D p.H.%X<X).&   jXjX",
"jXjX    <.=XJ.t.K * d | [ 4 , T J.{.6XR     jX",
"jXjX  u =XT.p.C   $.hXgXgXhXO.  ) ).=X6X8   jX",
"jX    K [.M.~ # +.dXdXfXfXfXfX ., p.{.6XC     ",
"jX    J._.p.c f aXaXaXaXaXaXaXaX1 P Y.OX<.    ",
"jX    OXP.8.p ' tXtXtXuXuXyXrXrXk c P.OXP.    ",
"jX    [.P.t.p ' 0X0X0X0X0X0X0X0Xg n Y..XJ.    ",
"jX    h.P.4.c f -.-.-.-.-.-.-.-.1 K Z.[.)     ",
"jX    G W.s.W   o.&.&.&.=.=.=...= 4.P.[.m     ",
"jXjX  u W.h.4.S   X.%.%.%.%.|   U h.W..X8   jX",
"jXjX    / Z.s.1.N O 5 j h 3 O E s.P.Q.U     jX",
"jXjX    < h.C.d.:._ m a s B _ d.h.Z.d.$   jXjX",
"jXjXjX    w f.x.b.:.4.4.6.q.x.C.Z.f.6     jXjX",
"jXjXjXjX    < E C.b.x.b.x.x.x.C.Y &     jXjXjX",
"jXjXjXjXjX      w S :.c.x._ B 0       jXjXjXjX",
"jXjXjXjXjXjX                        jXjXjXjXjX",
"jXjXjXjXjXjXjXjXjX            jXjXjXjXjXjXjXjX",
"jXjXjXjXjXjXjXjXjXjXjXjXjXjXjXjXjXjXjXjXjXjXjX"
};
