/* XPM */
static char *_b4dd6015a154c7f91f9c909e1dfe6c4[] = {
/* columns rows colors chars-per-pixel */
"22 22 118 2 ",
"   c black",
".  c #000001",
"X  c #000102",
"o  c #000103",
"O  c #000810",
"+  c #000911",
"@  c #000912",
"#  c #010913",
"$  c #000E1B",
"%  c #010D1C",
"&  c #000E1C",
"*  c #010E1E",
"=  c #001121",
"-  c #011022",
";  c #001122",
":  c #011123",
">  c #001426",
",  c #021329",
"<  c #02162F",
"1  c #00182F",
"2  c #021730",
"3  c #001930",
"4  c #021A36",
"5  c #011C36",
"6  c #032D5A",
"7  c #012F5D",
"8  c #052D5E",
"9  c #052F63",
"0  c #003668",
"q  c #04366D",
"w  c #00396E",
"e  c #043772",
"r  c #063773",
"t  c #023A72",
"y  c #013E79",
"u  c #063C7D",
"i  c #063F84",
"p  c #004280",
"a  c #044183",
"s  c #034284",
"d  c #074087",
"f  c #034587",
"g  c #00488C",
"h  c #02498E",
"j  c #064690",
"k  c #074691",
"l  c #074795",
"z  c #084794",
"x  c #074996",
"c  c #034C97",
"v  c #004F97",
"b  c #044C97",
"n  c #064A98",
"m  c #074A9A",
"M  c #054C98",
"N  c #074B9C",
"B  c #034F9C",
"V  c #074C9C",
"C  c #074D9E",
"Z  c #074E9F",
"A  c #084A9A",
"S  c #084B9A",
"D  c #084B9B",
"F  c #084C9C",
"G  c #084C9D",
"H  c #00519A",
"J  c #064FA0",
"K  c #074FA0",
"L  c #074FA1",
"P  c #0152A1",
"I  c #0650A2",
"U  c #0650A3",
"Y  c #0651A3",
"T  c #0751A3",
"R  c #0154A3",
"E  c #0551A4",
"W  c #0652A4",
"Q  c #0652A5",
"!  c #0553A6",
"~  c #0553A7",
"^  c #0653A7",
"/  c #0654A7",
"(  c #0355A9",
")  c #0157AB",
"_  c #0454A8",
"`  c #0554A8",
"'  c #0555A9",
"]  c #0456AA",
"[  c #0456AB",
"{  c #0556AB",
"}  c #0557AB",
"|  c #0457AC",
" . c #0457AD",
".. c #0059AB",
"X. c #0159AB",
"o. c #0359AE",
"O. c #0359AF",
"+. c #005BAE",
"@. c #0458AD",
"#. c #0558AD",
"$. c #0459AF",
"%. c #045AAF",
"&. c #035AB1",
"*. c #035BB1",
"=. c #045BB1",
"-. c #025CB3",
";. c #035CB3",
":. c #035CB4",
">. c #025DB5",
",. c #025EB5",
"<. c #035EB5",
"1. c #035EB6",
"2. c #025FB7",
"3. c #025FB8",
"4. c #0160B9",
"5. c #0260B9",
"6. c #0261BA",
"7. c None",
/* pixels */
"7.7.7.7.7.7.7.7.            7.7.7.7.7.7.7.7.",
"7.7.7.7.7.                      7.7.7.7.7.7.",
"7.7.7.7.      3 w H +.X.v 0 >       7.7.7.7.",
"7.7.7.    $ h 6.6.6.3.6.6.6.6.p #     7.7.7.",
"7.7.    1 X.,.3.3.3.3.,.,.3.,.3.R -     7.7.",
"7.    & ) ,.,.,.,.,.,.,.,.,.,.,.2.B #   7.7.",
"7.    h ;.;.;.;.&.,.;.;.,.&.:.:.;.;.y     7.",
"7.  5 &.&.&.&.;.&.=.&.&.=.&.&.&.;.;.=.-   7.",
"    t O.$.#.+.=.+.$.O.$.O.O.@.@.@.&.=.7     ",
"    B O.#.#.#.@.#.#.#.#.#.O.O.#.@.@.@.f     ",
"    O.~ #.' ' ' ' #.' ) #.) ' #.' ' ' v     ",
"  o ~ ' ` ` ' ) ` ' ` ' ` ` ` ~ ' ' ' b     ",
"    M Q Q ! ! ! Q ! ! ! Q Q ` ` / / / a     ",
"    q Q Q ! Q Q ! Q Q Q Q Q U Q E E E 6     ",
"7.  5 Q I I I L L Q L E Q L U L E E Q -   7.",
"7.    a L L L L L L L Z L L L L Z L r     7.",
"7.    & m C C C C Z C C C Z C C C k #   7.7.",
"7.7.    2 x G G A G C A G C A C k -     7.7.",
"7.7.7.    & u A G A A A A A A r #     7.7.7.",
"7.7.7.7.      < 9 i x z i 8 ,       7.7.7.7.",
"7.7.7.7.7.                        7.7.7.7.7.",
"7.7.7.7.7.7.7.7.            7.7.7.7.7.7.7.7."
};
