/* XPM */
static char *bbd6912678434e6db51f54d2d86cdf7a[] = {
/* columns rows colors chars-per-pixel */
"96 25 195 2 ",
"   c #1F700F",
".  c #1F7411",
"X  c #1E7B13",
"o  c #22630D",
"O  c #216B0F",
"+  c #206F10",
"@  c #207211",
"#  c #237B16",
"$  c #257C18",
"%  c #2C791A",
"&  c #317C12",
"*  c #34751E",
"=  c #367B21",
"-  c #397F25",
";  c #4A7C10",
":  c #547611",
">  c #5C7912",
",  c #737A11",
"<  c #1E7548",
"1  c #1D7E48",
"2  c #1F755B",
"3  c #1E7E64",
"4  c #1E7E6C",
"5  c #4A7E52",
"6  c #657B73",
"7  c #1C8414",
"8  c #1B8C16",
"9  c #1C8E18",
"0  c #1A9017",
"q  c #199418",
"w  c #199819",
"e  c #218116",
"r  c #238419",
"t  c #2A801B",
"y  c #218A1A",
"u  c #3F8014",
"i  c #23911E",
"p  c #28901F",
"a  c #1C852D",
"s  c #2F8321",
"d  c #2E8C22",
"f  c #348223",
"g  c #3A8227",
"h  c #358C26",
"j  c #3D872A",
"k  c #368D28",
"l  c #3F8A2C",
"z  c #2E9B28",
"x  c #37962B",
"c  c #3A962E",
"v  c #33992A",
"b  c #3D9730",
"n  c #399E31",
"m  c #498A15",
"M  c #538013",
"N  c #5C8114",
"B  c #538914",
"V  c #5C8914",
"C  c #6B8614",
"Z  c #738513",
"A  c #7C8613",
"S  c #7F8914",
"D  c #40872B",
"F  c #48822F",
"G  c #418B2E",
"H  c #418F30",
"J  c #4D8835",
"K  c #4D8E38",
"L  c #548F3A",
"P  c #459132",
"I  c #429B34",
"U  c #4F9138",
"Y  c #4A9E3A",
"T  c #56943E",
"R  c #5A913F",
"E  c #539D3E",
"W  c #79872D",
"Q  c #6B942D",
"!  c #79942D",
"~  c #6C813B",
"^  c #44A037",
"/  c #4EA53F",
"(  c #1C8648",
")  c #338152",
"_  c #1C8164",
"`  c #1C916C",
"'  c #30916C",
"]  c #3F807A",
"[  c #5D9744",
"{  c #559F42",
"}  c #5A9E44",
"|  c #5D8952",
" . c #609B46",
".. c #669D4B",
"X. c #4EA941",
"o. c #56A544",
"O. c #5BA346",
"+. c #53A943",
"@. c #5DAB4A",
"#. c #5CB14B",
"$. c #67A24D",
"%. c #6AA24F",
"&. c #61B24F",
"*. c #69AD52",
"=. c #65B552",
"-. c #67B854",
";. c #499A7A",
":. c #739164",
">. c #8B9114",
",. c #909014",
"<. c #AD9A12",
"1. c #85942D",
"2. c #90932C",
"3. c #9B912C",
"4. c #958E3C",
"5. c #90933B",
"6. c #A99A2C",
"7. c #B2A448",
"8. c #B6A753",
"9. c #BEAB5B",
"0. c #858D64",
"q. c #85A773",
"w. c #C6B76C",
"e. c #CAB873",
"r. c #1E8383",
"t. c #1E8C94",
"y. c #1D9892",
"u. c #3295A1",
"i. c #3F9EB0",
"p. c #7FAD8C",
"a. c #72AD9D",
"s. c #5C96A6",
"d. c #4AA3B4",
"f. c #4AA6B9",
"g. c #54AABD",
"h. c #5CB1BD",
"j. c #79AAAB",
"k. c #7FB2B4",
"l. c #65B2C5",
"z. c #6CBAC9",
"x. c #73B7C9",
"c. c #7CBDD3",
"v. c #7FC1D5",
"b. c #85AB86",
"n. c #8BAD80",
"m. c #A4B080",
"M. c #A9BA9C",
"N. c #B6B79C",
"B. c #96B0A6",
"V. c #9FB7A6",
"C. c #9BBAA6",
"Z. c #A4B7A6",
"A. c #B1BEA2",
"S. c #BEBDA6",
"D. c #CEBC80",
"F. c #D1BD80",
"G. c #ADC3B9",
"H. c #BEC1BD",
"J. c #D8C78C",
"K. c #DCCC97",
"L. c #CEC3A3",
"P. c #D5CBA6",
"I. c #DCD1A4",
"U. c #C4CFBB",
"Y. c #DCD7B0",
"T. c #DCD9B4",
"R. c #DCDDBB",
"E. c #8BC5D5",
"W. c #85C5D9",
"Q. c #8BC7DC",
"!. c #9BC8D5",
"~. c #9BCBD9",
"^. c #BEC9C5",
"/. c #90CCE0",
"(. c #9ACFE0",
"). c #ABD6E0",
"_. c #B6D7E0",
"`. c #B5DBE0",
"'. c #BADAE0",
"]. c #C2CCC5",
"[. c #CECFC1",
"{. c #CACFCD",
"}. c #DCDDC2",
"|. c #D8D4C9",
" X c #D5DBCD",
".X c #DCDEC9",
"XX c #CAD7D9",
"oX c #D3D7D5",
"OX c #DCDED2",
"+X c #DCDEDC",
"@X c #C6DDE0",
"#X c #CADEE0",
"$X c #D3DEE0",
"%X c #DCDEE0",
"&X c None",
/* pixels */
"&X&X&X&X&X&X&X&X&Xw q w w q w w w w w w w w w w w w w w w w w w w w w w w w w w w w w w w w w w w w w w w w q w w w w q w w w w w w w w q w w w w w w w w w w w w w w w w w q &X&X&X&X&X&X&X&X&X",
"&X&X&X&X&X&X&Xw q q w w q w q q q q w q q w q q q q q w 0 w w 0 q w q w q q q q q q w q 0 q w q q q q q w q q w q q w q q w q q q w q w w q q q q q w q q w q q q q q q q w w q w &X&X&X&X&X&X&X",
"&X&X&X&X&X0 q q q q 0 q 0 q q q q q q 0 n +.z 0 q 0 0 q 0 w 0 0 q q 0 0 q q q q 0 q q 0 q q 0 0 0 q q q 0 q q q q q 0 q q q q 0 q 0 0 0 q 0 q q q 0 q q 0 q q q q q q 0 0 q q q q q q &X&X&X&X&X",
"&X&X&X&X0 0 0 0 0 0 0 0 0 0 0 0 0 0 0 0 X.-.=.X.z 0 0 0 9 0 q 9 0 0 q 0 0 0 0 9 0 q 0 0 9 0 q q 0 0 0 0 0 0 0 0 0 0 0 0 0 0 0 0 0 q 0 0 0 0 0 9 0 0 0 0 0 0 0 0 0 0 0 0 0 0 q 9 0 0 0 0 &X&X&X&X",
"&X&X&X0 0 9 8 8 0 8 0 0 9 0 0 8 8 8 0 0 i @.-.#.&.+.v 0 9 0 0 0 0 8 0 0 8 0 0 8 8 0 0 8 0 0 8 0 0 8 0 0 8 0 0 8 0 8 0 8 0 8 0 8 0 0 8 0 8 0 0 8 8 0 0 8 0 0 0 8 8 0 0 0 0 0 9 8 8 0 0 8 9 &X&X&X",
"&X&X8 8 8 8 8 8 8 8 8 8 0 0 8 8 8 9 8 8 9 x =.9 0 v X.+.x 8 9 9 8 8 8 8 8 8 8 8 0 0 8 8 8 8 8 0 8 8 8 0 8 8 0 8 8 8 8 8 8 8 0 8 8 8 8 8 8 8 8 8 8 8 8 0 8 8 8 0 8 8 8 8 8 8 8 8 0 0 8 8 0 0 &X&X",
"&X&X8 8 8 8 7 8 7 8 8 8 8 7 8 7 8 7 8 8 8 8 / p 8 8 8 y ^ +.c 8 8 7 8 8 7 8 8 7 8 7 8 7 8 8 7 7 8 8 8 7 8 8 7 9 8 8 8 7 8 8 8 8 8 8 8 8 8 7 8 8 7 8 8 8 7 8 7 8 8 7 8 8 7 8 8 8 8 7 8 7 8 8 &X&X",
"&X8 7 7 7 8 7 8 7 8 7 8 7 7 8 8 8 7 7 7 8 7 p x 7 7 7 8 7 y b +.c 9 7 8 7 8 7 8 7 8 7 8 7 7 8 8 7 7 7 8 7 8 7 7 8 7 8 7 7 7 8 7 7 8 7 7 7 8 7 7 7 8 7 7 8 7 8 7 8 7 7 8 7 8 7 7 7 8 7 8 7 7 8 &X",
"&X7 7 7 7 8 7 8 7 7 7 7 7 7 7 8 7 7 7 7 7 7 7 c 7 7 7 7 7 7 7 y I o.b y 7 7 7 7 7 7 7 7 7 7 7 7 7 7 7 7 7 7 7 7 7 a a.G.A.! 7 ' b.b.b.b.n.B ;.n.V 7 ( p.Q ` b.b.b.q.m 7 7 7 7 7 7 7 7 7 7 7 7 &X",
"7 7 7 7 X 7 X 7 7 7 7 X 8 7 7 X 7 7 7 7 7 7 7 h 7 7 7 7 7 7 7 7 X y Y @.c r 7 7 7 7 7 7 7 7 7 7 7 7 7 7 7 7 7 7 4 _.+X{.%XOX>.g.%X%X%X%X.XW (.%Xw.7 i.%X7.l.+X+X$X%X.XC 7 7 7 7 7 7 7 7 7 7 7 7 ",
"7 X 7 7 7 X 7 7 X 7 X 7 7 X 7 X X 7 7 7 7 7 7 r d X 7 7 7 X 7 X X 7 X d @.o.c $ X 7 7 X 7 7 7 7 X 7 X 7 7 X 7 X f.%X,.7 y.].1.W.}.N 7 X X _ '.%XY.u z.oX>.Q.R.M X h.%X8.7 X 7 X 7 7 7 7 7 X 7 7 ",
"7 X # X 7 X X X 7 X X 7 X 7 X X 7 X X X X X X # k X X X 7 X X X X 7 X X $ o.*.{ 7 X 7 X X X X X 7 X 7 X 7 X 7 X g.%X%X[.m.& 1 ).+XoXoX X2.t.$XU.%X4.Q.T.| ).K.t X d.%X7.X 7 X X X X X X 7 X X X ",
"X X X X X X X X X X X X X X X X # X X X X X X # h X X X X X X X X X X X # { *.O.X X X X X 7 X X X X X X # X X X X k.XX%X%XI.] #X|.^.].U.Z f.+X0.`.L.`.J.r.$Xe.X X v. X>.. . X X X X X X X X X # ",
"# X X X X X X X . X X X X X X X . X X X X X X $ s # X X X X X X X X X % { O.H $ X X . X . X X X X X . X . X X _ C.A X _ '.R.s.%X<.X X X @ c.}.> v.%X%X9.i.%X6.X r.#XI.& X . . X X X . X X X X X ",
". . X   X . X X X . X X . X X X . X . X . X X s # . X . @ X X # X # P } H $ X X . X . X X X @ X . . X . X . . t.%XP.:.j.%XF.l.%XS.V.Z.M.~ ).I.& u.%X+X3.x.+XN.B.@X+X3.X X X X X X X X X X X . . ",
". X   X . . @ . . . . . . .     X . . . . . . j . X . . . X + @ l } l $ . . . . . . . . . . . . . . . X X . . < !.%X%X%XL.: E.%X%X%X%X}.6 @XD.X 2 `.}., ~.%X%X%X.X5.  X . . . . . .   .   . . . ",
"&X@     X     @ + @ X   @     X + +     . @ % j   @ X + @ @ D T l $     X .     + .     @   .   . . + . .     . . ) | ;   .   . + @ . @ @ @   .   @ @ X   .   @ @ @     X @     X @     @ @ + &X",
"&X. + + + +   @ + + + +   + + + +   + +     K %   + + @ G U g @ +     + +     + + . . + . .   + . . + + +         +   +   . . + + +     @ +   +       +         +     + +     + + +   + X @ + &X",
"&X&X+ + +   + + + + + O + + + + + + + + + g $.+ + = K [ = + + + + + + + + + + + + + + + + + o O + + + + + + + + + + + + + + + + + + + +   + + + + + + + + + + +   + + + + + + + + + + + + + &X&X",
"&X&X+ O O O O + O O O O + + O + + O + O + [ %. ...R = O + + O O O O O O O O O + O + O O O O o o O + O O O O O O O + O O O O O O O + O O + + O O O O O O O O O O + + + O O O O + O O O O O O &X&X",
"&X&X&XO O O O O O o O O O O O o O O O O J %...L = O O O o o o o O O o O O O O O o O O O o o o o O O O O O O O O O O O O O O O o O o O O o o o o O O O O O o O O O o O O O o O O O O O O O &X&X&X",
"&X&X&X&XO o O o O O O o o O o o o o o O F R * o o o o O o o o o o O o O O o o o O o o O o o o o O o o O o o O o o O o o O O o O o o o O o o o o O o O o o O O o o O O o O O O o o O o o &X&X&X&X",
"&X&X&X&X&XO o o o o o o o o o o O o o o o o o O o o o o o o o o O o o o o o o O o o o o o o o o o o o o o O o o o o o O o o o o o o o o o o o o o o o o O o o o o o o o o o o o o o O &X&X&X&X&X",
"&X&X&X&X&X&X&Xo o o o o o o o o o o o o o o o o o o o o o o o o o o o o o o o o o o o o o o o o o o o o o o o o o o o o o o o o o o o o o o o o o o o o o o o o o o o o o o o o o &X&X&X&X&X&X&X",
"&X&X&X&X&X&X&X&X&Xo o o o o o o o o o o o o o o o o o o o o o o o o o o o o o o o o o o o o o o o o o o o o o o o o o o o o o o o o o o o o o o o o o o o o o o o o o o o o o &X&X&X&X&X&X&X&X&X"
};
