/* XPM */
static char *bbe04c8fcf6d4be9a95005c4b7786ab6[] = {
/* columns rows colors chars-per-pixel */
"96 25 121 2 ",
"   c #575C63",
".  c #595E64",
"X  c #5B6066",
"o  c #5E6269",
"O  c #61666B",
"+  c #64696E",
"@  c #676C71",
"#  c #6A6F73",
"$  c #6D7276",
"%  c #6F7478",
"&  c #6B7B7C",
"*  c #717579",
"=  c #757A7D",
"-  c #787B7F",
";  c #6F7A81",
":  c #737781",
">  c #747D82",
",  c #7A7E81",
"<  c #717A8E",
"1  c #6D8382",
"2  c #678E8D",
"3  c #6E8C8D",
"4  c #748484",
"5  c #7D8285",
"6  c #73868A",
"7  c #7B838C",
"8  c #748B8B",
"9  c #7C8B8C",
"0  c #75958E",
"q  c #6C8F9E",
"w  c #738791",
"e  c #7B8495",
"r  c #708F96",
"t  c #7F8F91",
"y  c #77859D",
"u  c #7C889D",
"i  c #679293",
"p  c #6A9293",
"a  c #66969D",
"s  c #6A919C",
"d  c #729293",
"f  c #7C9392",
"g  c #7C9A95",
"h  c #79939E",
"j  c #7EA198",
"k  c #578BA2",
"l  c #5A8DA4",
"z  c #5C90A6",
"x  c #5E92A8",
"c  c #738DA3",
"v  c #7D8EA3",
"b  c #728EA8",
"n  c #6495A2",
"m  c #6A95A4",
"M  c #6699A4",
"N  c #6A9CA6",
"B  c #6295AB",
"V  c #6B96AB",
"C  c #6699AD",
"Z  c #6B99AD",
"A  c #7096A5",
"S  c #7D94A3",
"D  c #759DA3",
"F  c #7593AB",
"G  c #7C92A9",
"H  c #749CAB",
"J  c #679BB0",
"K  c #6A9DB3",
"L  c #76A6A4",
"P  c #7FABA5",
"I  c #74A5AC",
"U  c #7EACAD",
"Y  c #6EA1B5",
"T  c #72A3B2",
"R  c #76A9B5",
"E  c #7BABB4",
"W  c #808487",
"Q  c #838789",
"!  c #868A8C",
"~  c #898D8F",
"^  c #848A94",
"/  c #898E94",
"(  c #828C9D",
")  c #888F98",
"_  c #849694",
"`  c #8D9293",
"'  c #85919C",
"]  c #869D99",
"[  c #889E9C",
"{  c #929697",
"}  c #919698",
"|  c #95999A",
" . c #999D9D",
".. c #80A69D",
"X. c #8CA29E",
"o. c #83A89E",
"O. c #90A29E",
"+. c #9CA09F",
"@. c #838FA3",
"#. c #8091A7",
"$. c #86A6A3",
"%. c #8DA2A0",
"&. c #85ADA1",
"*. c #8BADA3",
"=. c #84ADAA",
"-. c #8AAEAB",
";. c #94A4A3",
":. c #9EA2A1",
">. c #94A9A3",
",. c #86B1A3",
"<. c #89B4A5",
"1. c #89B3A9",
"2. c #8FBAAB",
"3. c #93B4AB",
"4. c #93BBAC",
"5. c #85B6B6",
"6. c #88B5B2",
"7. c #A2A6A4",
"8. c #97C0B1",
"9. c #99C4B3",
"0. c None",
/* pixels */
"0.0.0.0.0.0.0.0.0.7.7.7.7.7.7.7.7.7.7.7.7.7.7.7.7.7.7.7.7.7.7.7.7.7.7.7.7.7.7.7.7.7.7.7.7.7.7.7.7.7.7.7.7.7.7.7.7.7.7.7.7.7.7.7.7.7.7.7.7.7.7.7.7.7.7.7.7.7.7.7.7.7.7.7.7.7.7.0.0.0.0.0.0.0.0.0.",
"0.0.0.0.0.0.0.7.:.:.7.:.:.:.:.:.+.7.:.7.7.+.+.7.:.:.7.+.:.:.:.:.:.:.:.7.:.:.:.:.:.7.:.:.:.:.:.7.:.:.:.:.7.7. .7.7.+.7.7. .7.7. .7.+.:.:.:.:.+.7.+.7.7.+.+.7.+.7.7.+.:.7.7.+.:.7.:.0.0.0.0.0.0.0.",
"0.0.0.0.0.+.+.+.+. .+. . .+.+. .+.+.+.+. .+.+.:.+.+.+.+. .:.:. .+. .+. .:. . .:.:. .+.:. .:. .+. .:. .+.|  .7. . . . .+.+. . . . .+.+. . .+.+. . . . .+. .:.+. . . . . . . . .+.+.+.+.0.0.0.0.0.",
"0.0.0.0. . . . . . . . . . . . . .|  . .;.4.;.| | +.| |  .|  . . . . . . . .|  . . .| |  .|  . . . . .|  . . . . . .|  . . . . . . . . . . . . . . . . . . . . . . . . . . . . . . . . .0.0.0.0.",
"0.0.0.| | | | | | | | | | | | | | { | | 3.9.8.3.;.| | | | | | | | | | | | | | | {  .| {  .| | { | | {  .{ |  .{  .{ {  . .{  .{ | | {  .| | | | { | | | | { | | | | {  . .{  .{ |  .{ |  .0.0.0.",
"0.0.{ { { { { { { { { { { { { { { { { { | 4.9.5.5.3.O.| { } | } { { { { { { { { { { { { { { { { { { { { { { { { { { { { { { { { { { { { { { { { { { { { { { { { { { { { { { { { { { { { { { 0.0.",
"0.0.` ` ` ` ` ` ` { ` ` ` ` ` { ` ` ` ` ` %.8.Y K Y E -.%.` ` ` ` ` ` ` ` ` ` ` ` ` ` ` ` ` ` ` ` ` ` ` ` ` ` ` ` ` ` ` ` ` ` ` ` ` ` ` ` ` ` ` { ` ` ` ` ` ` ` ` ` ` ` ` ` ` ` ` ` ` ` ` ` 0.0.",
"0.` ` ` ` ` ` ` ~ ` ` ` ` ~ ` ` ` ` ` ` ` ` *.R K Y K Y R -.%./ ` ` ` ` ` ` ` ` ` ` ` ` ` ` ` ` ` ` ` ` ` ` ` ` ` ` ` ` ` ` ` ` ` ` ` ` ` ` ` / ` ` ` ` ` ` ` ` ` ` ` ` ` ` ` ` ` ` ` / ` ` ` 0.",
"0.~ ~ ~ ~ ~ ~ ~ ~ ~ ~ ~ ~ ~ ~ ~ ~ ~ ~ ~ ~ ~ _ U J K J J K K Y =.[ ~ ~ ~ ~ ! ~ ~ ~ ~ ~ ~ ~ ~ ~ ~ ~ ~ ~ ~ ~ ~ ~ ~ ~ ~ S A A f ~ ) S h h h h ! ' S _ ~ / S t ) h S h h ! ! ~ ~ ~ ~ ~ ~ ~ ~ ~ ~ ~ 0.",
"! ! ! ! ! ! ! ! ! ! ! ! ! ! ! ! ! ! ! ! ! ! ! $.K J J J J K C K T =.[ ! ! ! ! ! ! ! ! ! ! ! ! ! ! ! ! ! ! ! ! ! ^ Z C V C C 9 #.C C C C C 9 H C i ! @.C d G C C V C C 9 ! ! ! ! ! ! ! ! ! ! ! ! ",
"! Q Q Q Q Q Q Q Q Q Q Q Q Q Q Q Q Q Q Q Q Q Q _ Y C J J C C C C C J T 1.[ ! Q Q Q Q Q Q Q Q Q Q Q Q Q Q Q Q Q Q @.C 8 Q ( V w F M 5 ! W 9 ^ Z C n Q G C 9 A N 5 Q S C 3 ! W ! Q Q Q Q Q ! Q Q Q ",
"W 5 Q 5 Q 5 5 5 W W W W W W W W Q 5 Q 5 W 5 W Q N C B C B C C C B B C C =.<.] Q Q 5 Q 5 W W 5 W W W W W W W W W G C C m r Q 7 H C C V V 8 e Z m C 6 F m 7 Z n 5 W v C 3 W 5 5 W W W W W 5 W 5 5 ",
"5 5 5 5 5 5 5 5 5 5 5 5 5 5 5 5 5 5 5 , 5 5 5 5 L B B B B B B B B B B B B U 2.&.5 , , 5 5 , 5 5 , W W 5 5 5 5 W 5 c Z C C a e Z Z m m m 4 v B w Z n V i e Z p 5 5 F C 4 5 , 5 5 5 , 5 5 5 5 5 5 ",
"5 - 5 - , , , , - 5 , - - - 5 - , , , , , , , 5 D B x B x x B x x B B B M <.4.*., , , , , , , , - - - - , , , < q 1 5 < Z n y C 1 , , , , F M > F C C 3 y C 1 , e Z a , , , , , , , , - - - 5 5 ",
"- - = = - - - - - = = - - = - = = = = = = = = , m x x x x x x x x x x I 2.,.g , , = = = , = , = = = - - = - - y Z a 6 c C 2 c C n q q s > V a , y C C 1 b C s q C C 1 = - - - = - = - - - - - - ",
"= * = * = = * * = * = * = = * = = = = * = = = 6 x z z z z z z z x N 1.&.f , = * = = = = * = * = = = = = = * = : V C C C s = V C C C C M < C 2 = : Z M ; V C C Z n 1 = = = * * = = = = * = = * * ",
"0.* $ * * * * * * * * * * * * * * * * * * * * d z k z z l z z N ,.&.t = * * * * $ * * * * * * * * * * * * * * * * & ; * * * * * * * * * * * * * * * * $ * * * * * * * * * * * * * * * * * * * 0.",
"0.$ $ $ $ $ $ $ $ $ $ $ $ $ $ $ $ $ $ $ $ $ = m z k l k k N P o.0 * $ $ $ $ $ $ $ $ $ $ $ $ $ $ $ $ $ $ $ $ $ $ $ # $ $ $ $ $ $ $ $ $ $ $ $ $ $ $ $ $ $ $ $ $ $ $ $ $ $ $ $ $ $ $ $ $ $ $ $ $ 0.",
"0.0.# # # # # # $ @ @ $ @ $ # # @ $ # # # # g z k k l N P j 4 # @ # # # @ # $ # $ # # # # # # # @ $ @ # @ $ $ @ # # # # # # $ @ # # # # @ $ # # # # # $ # # # # @ $ # # # # @ # # # @ # @ $ 0.0.",
"0.0.# @ @ @ @ # @ @ @ @ @ @ @ @ @ @ @ @ @ 1 <.z a L ,.j 1 @ @ @ # # @ @ @ @ @ @ @ @ @ @ @ @ @ @ @ @ @ @ @ @ @ @ @ @ @ @ @ @ @ @ @ @ @ @ @ @ @ @ @ @ @ @ + # @ @ @ @ @ @ @ @ # @ # @ @ # @ @ 0.0.",
"0.0.0.@ + + + + + + + + + + + + + + + + # j <.<.&.j 1 + + + + + + O + + + + + + + + + + O @ O @ + + + + + + + + + + + O + + + + + + + + + + + + + + O + + + + + + + + + + + + + + + + + + 0.0.0.",
"0.0.0.0.O O O O O O o O O o + o O O O O 0 <.P j 1 o o o O O O o O O O O O O O O O O O O O O O O O O O O O O O O O O O O O O O O O O O O O O O O O O O O O O O O O O O O O O O O O O O O 0.0.0.0.",
"0.0.0.0.0.o o o o o o o o o X o o o o o & 3 @ o X o o o o o o o O O o o o o o o o o o o O o o o O o o o X o o O o o O o o o O o o o o o o o o o o o o o o o o o o o o o o o o o o o o 0.0.0.0.0.",
"0.0.0.0.0.0.0.X X X X X X X X . X X X X X X X X X X X X X X X X . . . . X X . X X X X . . . o . . X X X X X X X . . . o . . o . X . X X . o . . . o . o X . o . . . o . . o . o . 0.0.0.0.0.0.0.",
"0.0.0.0.0.0.0.0.0.. . . . . . .     X         X           X       . .       .       .     .         . .       . . . .   . .       .   .       .         . .   . . . . . . . . 0.0.0.0.0.0.0.0.0."
};
