/* XPM */
static char *_12256459ed5430b892850a4ee9afdac[] = {
/* columns rows colors chars-per-pixel */
"312 32 69 1 ",
"  c #61656C",
". c #61666C",
"X c #61666D",
"o c #62666D",
"O c #676B71",
"+ c #676B72",
"@ c #676C72",
"# c #6C7077",
"$ c #6C7177",
"% c #6D7177",
"& c #6D7178",
"* c #787C81",
"= c #787C82",
"- c #797C82",
"; c #7E8187",
": c #7E8287",
"> c #7E8288",
", c #83878C",
"< c #84878C",
"1 c #84878D",
"2 c #84888D",
"3 c #8F9297",
"4 c #8F9397",
"5 c #909398",
"6 c #95989C",
"7 c #95989D",
"8 c #9A9DA1",
"9 c #9A9DA2",
"0 c #9B9DA2",
"q c #9B9EA2",
"w c #A6A8AC",
"e c #A6A9AC",
"r c #A6A9AD",
"t c #A7A9AD",
"y c #ABAEB1",
"u c #ACAEB1",
"i c #ACAEB2",
"p c #ACAFB2",
"a c #B7B9BC",
"s c #B7B9BD",
"d c #B7BABD",
"f c #B8BABD",
"g c #BDBEC1",
"h c #BDBFC1",
"j c #BDBFC2",
"k c #BEBFC2",
"l c #C2C4C7",
"z c #C3C4C7",
"x c #C3C5C7",
"c c #CECFD1",
"v c #CED0D2",
"b c #CFD0D2",
"n c #D4D5D7",
"m c #D4D6D7",
"M c #D9DADC",
"N c #D9DBDC",
"B c #DADBDC",
"V c #DADBDD",
"C c #E5E5E7",
"Z c #E5E6E7",
"A c #E6E6E7",
"S c #EAEBEC",
"D c #EBEBEC",
"F c #EBECEC",
"G c #EBECED",
"H c #F0F1F1",
"J c #F1F1F2",
"K c #F1F2F2",
"L c None",
/* pixels */
"LLLLLLLLLLLLLLLLLLLLLLLLLLLLLLLLLLLLLLLLLLLLLLLLLLLLLLLLLLLLLLLLLLLLLLLLLLLLLLLLLLLLLLLLLLLLLLLLLLLLLLLLLLLLLLLLLLLLLLLLLLLLLLLLLLLLLLLLLLLLLLLLLLLLLLLLLLLLLLLLLLLLLLLLLLLLLLLLLLLLLLLLLLLLLLLLLLLLLLLLLLLLLLLLLLLLLLLLLLLLLLLLLLLLLLLLLLLLLLLLLLLLLLLLLLLLLLLLLLLLLLLLLLLLLLLLLLLLLLLLLLLLLLLLLLLLLLLLLLLLLLLLLLLLLLLL",
"LLLLLLLLLLLLLLLLLLLLLLLLLLLLLLLLLLLLLLLLLLLLLLLLLLLLLLLLLLLLLLLLLLLLLLLLLLLLLLLLLLLLLLLLLLLLLLLLLLLLLLLLLLLLLLLLLLLLLLLLLLLLLLLLLLLLLLLLLLLLLLLLLLLLLLLLLLLLLLLLLLLLLLLLLLLLLLLLLLLLLLLLLLLLLLLLLLLLLLLLLLLLLLLLLLLLLLLLLLLLLLLLLLLLLLLLLLLLLLLLLLLLLLLLLLLLLLLLLLLLLLLLLLLLLLLLLLLLLLLLLLLLLLLLLLLLLLLLLLLLLLLLLLLLLLLL",
"LLLLLLLLLLLLLLLLLLLLLLLLLLLLLLLLLLLLLLLLLLLLLLLLLLLLLLLLLLLLLLLLLLLLLLLLLLLLLLLLLLLLLLLLLLLLLLLLLLLLLLLLLLLLLLLLLLLLLLLLLLLLLLLLLLLLLLLLLLLLLLLLLLLLLLLLLLLLLLLLLLLLLLLLLLLLLLLLLLLLLLLLLLLLLLLLLLLLLLLLLLLLLLLLLLLLLLLLLLLLLLLLLLLLLLLLLLLLLLLLLLLLLLLLLLLLLLLLLLLLLLLLLLLLLLLLLLLLLLLLLLLLLLLLLLLLLLLLLLLLLLLLLLLLLLLL",
"LLLLLLLLLLLLLLLLLLLLLLLLLLLLLLLLLLLLLLLLLLLLLLLLLLLLLLLLLLLLLLLLLLLLLLLLLLLLLLLLLLLLLLLLLLLLLLLLLLLLLLLLLLLLLLLLLLLLLLLLLLLLLLLLLLLLLLLLLLLLLLLLLLLLLLLLLLLLLLLLLLLLLLLLLLLLLLLLLLLLLLLLLLLLLLLLLLLLLLLLLLLLLLLLLLLLLLLLLLLLLLLLLLLLLLLLLLLLLLLLLLLLLLLLLLLLLLLLLLLLLLLLLLLLLLLLLLLLLLLLLLLLLLLLLLLLLLLLLLLLLLLLLLLLLLLL",
"LLLLLLLLLLLLLLLLLLLLLLLLLLLLLLLLLLLLLLLLLLLLLLLLLLLLLLLLLLLLLLLLLLLLLLLLLLLLLLLLLLLLLLLLLLLLLLLLLLLLLLLLLLLLLLLLLLLLLLLLLLLLLLLLLLLLLLLLLLLLLLLLLLLLLLLLLLLLLLLLLLLLLLLLLLLLLLLLLLLLLLLLLLLLLLLLLLLLLLLLLLLLLLLLLLLLLLLLLLLLLLLLLLLLLLLLLLLLLLLLLLLLLLLLLLLLLLLLLLLLLLLLLLLLLLLLLLLLLLLLLLLLLLLLLLLLLLLLLLLLLLLLLLLLLLLL",
"LLLLLLLLLLLLLLLLLLLLLLLLLLLLLLLLLLLLLLLLLLLLLLLLLLLLLLLLLLLLLLLLLLLLLLLLLLLLLLLLLLLLLLLLLLLLLLLLLLLLLLLLLLLLLLLLLLLLLLLLLLLLLLLLLLLLLLLLLLLLLLLLLLLLLLLLLLLLLLLLLLLLLLLLLLLLLLLLLLLLLLLLLLLLLLLLLLLLLLLLLLLLLLLLLLLLLLLLLLLLLLLLLLLLLLLLLLLLLLLLLLLLLLLLLLLLLLLLLLLLLLLLLLLLLLLLLLLLLLLLLLLLLLLLLLLLLLLLLLLLLLLLLLLLLLLL",
"LLLLLLKKKKKKKKKKKKKKKKKKKKKKKKKKKKKKKKKKKKKKKKKKKKKHKKKKKKJJKKKKKKKKKKKKKKKKKKKKKKKKKKKKKKKKKKKKKKKHKKKKKKJJKKKKKKKKKKKKKKKKKKKKKKKKKKKKKKKKKKKKKKKHKKKKKKJJKKKKKKKKKKKKKKKKKKKKKKKKKKKKKKKKKKKKKKKHKKKKKKJJKKKKKKKKKKKKKKKKKKKKKKKKKKKKKKKKKKKKKKKHKKKKKKJJKKKKKKKKKKKKKKKKKKKKKKKKKKKKKKKKKKKKKKKHKKKKKKJJKKKKKKLLLLLL",
"LLLLLLFDDDDDDDDDDDDDDDFFSFDDDDDDDDDDDDDDFDDDDDFFDDDDDDDDDDDDDDDDDDDDDDFFSFDDDDDDDDDDDDDDFDDDDDFFDDDDDDDDDDDDDDDDDDDDDDFFSFDDDDDDDDDDDDDDFDDDDDFFDDDDDDDDDDDDDDDDDDDDDDFFSFDDDDDDDDDDDDDDFDDDDDFFDDDDDDDDDDDDDDDDDDDDDDFFSFDDDDDDDDDDDDDDFDDDDDFFDDDDDDDDDDDDDDDDDDDDDDFFSFDDDDDDDDDDDDDDFDDDDDFFDDDDDDDDDDDDDDDDFFLLLLLL",
"LLLLLLCCZZCCCCAACCCCAACAACCCCCCCZCCCAACCCCCCCACCCAACCCCCZZZZZCCCCCCCAACACCZZZZZZZCCCAACCCCCCCACCCAACCCCCZZZZZCCCCCCCAACAACCCCCCCZCCCAACCCCCCCACCCAACCCCCZZZZZCCCCCCCAACACCZZZZZZZCCCAACCCCCCCACCCAACCCCCZZZZZCCCCCCCAACAACCCCCCCZCCCAACCCCCCCACCCAACCCCCZZZZZCCCCCCCAACACCZZZZZZZCCCAACCCCCCCACCCAACCCCCZZZZZCCCCCLLLLLL",
"LLLLLLNVVVBVNBBBBBNNNNBNBBNNBBVVVVNNVVBVBBBBVVBBNNNNNVBVVVVVVVVVBBNNNNBNBVVVVVVVVVNNVVBVBBBBVVBBNNNNNVBVVVVVVVVVBBNNNNBNBBNNBBVVVVNNVVBVBBBBVVBBNNNNNVBVVVVVVVVVBBNNNNBNBVVVVVVVVVNNVVBVBBBBVVBBNNNNNVBVVVVVVVVVBBNNNNBNBBNNBBVVVVNNVVBVBBBBVVBBNNNNNVBVVVVVVVVVBBNNNNBNBVVVVVVVVVNNVVBVBBBBVVBBNNNNNVBVVVVVVVVVBVLLLLLL",
"LLLLLLnnnnnnmmmmnnnnnnnnnnnnmnnnnnnnnnmmnnnnnnnnmnnnnnnnmmmnnnnnnnnnnnnnnnnnmmnnnnnnnnmmnnnnnnnnmnnnnnnnmmmnnnnnnnnnnnnnnnnnmnnnnnnnnnmmnnnnnnnnmnnnnnnnmmmnnnnnnnnnnnnnnnnnmmnnnnnnnnmmnnnnnnnnmnnnnnnnmmmnnnnnnnnnnnnnnnnnmnnnnnnnnnmmnnnnnnnnmnnnnnnnmmmnnnnnnnnnnnnnnnnnmmnnnnnnnnmmnnnnnnnnmnnnnnnnmmmnnnnnnnLLLLLL",
"LLLLLLcccvvcccvvccccbvvbvvvvvvvccvvvbbbbvbbbbbbbcbvvbvcbccvcvcvcccccbbvbvvccccvccvvvbbbbvbbbbbbbcbvvbvcbccvcvcvcccccbvvbvvvvvvvccvvvbbbbvbbbbbbbcbvvbvcbccvcvcvcccccbbvbvvccccvccvvvbbbbvbbbbbbbcbvvbvcbccvcvcvcccccbvvbvvvvvvvccvvvbbbbvbbbbbbbcbvvbvcbccvcvcvcccccbbvbvvccccvccvvvbbbbvbbbbbbbcbvvbvcbccvcvcvcccLLLLLL",
"LLLLLLxxzzzzzzzzxzxzzzxxxxxxzxzxxxxxxxxxxxzxzxxxxxxxzzzzzzzzxxxxzzzzxzxxxzzxzzzzxxxxxxxxxxzxzxxxxxxxzzzzzzzzxxxxxzxzzzxxxxxxzxzxxxxxxxxxxxzxzxxxxxxxzzzzzzzzxxxxzzzzxzxxxzzxzzzzxxxxxxxxxxzxzxxxxxxxzzzzzzzzxxxxxzxzzzxxxxxxzxzxxxxxxxxxxxzxzxxxxxxxzzzzzzzzxxxxzzzzxzxxxzzxzzzzxxxxxxxxxxzxzxxxxxxxzzzzzzzzxxxxxzLLLLLL",
"LLLLLLjjjjjjjjjjjjfljlfjjjjjjjjjfjjjjjfjjjjjjjfjhjfjjjjjjjjjjjjjjjfljjjjjjjjjjjjfjjjjjfjjjjjjjfjhjfjjjjjjjjjjjjjjjfljlfjjjjjjjjjfjjjjjfjjjjjjjfjhjfjjjjjjjjjjjjjjjfljjjjjjjjjjjjfjjjjjfjjjjjjjfjhjfjjjjjjjjjjjjjjjfljlfjjjjjjjjjfjjjjjfjjjjjjjfjhjfjjjjjjjjjjjjjjjfljjjjjjjjjjjjfjjjjjfjjjjjjjfjhjfjjjjjjjjjjjjjjjLLLLLL",
"LLLLLLaadfaadfdaaaaaaaaafaaadfddfaafaaaaaaaaaaaaaaffaaaaafaaafaaaaaaafffffdaafadfaafaaaaaaaaaaaaaaffaaaaafaaafaaaaaaaaaafaaadfddfaafaaaaaaaaaaaaaaffaaaaafaaafaaaaaaafffffdaafadfaafaaaaaaaaaaaaaaffaaaaafaaafaaaaaaaaaafaaadfddfaafaaaaaaaaaaaaaaffaaaaafaaafaaaaaaafffffdaafadfaafaaaaaaaaaaaaaaffaaaaafaaafaafaLLLLLL",
"LLLLLLyppyppppyyuppuppuppuppyyyypppppppppuppppppppppupyppyppppypuppppptppyppyyyipppppppppuppppppppppupyppyppppypuppuppuppuppyyyypppppppppuppppppppppupyppyppppypuppppptppyppyyyipppppppppuppppppppppupyppyppppypuppuppuppuppyyyypppppppppuppppppppppupyppyppppypuppppptppyppyyyipppppppppuppppppppppupyppyppppyppyLLLLLL",
"LLLLLLttttttttttttttrrrwttttttttwtttttttrtwttttttttwttwttttttttrwttwtwwtttrrwwttwtttttttrtwtttttttwwwwwwttttttttttttrrrwttttttttwtttttttrtwttttttttwttwttttttttrwttwtwwtttrrwwttwtttttttrtwtttttttwwwwwwttttttttttttrrrwttttttttwtttttttrtwttttttttwttwttttttttrwttwtwwtttrrwwttwtttttttrtwtttttttwwwwwwttttttttttLLLLLL",
"LLLLLLq88888888888qqqq8888888888qq8q888888qq8888qq8qq88888q88889qq8qqqqqq8899qq8qq8q888888qq8888qq00qqqq8888888888qqqq8888888888qq8q888888qq8888qq8qq88888q88889qq8qqqqqq8899qq8qq8q888888qq8888qq00qqqq8888888888qqqq8888888888qq8q888888qq8888qq8qq88888q88889qq8qqqqqq8899qq8qq8q888888qq8888qq00qqqq8888888888LLLLLL",
"LLLLLL666666777666667777666677766666666677666666666666666666777766666666677766666666666677666666666666666666777666667777666677766666666677666666666666666666777766666666677766666666666677666666666666666666777666667777666677766666666677666666666666666666777766666666677766666666666677666666666666666666777666LLLLLL",
"LLLLLL443333333333333333333333333333433333333335444433553433333333333333333335553333433333333335444454453333333333333333333333333333433333333335444433553433333333333333333335553333433333333335444454453333333333333333333333333333433333333335444433553433333333333333333335553333433333333335444454453333333333LLLLLL",
"LLLLLL<2,<<<22,,2<2<,,,,,,<<<<<,1,,<<<<2,,,,<<<<<<<<<<<<,<<,,,,,<<<<<<,<,,,<<2221,,<<<<2,,,,,<<,<2<,<<<<,<<<22<,2<2<,,,,,,<<<<<,1,,<<<<2,,,,<<<<<<<<<<<<,<<,,,,,<<<<<<,<,,,<<2221,,<<<<2,,,,,<<,<2<,<<<<,<<<22<,2<2<,,,,,,<<<<<,1,,<<<<2,,,,<<<<<<<<<<<<,<<,,,,,<<<<<<,<,,,<<2221,,<<<<2,,,,,<<,<2<,<<<<,<<<22<,22LLLLLL",
"LLLLLL;;;>>>,->>;;;;>>;>;;>;>;>;>>>>;;;;>;>>;;>>;;;;;>-,;>>;>;>>;;>;>>>>;;>>>>-,>>>>;;;;>;>>;;>>;;;;-,,-;>>>,->>;;;;>>;>;;>;>;>;>>>>;;;;>;>>;;>>;;;;;>-,;>>;>;>>;;>;>>>>;;>>>>-,>>>>;;;;>;>>;;>>;;;;-,,-;>>>,->>;;;;>>;>;;>;>;>;>>>>;;;;>;>>;;>>;;;;;>-,;>>;>;>>;;>;>>>>;;>>>>-,>>>>;;;;>;>>;;>>;;;;-,,-;>>>,->>>>LLLLLL",
"LLLLLL-----------*--------=-----=--=------==-------------=-----*--------****----=--=------===----*--=------------*--------=-----=--=------==-------------=-----*--------****----=--=------===----*--=------------*--------=-----=--=------==-------------=-----*--------****----=--=------===----*--=------------=LLLLLL",
"LLLLLL$$&&&&@&&&$$$$$$$$$&$$$&&&$$$&$$$$$&$$$$$&##$$$$$$$$$$$$$&$$$$$$&&$$&&$$@&$$$&$$$$$&$$&&&&&$$##&&#&&&&@&&&$$$$$$$$$&$$$&&&$$$&$$$$$&$$$$$&##$$$$$$$$$$$$$&$$$$$$&&$$&&$$@&$$$&$$$$$&$$&&&&&$$##&&#&&&&@&&&$$$$$$$$$&$$$&&&$$$&$$$$$&$$$$$&##$$$$$$$$$$$$$&$$$$$$&&$$&&$$@&$$$&$$$$$&$$&&&&&$$##&&#&&&&@&&&&$LLLLLL",
"LLLLLLOOO@@@++@+@++@@++@+++@++@+++++O@+@+++@+@++++++@++@+++@++@+++++@++@+++@++@+++++O@+@+++@+@+++++O@++@+++@++@+@++@@++@+++@++@+++++O@+@+++@+@++++++@++@+++@++@+++++@++@+++@++@+++++O@+@+++@+@+++++O@++@+++@++@+@++@@++@+++@++@+++++O@+@+++@+@++++++@++@+++@++@+++++@++@+++@++@+++++O@+@+++@+@+++++O@++@+++@++@+++LLLLLL",
"LLLLLL.........................o........o......o.....o... ...........o.o.......................................................o........o......o.....o... ...........o.o.......................................................o........o......o.....o... ...........o.o..........................................LLLLLL",
"LLLLLLLLLLLLLLLLLLLLLLLLLLLLLLLLLLLLLLLLLLLLLLLLLLLLLLLLLLLLLLLLLLLLLLLLLLLLLLLLLLLLLLLLLLLLLLLLLLLLLLLLLLLLLLLLLLLLLLLLLLLLLLLLLLLLLLLLLLLLLLLLLLLLLLLLLLLLLLLLLLLLLLLLLLLLLLLLLLLLLLLLLLLLLLLLLLLLLLLLLLLLLLLLLLLLLLLLLLLLLLLLLLLLLLLLLLLLLLLLLLLLLLLLLLLLLLLLLLLLLLLLLLLLLLLLLLLLLLLLLLLLLLLLLLLLLLLLLLLLLLLLLLLLLLLL",
"LLLLLLLLLLLLLLLLLLLLLLLLLLLLLLLLLLLLLLLLLLLLLLLLLLLLLLLLLLLLLLLLLLLLLLLLLLLLLLLLLLLLLLLLLLLLLLLLLLLLLLLLLLLLLLLLLLLLLLLLLLLLLLLLLLLLLLLLLLLLLLLLLLLLLLLLLLLLLLLLLLLLLLLLLLLLLLLLLLLLLLLLLLLLLLLLLLLLLLLLLLLLLLLLLLLLLLLLLLLLLLLLLLLLLLLLLLLLLLLLLLLLLLLLLLLLLLLLLLLLLLLLLLLLLLLLLLLLLLLLLLLLLLLLLLLLLLLLLLLLLLLLLLLLLLLL",
"LLLLLLLLLLLLLLLLLLLLLLLLLLLLLLLLLLLLLLLLLLLLLLLLLLLLLLLLLLLLLLLLLLLLLLLLLLLLLLLLLLLLLLLLLLLLLLLLLLLLLLLLLLLLLLLLLLLLLLLLLLLLLLLLLLLLLLLLLLLLLLLLLLLLLLLLLLLLLLLLLLLLLLLLLLLLLLLLLLLLLLLLLLLLLLLLLLLLLLLLLLLLLLLLLLLLLLLLLLLLLLLLLLLLLLLLLLLLLLLLLLLLLLLLLLLLLLLLLLLLLLLLLLLLLLLLLLLLLLLLLLLLLLLLLLLLLLLLLLLLLLLLLLLLLLLL",
"LLLLLLLLLLLLLLLLLLLLLLLLLLLLLLLLLLLLLLLLLLLLLLLLLLLLLLLLLLLLLLLLLLLLLLLLLLLLLLLLLLLLLLLLLLLLLLLLLLLLLLLLLLLLLLLLLLLLLLLLLLLLLLLLLLLLLLLLLLLLLLLLLLLLLLLLLLLLLLLLLLLLLLLLLLLLLLLLLLLLLLLLLLLLLLLLLLLLLLLLLLLLLLLLLLLLLLLLLLLLLLLLLLLLLLLLLLLLLLLLLLLLLLLLLLLLLLLLLLLLLLLLLLLLLLLLLLLLLLLLLLLLLLLLLLLLLLLLLLLLLLLLLLLLLLLL",
"LLLLLLLLLLLLLLLLLLLLLLLLLLLLLLLLLLLLLLLLLLLLLLLLLLLLLLLLLLLLLLLLLLLLLLLLLLLLLLLLLLLLLLLLLLLLLLLLLLLLLLLLLLLLLLLLLLLLLLLLLLLLLLLLLLLLLLLLLLLLLLLLLLLLLLLLLLLLLLLLLLLLLLLLLLLLLLLLLLLLLLLLLLLLLLLLLLLLLLLLLLLLLLLLLLLLLLLLLLLLLLLLLLLLLLLLLLLLLLLLLLLLLLLLLLLLLLLLLLLLLLLLLLLLLLLLLLLLLLLLLLLLLLLLLLLLLLLLLLLLLLLLLLLLLLLL",
"LLLLLLLLLLLLLLLLLLLLLLLLLLLLLLLLLLLLLLLLLLLLLLLLLLLLLLLLLLLLLLLLLLLLLLLLLLLLLLLLLLLLLLLLLLLLLLLLLLLLLLLLLLLLLLLLLLLLLLLLLLLLLLLLLLLLLLLLLLLLLLLLLLLLLLLLLLLLLLLLLLLLLLLLLLLLLLLLLLLLLLLLLLLLLLLLLLLLLLLLLLLLLLLLLLLLLLLLLLLLLLLLLLLLLLLLLLLLLLLLLLLLLLLLLLLLLLLLLLLLLLLLLLLLLLLLLLLLLLLLLLLLLLLLLLLLLLLLLLLLLLLLLLLLLLLL"
};
