/* XPM */
static char *standard_bar_select[] = {
/* columns rows colors chars-per-pixel */
"312 32 69 1 ",
"  c #585D64",
". c #595D64",
"X c #595E64",
"o c #595E65",
"O c #5C6167",
"+ c #5D6168",
"@ c #5D6268",
"# c #60646A",
"$ c #60656A",
"% c #60656B",
"& c #61656B",
"* c #64686E",
"= c #64696E",
"- c #64696F",
"; c #65696F",
": c #676C71",
"> c #686C71",
", c #686D72",
"< c #6B7074",
"1 c #6B7075",
"2 c #6C7075",
"3 c #6F7478",
"4 c #707478",
"5 c #707479",
"6 c #73777B",
"7 c #73787B",
"8 c #73787C",
"9 c #74787C",
"0 c #767B7E",
"q c #777B7E",
"w c #777B7F",
"e c #777C7F",
"r c #7A7F82",
"t c #7B7F82",
"y c #7B8083",
"u c #7E8285",
"i c #7E8385",
"p c #7F8385",
"a c #7F8386",
"s c #828689",
"d c #828789",
"f c #838789",
"g c #868A8C",
"h c #868B8C",
"j c #878B8D",
"k c #898E8F",
"l c #8A8E8F",
"z c #8A8E90",
"x c #8D9192",
"c c #8D9293",
"v c #8E9293",
"b c #919596",
"n c #919696",
"m c #929696",
"M c #929697",
"N c #959999",
"B c #95999A",
"V c #969A9A",
"C c #999D9C",
"Z c #999D9D",
"A c #9A9D9D",
"S c #9A9E9D",
"D c #9CA0A0",
"F c #9DA1A0",
"G c #9DA1A1",
"H c #A0A4A3",
"J c #A1A4A3",
"K c #A1A5A4",
"L c None",
/* pixels */
"LLLLLLLLLLLLLLLLLLLLLLLLLLLLLLLLLLLLLLLLLLLLLLLLLLLLLLLLLLLLLLLLLLLLLLLLLLLLLLLLLLLLLLLLLLLLLLLLLLLLLLLLLLLLLLLLLLLLLLLLLLLLLLLLLLLLLLLLLLLLLLLLLLLLLLLLLLLLLLLLLLLLLLLLLLLLLLLLLLLLLLLLLLLLLLLLLLLLLLLLLLLLLLLLLLLLLLLLLLLLLLLLLLLLLLLLLLLLLLLLLLLLLLLLLLLLLLLLLLLLLLLLLLLLLLLLLLLLLLLLLLLLLLLLLLLLLLLLLLLLLLLLLLLLLLLL",
"LLLLLLLLLLLLLLLLLLLLLLLLLLLLLLLLLLLLLLLLLLLLLLLLLLLLLLLLLLLLLLLLLLLLLLLLLLLLLLLLLLLLLLLLLLLLLLLLLLLLLLLLLLLLLLLLLLLLLLLLLLLLLLLLLLLLLLLLLLLLLLLLLLLLLLLLLLLLLLLLLLLLLLLLLLLLLLLLLLLLLLLLLLLLLLLLLLLLLLLLLLLLLLLLLLLLLLLLLLLLLLLLLLLLLLLLLLLLLLLLLLLLLLLLLLLLLLLLLLLLLLLLLLLLLLLLLLLLLLLLLLLLLLLLLLLLLLLLLLLLLLLLLLLLLLLL",
"LLLLLLLLLLLLLLLLLLLLLLLLLLLLLLLLLLLLLLLLLLLLLLLLLLLLLLLLLLLLLLLLLLLLLLLLLLLLLLLLLLLLLLLLLLLLLLLLLLLLLLLLLLLLLLLLLLLLLLLLLLLLLLLLLLLLLLLLLLLLLLLLLLLLLLLLLLLLLLLLLLLLLLLLLLLLLLLLLLLLLLLLLLLLLLLLLLLLLLLLLLLLLLLLLLLLLLLLLLLLLLLLLLLLLLLLLLLLLLLLLLLLLLLLLLLLLLLLLLLLLLLLLLLLLLLLLLLLLLLLLLLLLLLLLLLLLLLLLLLLLLLLLLLLLLLL",
"LLLLLLLLLLLLLLLLLLLLLLLLLLLLLLLLLLLLLLLLLLLLLLLLLLLLLLLLLLLLLLLLLLLLLLLLLLLLLLLLLLLLLLLLLLLLLLLLLLLLLLLLLLLLLLLLLLLLLLLLLLLLLLLLLLLLLLLLLLLLLLLLLLLLLLLLLLLLLLLLLLLLLLLLLLLLLLLLLLLLLLLLLLLLLLLLLLLLLLLLLLLLLLLLLLLLLLLLLLLLLLLLLLLLLLLLLLLLLLLLLLLLLLLLLLLLLLLLLLLLLLLLLLLLLLLLLLLLLLLLLLLLLLLLLLLLLLLLLLLLLLLLLLLLLLLL",
"LLLLLLLLLLLLLLLLLLLLLLLLLLLLLLLLLLLLLLLLLLLLLLLLLLLLLLLLLLLLLLLLLLLLLLLLLLLLLLLLLLLLLLLLLLLLLLLLLLLLLLLLLLLLLLLLLLLLLLLLLLLLLLLLLLLLLLLLLLLLLLLLLLLLLLLLLLLLLLLLLLLLLLLLLLLLLLLLLLLLLLLLLLLLLLLLLLLLLLLLLLLLLLLLLLLLLLLLLLLLLLLLLLLLLLLLLLLLLLLLLLLLLLLLLLLLLLLLLLLLLLLLLLLLLLLLLLLLLLLLLLLLLLLLLLLLLLLLLLLLLLLLLLLLLLLL",
"LLLLLLLLLLLLLLLLLLLLLLLLLLLLLLLLLLLLLLLLLLLLLLLLLLLLLLLLLLLLLLLLLLLLLLLLLLLLLLLLLLLLLLLLLLLLLLLLLLLLLLLLLLLLLLLLLLLLLLLLLLLLLLLLLLLLLLLLLLLLLLLLLLLLLLLLLLLLLLLLLLLLLLLLLLLLLLLLLLLLLLLLLLLLLLLLLLLLLLLLLLLLLLLLLLLLLLLLLLLLLLLLLLLLLLLLLLLLLLLLLLLLLLLLLLLLLLLLLLLLLLLLLLLLLLLLLLLLLLLLLLLLLLLLLLLLLLLLLLLLLLLLLLLLLLLL",
"LLLLLLKKHHHKHKHKKHKHHKHHHKHKHKHKHHKHHKKKKHHKHKGKHKKHHKKKHHHKHKHKHHKHKKHHHKHKKHHKHHKHHKKKJJHKHKKKKJKGKKKKKHJKJKKKHHKHKKHHHKHKKHHKHHKHHKKKJJHKHKKKKJKGKKKKKHJKJKKKHHHHHKHKHKHKHKHKHHKHHKKKJJHKHKKKKJKGKKKKKHJKJKKKKHKHHKHHHKHKHKHKHHKHHKKKKHHKHKGKHKKHHKKKHHHKHKHKHHHHHKHKHKHKHKHKHHKHHKKKJJHKHKKKKJKGKKKKKHJKJKKKKHLLLLLL",
"LLLLLLFFFFFFDFFFFFFFFFFFFFFFFFDFFFFFFFFFFFFFFFDDFFFFFFFFFFFFDFFFFFFFFFFFHAHAFFFFAHFAHFFFFFFFFFAFFFDFFFFFFFFFDFFFFFFFFFFFHAHAFFFFAHFAHFFFFFFFFFAFFFDFFFFFFFFFDFFFFHAFFHFFFFFFFFDFFFFFFFFFFFFFFFAFFFDFFFFFFFFFDFFFFFFFFFFFFFFFFFDFFFFFFFFFFFFFFFDDFFFFFFFFFFFFDFFFFHAFFHFFFFFFFFDFFFFFFFFFFFFFFFAFFFDFFFFFFFFFDFFFFFLLLLLL",
"LLLLLLAAAACAACAAAAASCACAACCCAAAAAAAAAAAAZAVAAAAAACACACACAACAACAACCCSCACAACCCACAAAAAACAACACCACAAAACACACCCAACAACAACCCSCACACCCCCACCAAAACAACACCACAAAACACACCCAACAACAACCCSCACAACCCACAAAAAACAACACCACAAAACACACCCAACAACAAAAASCACAACCCAAAAAAAAAAAAZAVAAAAAACACACACAACAACAACCCSCACAACCCACAAAAAACAACACCACAAAACACACCCAACAACAAAALLLLLL",
"LLLLLLBBBBBBBBBBBBBBBVNBBNBBBBBBBBBBBBNNBBBBBBBBBBBNBBBBBBBBBBBBNNBBBVNBBNBNBBBBBBBBNBBBBBNBNNBBBBBNBBBBBBBBBBBBNNBBBVNBBNNNBBBBBBBBNBBBBBNBNNBBBBBNBBBBBBBBBBBBNNBBBVNBBNBNBBBBBBBBNBBBBBNBNNBBBBBNBBBBBBBBBBBBBBBBBVNBBNBBBBBBBBBBBBNNBBBBBBBBBBBNBBBBBBBBBBBBNNBBBVNBBNBNBBBBBBBBNBBBBBNBNNBBBBBNBBBBBBBBBBBBBBLLLLLL",
"LLLLLLnnnnnnnnnnnnnnnnnnnnnnnnnnnnnnnnnnnnnnnnnnnNnnnnnnnnnnnnnnnbbbnnnnnnnnnnnnnbNbnnnnnnnnnnnnnnnnnnnnnnnnnnnnnbbbnnnnbnnNNbnnnbNbnnnnnnnnnnnnnnnnnnnnnnnnnnnnnbbbnnnnnnnnnnnnNnnnnnnnnnnnNnnnnnnnnnnnnnnnnnnnnnnnnnnnnnnnnnnnnnnnnnnnnnnnnnnnnNnnnnnnnnnnnnnnnbbbnnnnnnnnnnnnNnnnnnnnnnnnNnnnnnnnnnnnnnnnnnnnnnLLLLLL",
"LLLLLLvvvvvvvvvvvvvvvvvvvvvvvvvvvvvvvvvvvvvvvvvvvvvvvvvvvvvvvvvvvvvvvvvvvvvvvvvvvvvvvvvvvvvvvvvvvvvvvvvvvvvvvvvvvvvvvvvvvvvvvlvvvvvvvvvvvvvvvvvvvvvvvvvvvvvvvvvvvvvvvvvvvvvvvvvvvvvvvvvvvvvvvzvvvvvvvvvvvvvvvvvvvvvvvvvvvvvvvvvvvvvvvvvvvvvvvvvvvvvvvvvvvvvvvvvvvvvvvvvvvvvvvvvvvvvvvvvvvvvvvzvvvvvvvvvvvvvvvvvvvvLLLLLL",
"LLLLLLzllllllllllllllllllllllzlllllllllzlllllllllllllllllllllllllllllllllllllllllllllllllllllllllllllllllllllllllllllllllllzlllllllllllllllllllllllllllllllllllllllllllllllllllllllllllllllllllllllllllllllllllllllllllllllllzlllllllllzllllllllllllllllllllllllllllllllllllllllllllllllllllllllllllllllllllllllzzLLLLLL",
"LLLLLLjggggjgggghhggjggggggggggjgjggjghhggghgggjggggjggggggjgggjggggggggjggjggggghgggggggggjgggggggglggggggjgggggggggggggggjgggjghgggggggggjgggggggglggggggjggggggggggggjggjgggggggggggggggjgggggggglggggggjgggghhggjggggggggggjgjggjghhggghgggjggggjggggggjgggjggggggggjggjgggggggggggggggjgggggggglggggggjgggggjLLLLLL",
"LLLLLLssffffssssffsgsfgsssssffsfffffsfffggssffsfffssffssffffssssssffssssffssffssfgfgsffsffssfsssfsffsfssffssssssssffssssffssffssfgfgsffsffssfsssfsffsfssffssssssssffssssffssffsssgsgsffsffsffsssfsffsfssffssssssffsgsfgsssssffsfffffsfffggssffsfffssffssffffssssssffssssffssffsssgsgsffsffsffsssfsffsfssffssssssffLLLLLL",
"LLLLLLysuuysysysayayaayaauusuauuauauaayayuuauauasysyysysuuysysyssysyyssysyusysysiyayiaysuusyusysuysuysysuuusysuusysyyssysyusysysiyayiaysuusyusysuysuysysuuusysuusysyyssysyusysysiyayiaysuusyusysuysuysysuuusysuuayayaayaauusuauuauauaayayuuauauasysyysysuuysysyssysyyssysyusysysiyayiaysuusyusysuysuysysuuusysuuuuLLLLLL",
"LLLLLLtyrrtrytrrryrryrryrrtrytrrrtrryrryrrrytrrreyttrrrrrrrrrrrtrrrrtrrrrrrryyrrrtrryrryrrrrtrrryyyryrtyrrtrytrrryrryrryrrtrytyyrrrryryyrrrytrrryyttyrryrtrrurrrrrrrtrrrrrrryyrrrrrryrryrrrrtrrryyyryrtyrrtrytrrryrryrryrrtrytrrrrrryrryrrrrtrrreyttrrryrrrrurrrrrrrtrrrrrrryyrrrrrryrryrrrrtrrryyyryrtyrrtrytrrryLLLLLL",
"LLLLLLwqeqwqwwqqwwqqqqrqeqwqwwqqrqqqrqqerqqewqqqwwwwqqrqqqreqqqqqrqqqrrqqqrqeeeqrqqqrqqer8rqqqqqwweewwqqeqwqwwqqwwqqqqrqeqwqwweeqrqqqqqerqqewqqqwwqwqqwqeqqqqqqqqrqqqrrqqqrqeeeqqrqqqqqer8rqqqqqwweewwqqeqwqwwqqwwqqqqrqeqwqwwqqqrqqqqqeqqrqwqqqwwwwqqqqrqqeqqqqqrqqqrrqqqrqeeeqqrqqqqqer8rqqqqqwweewwqqeqwqwwqqwwLLLLLL",
"LLLLLLq58788975q975q5q568888975q5q5q597759q5q55q77697q7756q89666888859666659q5775q5q597755q6965q975999758788975q975q5q568888q875665q5q7759q5q55q775q5q795q77q666888859666659q577665q6q7755q6965q975999758788975q975q5q568888975q665q6q775q66q65q77697q8758q8q666888859666659q577665q6q7755q6965q975999758788975q97LLLLLL",
"LLLLLL355333435533555333533343553353533445333533334453345523335533535335553333553353533455333333335554555333435533555333533325553353333455333533333353345533235533535335553333553333333555333333335554555333435533555333533343553333333533333333334453353323235533535335553333553333333555333333335554555333435533LLLLLL",
"LLLLLL<2<<<<21<<2<<<2112<<<<21<<1<2<<<<2<<<<22212<2<22<<<<<<22222<2<2<<21><<<<221<2<<<<2222<<2212<<<2<<2<<<<21<<2<<<2112<<<<21<<1222<2<2<<<<22212<1111<<<<<<2<2<2<2<2<<211<<<<221221<<<2222<<2212<<<2<<2<<<<21<<2<<<2112<<<<21<<1221<<<2122<22212<2<22<2<<<<2<2<2<2<2<<211<<<<221221<<<2222<<2212<<<2<<2<<<<21<<2<LLLLLL",
"LLLLLL>>,,,,>,>,,>>,>,>>,,,,>,>,;>;1:,>>>,,,>;>1,>>>,,,,,,,,>;>>;,>>>,>>>>,,,,>>;>;1::>>>>,,,,>1,:,,>,>>,,,,>,>,,>>,>,>>,,,,>,>,;>;1::>>>,,,>;>1,>,1>;::,,,,>,>>;,>>>,>>>;,,,,>>;>;1::>>>>,,,,>1,:,,>,>>,,,,>,>,,>>,>,>>,,,,>,>,;>;1,,>>;>,,>;>1,>>>,,>>,,,,>,>>;,>>>,>>>;,,,,>>;>;1::>>>>,,,,>1,:,,>,>>,,,,>,>,,>LLLLLL",
"LLLLLL;;;;-;;;;;--;;-;;;;;-;;;;;-;;---;;;;--;;--&;;;--;;--;---;;---;;-;;;;---;;;-;;-:-;:;;--;;;;&;:--;;;;;-;;;;;--;;-;;;;;-;;;;;-;;---;;;;--;;--&;;;;-;---;;;;;----;;-;;;;-:-;;;-;;-:-;:;;--;;;;&;:--;;;;;-;;;;;--;;-;;;;;-;;;;;-;;---;-;;--;;--&;;;--;;--;;;;;----;;-;;;;-:-;;;-;;-:-;:;;--;;;;&;:--;;;;;-;;;;;&;LLLLLL",
"LLLLLL&@&&@&&@&@&@@-@&&@&&@&&@&@&&&@-@&&@&&@&&@&&&@&@-@&&@&&@-&@&-@&&@&@&&@-@&&@&&&@@-@&@&&@&@&@&&@-@&&@&&@&&@&@&@@-@&&@&&@&&@&@&&&@-@&&@&&@&&@&&&@&&&@-@&@-@&&@&-@&&@&@&&@&@&&@&&&@@-@&@&&@&@&@&&@-@&&@&&@&&@&@&@@-@&&@&&@&&@&@&&&@&&@-@&&@&&@&&&@&@-@&@&@-@&&@&-@&&@&@&&@&@&&@&&&@@-@&@&&@&@&@&&@-@&&@&&@&&@&@&&LLLLLL",
"LLLLLL@@O@O@O@@O@@@@@@O@OOO@@@@O@@@@@OO@@OO@X@@@@@@@@O@@OOO@O@@O@@O@++@@OO@@O@@@@@@@@OO@@OO@O@@OO@O@@@O@OOO@@@@O@@@@@@O@OOO@@@@O@@@@@OO@@OO@X@@@@@@@@O@@@@@@O@@O@@O@++@@OO@@O@@@@@@@@OO@@OO@O@@OO@O@@@O@OOO@@@@O@@@@@@O@OOO@@@@O@@@@@OO@@OO@X@@@@@@@@O@@@@@@O@@O@@O@++@@OO@@O@@@@@@@@OO@@OO@O@@OO@O@@@O@OOO@@@@O@@LLLLLL",
"LLLLLLXXXXXXXXXXXXXXXXXXXXX XX XX XXXXXXXXXXXXXX  XXXXXX OXXXXXXXXX XXXXXXXXXX XX XXXXXXXXXX XXXXXXXXXXXXXX XX XXXXXXXXXXXX XX XX XXXXXXXXXXXXXX  XXXXXXXXXXXX XXXX XXXXXXXXXX XX XXXXXXXXXX XXXXXXXXXXXXXX XX XXXXXXXXXXXX XX XX XXXXXXXXXXXXXX  XXXXXXXXXXXX XXXX XXXXXXXXXX XX XXXXXXXXXX XXXXXXXXXXXXXX XX XXXLLLLLL",
"LLLLLLLLLLLLLLLLLLLLLLLLLLLLLLLLLLLLLLLLLLLLLLLLLLLLLLLLLLLLLLLLLLLLLLLLLLLLLLLLLLLLLLLLLLLLLLLLLLLLLLLLLLLLLLLLLLLLLLLLLLLLLLLLLLLLLLLLLLLLLLLLLLLLLLLLLLLLLLLLLLLLLLLLLLLLLLLLLLLLLLLLLLLLLLLLLLLLLLLLLLLLLLLLLLLLLLLLLLLLLLLLLLLLLLLLLLLLLLLLLLLLLLLLLLLLLLLLLLLLLLLLLLLLLLLLLLLLLLLLLLLLLLLLLLLLLLLLLLLLLLLLLLLLLLLL",
"LLLLLLLLLLLLLLLLLLLLLLLLLLLLLLLLLLLLLLLLLLLLLLLLLLLLLLLLLLLLLLLLLLLLLLLLLLLLLLLLLLLLLLLLLLLLLLLLLLLLLLLLLLLLLLLLLLLLLLLLLLLLLLLLLLLLLLLLLLLLLLLLLLLLLLLLLLLLLLLLLLLLLLLLLLLLLLLLLLLLLLLLLLLLLLLLLLLLLLLLLLLLLLLLLLLLLLLLLLLLLLLLLLLLLLLLLLLLLLLLLLLLLLLLLLLLLLLLLLLLLLLLLLLLLLLLLLLLLLLLLLLLLLLLLLLLLLLLLLLLLLLLLLLLLLLL",
"LLLLLLLLLLLLLLLLLLLLLLLLLLLLLLLLLLLLLLLLLLLLLLLLLLLLLLLLLLLLLLLLLLLLLLLLLLLLLLLLLLLLLLLLLLLLLLLLLLLLLLLLLLLLLLLLLLLLLLLLLLLLLLLLLLLLLLLLLLLLLLLLLLLLLLLLLLLLLLLLLLLLLLLLLLLLLLLLLLLLLLLLLLLLLLLLLLLLLLLLLLLLLLLLLLLLLLLLLLLLLLLLLLLLLLLLLLLLLLLLLLLLLLLLLLLLLLLLLLLLLLLLLLLLLLLLLLLLLLLLLLLLLLLLLLLLLLLLLLLLLLLLLLLLLLLL",
"LLLLLLLLLLLLLLLLLLLLLLLLLLLLLLLLLLLLLLLLLLLLLLLLLLLLLLLLLLLLLLLLLLLLLLLLLLLLLLLLLLLLLLLLLLLLLLLLLLLLLLLLLLLLLLLLLLLLLLLLLLLLLLLLLLLLLLLLLLLLLLLLLLLLLLLLLLLLLLLLLLLLLLLLLLLLLLLLLLLLLLLLLLLLLLLLLLLLLLLLLLLLLLLLLLLLLLLLLLLLLLLLLLLLLLLLLLLLLLLLLLLLLLLLLLLLLLLLLLLLLLLLLLLLLLLLLLLLLLLLLLLLLLLLLLLLLLLLLLLLLLLLLLLLLLLL",
"LLLLLLLLLLLLLLLLLLLLLLLLLLLLLLLLLLLLLLLLLLLLLLLLLLLLLLLLLLLLLLLLLLLLLLLLLLLLLLLLLLLLLLLLLLLLLLLLLLLLLLLLLLLLLLLLLLLLLLLLLLLLLLLLLLLLLLLLLLLLLLLLLLLLLLLLLLLLLLLLLLLLLLLLLLLLLLLLLLLLLLLLLLLLLLLLLLLLLLLLLLLLLLLLLLLLLLLLLLLLLLLLLLLLLLLLLLLLLLLLLLLLLLLLLLLLLLLLLLLLLLLLLLLLLLLLLLLLLLLLLLLLLLLLLLLLLLLLLLLLLLLLLLLLLLLL",
"LLLLLLLLLLLLLLLLLLLLLLLLLLLLLLLLLLLLLLLLLLLLLLLLLLLLLLLLLLLLLLLLLLLLLLLLLLLLLLLLLLLLLLLLLLLLLLLLLLLLLLLLLLLLLLLLLLLLLLLLLLLLLLLLLLLLLLLLLLLLLLLLLLLLLLLLLLLLLLLLLLLLLLLLLLLLLLLLLLLLLLLLLLLLLLLLLLLLLLLLLLLLLLLLLLLLLLLLLLLLLLLLLLLLLLLLLLLLLLLLLLLLLLLLLLLLLLLLLLLLLLLLLLLLLLLLLLLLLLLLLLLLLLLLLLLLLLLLLLLLLLLLLLLLLLLL"
};
