/* XPM */
static char *e78ca8fc5d3f4ff9c45c9bab44d58024[] = {
/* columns rows colors chars-per-pixel */
"125 50 63 1 ",
"  c #575C63",
". c #595E65",
"X c #5C6167",
"o c #5F646A",
"O c #62666D",
"+ c #65696E",
"@ c #696B6E",
"# c #666A70",
"$ c #696D74",
"% c #6D7175",
"& c #6F7478",
"* c #717376",
"= c #71757B",
"- c #76797E",
"; c #797B7E",
": c #767A80",
"> c #7A7E83",
", c #7E8285",
"< c #7F8388",
"1 c #818387",
"2 c #82868B",
"3 c #868A8E",
"4 c #898B8D",
"5 c #878B90",
"6 c #8A8E92",
"7 c #8D9194",
"8 c #929596",
"9 c #93969A",
"0 c #96999D",
"q c #9A9D9D",
"w c #9B9EA2",
"e c #9DA0A3",
"r c #A1A4A5",
"t c #A3A6A9",
"y c #A6A9AC",
"u c #A8AAAE",
"i c #ACAEB1",
"p c #ADB0B3",
"a c #B0B2B6",
"s c #B5B7BA",
"d c #B6B8BB",
"f c #B9BBBD",
"g c #BCBEC1",
"h c #BEC0C3",
"j c #C1C3C5",
"k c #C6C7C9",
"l c #C6C8CA",
"z c #CACBCD",
"x c #CDCED1",
"c c #CED0D2",
"v c #D1D3D4",
"b c #D6D7D9",
"n c #D7D8DA",
"m c #DBDCDD",
"M c #DCDEE0",
"N c #DFE0E1",
"B c #E2E2E4",
"V c #E7E8E9",
"C c #EBEBEC",
"Z c #EFF0F1",
"A c #F1F2F2",
"S c #F9FAFA",
"D c None",
/* pixels */
"DDDDDDDDDDDDSSSSSSSSSSSSSSSSSSSSSSSSSSSSSSSSSSSSSSSSSSSSSSSSSSSSSSSSSSSSSSSSSSSSSSSSSSSSSSSSSSSSSSSSSSSSSSSSSSSSSDDDDDDDDDDDD",
"DDDDDDDDDSSSSSSSSSSSSSSSSSSSSSSSSSSSSSSSSSSSSSSSSSSSSSSSSSSSSSSSAASSSSSSSSSSSSSSSSSSSSSSSSSSSSSSSSSSSSSSSSSSSSSSSSSSDDDDDDDDD",
"DDDDDDDAAAAAAAAAAAAAAAAAAAAAAAAAAAAAAAAAAAAAAAAAAAAAAAAAAAAAAAAAAAZZZAAAAAZAAAAAAAAAAAAAAAAAAAAAAAAAAAAAAAAAAAAAAAAAAADDDDDDD",
"DDDDDAAAAZAZAAAAZAAZAAAAZZAAAZAZAZAAAZAAZAAZAZAAAZAAZAAAAZAZAZAAZZZZZZZZAZZZZZAAAZAAAAZAZZAZAZAAAZAAZZAZAZAZAZAAZZAZAAAADDDDD",
"DDDDCZCCCCCCCCZCCCZCZCZCZCZCZCCZZCCZCZCCCZZCACCZZCCZCZCCCCZCZCCZCCCCCCCCZCZCZCCCZCVZZZZCCCZCZCZCZCZCZCZCCZCZZCCZZCCZZCACADDDD",
"DDDCCCCCCCCCCCCCCCCCCCCCCCCCCCCCCCCCCCCCCCCCCCCCCCCCCVCCCCCCCCCCCCCCCCCCCCCCCVCCVCVZVVCVCCCCCCCCCCCCCVCCCCCCCCCCCCCCCVCCCCDDD",
"DDDVCVVVCVCVVVCVVVVVVVVVVVVVVVVVVVVVVVVVVVVVVVVVVVVVVVVCVVVVVVVVVVCVCVVCVVVVVVVCVVVVVVVVVVVVVVVVVCVCVVVCVVVVVVVVVVVVVVVVVVDDD",
"DDBBBBBBBBBBBBBBBBBBBBBBBBBBBBBBBBBBBBBBBBBBNBBBBNBBBBBBBBBBBBBBBBBBBBBBBBBBBBBBBBBBBBBBBBBBBBBBNNNBNBBBBNBBBBBBBBBBBBBBBBBDD",
"DDNBNNNNNNBNNBNNMMMMMMMNNMMMMMMMNBBNNNNBMNBNNNNNNNNBNNNNNNNmNNmBBNNBBNNNNNNNNNNNBBBNNNNNNNNNNNNNNBNNNNNBNNNNNBNNMMNMNNNNNMBDD",
"DMmmmMmmmmmmmmMmMMMMMMMMMMMMMMMMmmmmMMmMmMmmmmMMmmmmmmnmmmmmmmmmnnnnmnmmmmmmNmMmmmmmNmmmmNmmmmNmmmmmNmmmmmmmmmmNMMMMMMmMMMMMD",
"DmnmmmmmmmmmmmmmMMnMmmnmMMnMMMMMmmmmmmmmmmmmmmmmmmbbbvvvvcccvcccvvvcvvvvbbnmnmmmmmmmmmmmmmmmmmmmmmmmnmmnmmmmmmmmmmmnmmmmmmMnD",
"DnnnnnnnnnnbbnnbnnnbnnnnbbbbbbnnbbbbbbbbbbbbbbbbbvvvvzzzkkkkkkkkkjkkklzzccvvvnnnbnbbbbbbbbbbbnbnnnnnnnnnnnnnbnnnnbbbbnbbbbmMD",
"vvvvvvvvvcvvcvvvvvvvbvvvccbccvvvvvvvvvvvvvvvvvcvvvzkkjfdsassasaaaaaasfghjlzcccvvvvvvvvvvvvvvvvvvvvvvvvvvvvvvcvvvvvvvvvvvvvvvv",
"ccccccccccccccccxxxvxxcxxcccccccxxxxvxxxccxxcxxxzkkjfsiurrqqqqrqqqrrrrppdhllzccccccccccccccccccccccxcxccccccccccxcxvccxcccccc",
"czxzzzczxzzxxzxxzxzzxxzzzzxxxzzxxzzzxzxzxzxxxxzxkkgsarq884414444444488qrisgjlzzczzzzzzczzzczczzzxczxxxxxzxxzczzxzxxxxzxxxxxzx",
"zzzzzzlzzzlzzzzlzzzkzzzzzzzzzzzzzzzzzzzzzzkzzzkkkhfirrrrrrrrrrrqrrrrrrrrrishjlllzzzzzzzzzzlzlzzzllzlzzllzlzzlzzlzzllzzzllzlzz",
"lllzlllllllllllllllllllllllllllllllllllllzlllzlhhgarqqrqrrrqrrqrqrqqrqrqrrpfhjllkkkkkkkkkkkkkkkkllklkklllllzllllllzllllllllll",
"jhjjjjjjjjjjjjjjjjjjjjjjhhjjjjhhjjhhjjhhhhhhhhhgfauq4qqqqqqqqqqqqqqqqqqqqqrpdhhjjjjjjjjjjjjjjjjjjjjjjjjjhghjhhjjjjjjjjjjjjjhj",
"ghgggggggggggghggggggghhhhhhhhhhhhghhhghhhhhhhggsarq48qq88q88q888qq8q8q888rasghhhhghhhghhhhhhhhhhhggghjhggggghhggggggggghghhj",
"gggggggggggggggggggggggggggfgfgggggggggggggggggdsur8;888888888888888888888qpadffggggggggggggfggfgggggggfggggggggggggggggfgggg",
"gddgffffgdgdgddgffffgffffffdfffffffffffffffffdddarq4;884888888487777777784qyasdfffffffffdffffffffdffffffsgdggggsdggdggdgfdgdf",
"addddddsddssddddsssfdsdsddddddddddsddsssddssdddsauq4;4444444444478474774448rppsdddssdddsddssddddsdsddsdsgdssaasgsdaggssadsssd",
"aaapapaaaaaaiaaapaapappaaaaaaaaaaapapsppaapapapiur84*444444444444<<4<444448rypppaaaaaaaaaaaaaaaaaaaaaaaaaaaaaaaaiaaaaaaaaaaaa",
"ppppppppiaipiiaiipppppppppipiipippppppppppppippirr84*4111,111114<4<4<<2<,,7qrpppiiiiiaiiiaiiiiaipppippiiiiaiiiaiiiiaiiiippipp",
"iiiiuiuiuiiuiiuiiiiiuiiiuuiiiiuiiiiiiyiiiiiiiiiyrq8,%,,,,,,,,,,,,1,,,,,,2>6wttiiiiiiuiuiiiiuiiuiiiiiuuiiuuiiiiuiiiiiiiiiuiiii",
"yuuyuuuuuuuuuuuuyyyyuuuuuuyyuyuuyyyyyiyyyyyyyyyyrq8,%,,,,;,,;,;,>>,>>,,,>>50tttiuuuuuuuuuuuuuuuuyyyyuuuuuuuuuuuuuuuyuyyyyuyyy",
"ttttttttttyyttttttyyttyttttyttyyytttttytttyyttttqq7,@;--;;;;;;;;:;::;;;;:>59wtttttyttttttttttttttyyyttyyttyyttytttttttyyytytt",
"tttttttttttttttttttttttttttttttttttttttttttttttwq84;%&-&*;;*&;&;:==:=-==::29wwttttttttttttttttttttrrttttttttttttttttttttttttt",
"wwwwwwwwwwwwwtwwwwwwwwwwwwwwwwwwwwwwwweeewwweeeqq7<>@&&&&&&&&&&&********:*<69wwwtwwwwwwtwwtwwwwwweweeewwwwwwwtwwwwwwwtwwwwwww",
"wwwwwwwwwwwwwwwwwwwwwwwwwwwwwwwwwwwwwwwwwewwwwqq87<;@%%%@%%&&%%%$*$%$%%$#:1699wwwwwwwwwwwwwwwwwwwwwwwwwwwwwwwwwwwwwwwwwwwwwww",
"000wwwww00009w0w0w0www0ww000ww000w0000w0000000q887<;@#@##@@@@@@@$#$$$#@$@=16990090w90w00w9www9ww00000ww0ww9w9w9www9w9ww00000w",
"00999999909090999999999990909099990909099009908887<;%##+##+++++@++OO###O#:<56990990999999999999099099999999990999999999990900",
"999999999999999999999999999999999999999999999999652>*OoOOOOoOoOOOOOOOOOOO;136799999999999999999999999999999999999999999999999",
"666666666666666666666666666666666659595566666665522:*.XXX.XXXXX.X..X..XX ;125666666666666666666666666666666666666666666666666",
"66556656655566656656665666566665555565565666655552>>:    .    ..    .    >125566666666665655566566666666666566656655665565666",
"555555555533555555255555555255355555<55555555555222<::*$$@@+@@+@@@@#@**:;>122255553333335555555555525555353355555555555533333",
"222522523222225222252322222222325<<<55<555<555<<222<>>::********$$**$:::>11<2222232323232232323225252525255252222223532332333",
"22<22<2<22222<<222<2222222222222<5<<<<<<<<<<<<<<<<>>>>>:::=-=;:=::::::::>>>1<<22<2<2<<2<22<22<2<>2>2222>2>>22222222><<<<<2<<2",
"D>>>><>><>>>><::>>>>>>>>>>>><>::><>>>><<>>>>>>:>>>>>:::::::-:=:-::::::::>>>>>><>>>>>>>>>>>>>>>::>>>>>>>>>>>>>>::>>>>>>>>>>>>D",
"D>>::>>>:>:>::::>:>>:>>>>>>>::::>>>>>>>>>>>>>>::>>::>:::::-:;:;::::::::::>:>>::>>>>:>>>>>>>>:>::>>>>>>>>>>>>::::>>>>>>>>>>>>D",
"D>:::::::::::::::::::::::::::::::::::::::::::::::::::::::-::::::::::::::::::::::::::::::::::::::::::::::::::::::::::::::::::D",
"DD::$:$::::$::::::::$:::::$:$:::::::$:::#::::::#::$:::$:=-=:==:==:=====:$::$::$:::::$:::$::$:::::::::$:::%:$::::::::$:$:=:=DD",
"DD>::::$:$::$:::::$:::$$:$::::$:::$::::$#:#:::::$:::$$::*===*:**:==:$:=::$::$:::::$$::$:$::$:$::::::#:#:::$:$:$:::$::::$===DD",
"DDD:O$$$$$#$#$####$$#$$$$$#$#$$$O$$O$$#:#:#O##O#$#$$$$$$$$$$$$$$$$$$$$#$$$$$##$$#$$$$$$$$$$$$##$#####:#O$$$$$$$$#$$$O$$$$$DDD",
"DDD%O:O##$###$#$$##$##$#$#$##$#$###$$$#$##:O###:##$#$#$##$#$$#$$$$##$#$###$$$$#$##$$$$$$$$$$$#$$#$$$#$#:##$$#$#$#$#$$O$$$$DDD",
"DDDD#O#O############O################O#######O##################O##########O####O#O##O##O##O#O#O#####OOo###############O$DDDD",
"DDDDD#OOOOOOOOOOOOOOOOOOOOOOOOOOOOOOOOOOOOOOOOOOOOOOOO#OOOOO#OOOO#OOOOO#OOOOOOOOOOOOOOOOOOOOOOOOo#OOOOOOO#O#OOOOo#O#OOOODDDDD",
"DDDDDDDOoOoOoOoooOooOooOooOooOoOooooOoOoooooOoooooOoooooooooooooOoooooOXOOXOooOOOoOoOoooOOOoOOOoooooooooooooooooooooO#DDDDDDD",
"DDDDDDDDDoXXX......................................................X X.X X XX X.X..X....X........................X.XDDDDDDDDD",
"DDDDDDDDDDDD..  . .  .     .    .   .     .   . .      . .                                  .            .. .  ..DDDDDDDDDDDD"
};
