/* XPM */
static char *xpm_[] = {
/* columns rows colors chars-per-pixel */
"158 34 78 1 ",
"  c None",
". c #585C63",
"X c #585D63",
"o c #585D64",
"O c #5B6066",
"+ c #5C6067",
"@ c #5C6167",
"# c #5F6369",
"$ c #5F646A",
"% c #60646A",
"& c #62676C",
"* c #62676D",
"= c #63676D",
"- c #63686D",
"; c #656A6F",
": c #666A6F",
"> c #666A70",
", c #666B70",
"< c #696E73",
"1 c #6A6E73",
"2 c #6A6F73",
"3 c #6A6F74",
"4 c #6D7176",
"5 c #6D7276",
"6 c #6D7277",
"7 c #707579",
"8 c #717579",
"9 c #71757A",
"0 c #73787C",
"q c #74787C",
"w c #74797C",
"e c #74797D",
"r c #777C7F",
"t c #787C7F",
"y c #787C80",
"u c #7A7F82",
"i c #7B7F82",
"p c #7B8083",
"a c #7E8285",
"s c #7E8385",
"d c #7F8385",
"f c #7F8386",
"g c #818688",
"h c #828688",
"j c #828689",
"k c #85898B",
"l c #858A8B",
"z c #858A8C",
"x c #868A8C",
"c c #888D8E",
"v c #898D8E",
"b c #898D8F",
"n c #898E8F",
"m c #8C9091",
"M c #8C9092",
"N c #8C9192",
"B c #8D9192",
"V c #8F9394",
"C c #909494",
"Z c #909495",
"A c #939797",
"S c #939798",
"D c #949898",
"F c #969A9A",
"G c #979A9A",
"H c #979A9B",
"J c #979B9B",
"K c #9A9E9D",
"L c #9A9E9E",
"P c #9B9E9E",
"I c #9B9F9E",
"U c #9DA1A0",
"Y c #9DA1A1",
"T c #9EA1A1",
"R c #9EA2A1",
"E c #A1A5A4",
"W c #A2A5A4",
"Q c #A2A6A4",
/* pixels */
"                                                                                                                                                              ",
"                                                                                                                                                              ",
"                                                                                                                                                              ",
"                                                                                                                                                              ",
"                                                                                                                                                              ",
"                                                                                                                                                              ",
"      QQWWQQQQQQWWWWWWWWWWRWQQWWQQQQQQQQQQEWW               QQQRQQEQQRWWWWRWQQWWQQEQQQQQQQEEQQQWQQQ              QQEQQEQQQRQQQQQEEQQQQRQQQEEQEEWWWWWWRWW      ",
"      RRPRRRPRPRRRYYRRYRRRRRYRYRRPRRPRRRRRRPR               RRRRRRPRRRRRRRYYRRRRRRPYYRRPRRYYRRPRRRR              RRRRRRPRRYRRPRRRRRPRRRRRRYRRRRPRRRRRRRR      ",
"      KKKKKKKKPKKKPKIPPHYLKKYHYKKPKPKKKKKKKKK               KKKKKKKPKKPPYYKKKYJKKKYKKKKKKKKKKKKKYJY              KKKKKKPYHYKKHYKPKKKKKKKKKKKPKPKYKKYKKKK      ",
"      JJJJJJHHHJJJJHHHHHJJJJJJJJHHHHKHJJJJJJH               JJJJKHHHJHHHJSJJJJJJHHJJJJJJJJJJJKHHJJJ              JJJHHHHJJJHJJJJHHHHKHJJJJJJJHHHJJJDHHKJ      ",
"      SSSSJASSSAJASSJAASSSSSSSSSSSSSASSSSJASJ               SASJSSSSSSSSSSSSSSSSSSSSSSSSSSASSAASSSS              SSSJASSSSSSSSSSSSSASJASSSAASJSASSSSSSSS      ",
"      VVVVVVCCCCVVVCCBCCVVVZVVVVCCCCCCVCVVVBA               VVVVVVCCCCCCVVVSVVVVCCCCVVCCCVVAVVBAVBA              VVCVVCCZVZCCVVVCCCCVVVVVVAVBVCCVVVVCCCC      ",
"      BBBBMMBMMMbBBBMMMCMBMMMMMMBMBMMMBMBbBBB               VMBMMBMBMMBMCMMMVbVMBBMBMBBBVBbBBBBBBMB              BBBBMMBBBMVBMBMMMBMBMMVBMMBMBMBMVBBMMBM      ",
"      cccccbccMxbbbcccvccccbbbcccbcccbccccbbc               bbbbcbccccccxcccccccbxcbcbcbxbbbccccbcc              ccccccccbxxcbccMxcccccxbcbcccccbxccccbc      ",
"      llxxxxlxxlxxxxxlllxxxxlxxxxxxxxxxxxxxlx               zxxxxxxxxxxxxxxxxxxxxxxxxxxxxxxxlxxxxxx              xxxxxxxxxxxxxxxlxlxxxxxxxxxxxllxxxxxxxx      ",
"      gggggghghgggggghghhhgggggggghgggggggggg               fgggggggghgghggggggghgggggggggggggggggg              gggggghghgggggghhghgggggggggghhgggggggg      ",
"      aaaaaafafffaahagaagaaaaaaaagaagiaaaaaaa               aafaaagaaaagaagaagaaaagaaaaaaagaagaaaaa              aaaafaafsaaaagagaagaaaaaafaaaaaaagaaaag      ",
"      ppuauupupppuuuupuuuuuuauppiuuuiiuuuuuau               pppuiiiuuuuuuuuuuuuuuaiipuuauuuuituuaiu              pauppppupuuuuuuiuuuuuuappupuuauiuuuuuuu      ",
"      rrrrrttttrrrrrrrrrtrttttrrurrrtttrrrrtr               rrrrutyyrrtyrrrrtrrtrtttrrrtrrrrttrtrtr              rrrrryrrrrrytrtrrrrrttttrrtrrrrtttrttrr      ",
"      wwwwr9ww9wqr9qwwwwqqwqr9ww9wwwqqqrqwr9r               wwwwq0q0qqqqwwwwqqqqw9r99wr9wwwwqwqw0wr              r9wwwwwwwqrqqw9wwwwqwq99wwwwwwwqqwqwwww      ",
"      999777777999999957995759999797977795999               777777798999979977777995999997997777999              979775777779999997977979999797999959979      ",
"      454444444444444444454444444444444444444               444444443444444444445444444444444444444              444444444444444444454444444544444454444      ",
"      <42<<<4<33<<<<4<444<4<44<<<<<<<<<<<<<<4               <<<3<2<42<<<<<<43<<<4<<4<<4<<<<43<<<<<<              4<<44<422<<<<<<<<4<4<3<4<<<4<<<<44<<<4<      ",
"      :::,,,>:>>::>:::-;:;;;-;:::::<>><><::::               <>>>:::>:>>>:::>>><>:::::::::::>>><><>:              >:>-;;::::<;::;-<->::>>::::::::::::>::>      ",
"      **-*****--*--*--*-----*---*:*-**----*-*               ----=**:-**-*------*-----**-*------*%:-              *----*-=:-**-*-***--***--------%-----**      ",
"      ####$$$###$###$$#########$#############               ####%%####%###$##%$$######%###$##%$$###              $$#########%######$$$##$#$##$######$$$#      ",
"      #Oo##OO#OOOOO#OO#OOO#OOOOO@@@@O#OOO#O@#               OO#OO@OO@@@@OOO##oo#OOOO@@@@OOO##oo#OO@              #OOO#O@@@@@#O#Oo##OO#o#OOOOO##oOOOO#OOO      ",
"      XooXooooooooooooooXXXooooo.Xoooooo.ooXo               ooXooXoXoXXXo.ooooooOXoooXXXo.ooooooXXo              ooo.ooXXXoX.XooooooooooooXoooooOooooooo      ",
"                                                                                                                                                              ",
"                                                                                                                                                              ",
"                                                                                                                                                              ",
"                                                                                                                                                              ",
"                                                                                                                                                              ",
"                                                                                                                                                              "
};
