/* XPM */
static char *_66daf2594af4795fe2c89a0372694b5[] = {
/* columns rows colors chars-per-pixel */
"40 40 58 1 ",
"  c black",
". c #070707",
"X c #090909",
"o c #0C0C0C",
"O c gray7",
"+ c gray9",
"@ c gray10",
"# c #1E1E1E",
"$ c gray14",
"% c #252525",
"& c gray17",
"* c #2D2D2D",
"= c gray19",
"- c #3A3A3A",
"; c gray24",
": c #484848",
"> c gray30",
", c #505050",
"< c #555555",
"1 c gray37",
"2 c gray38",
"3 c gray40",
"4 c gray42",
"5 c #6D6D6D",
"6 c #717171",
"7 c #747474",
"8 c #838383",
"9 c gray53",
"0 c #898989",
"q c #8E8E8E",
"w c gray57",
"e c #979797",
"r c gray60",
"t c gray62",
"y c #A2A2A2",
"u c gray65",
"i c #ACACAC",
"p c gray68",
"a c gray70",
"s c gray71",
"d c #BBBBBB",
"f c #BCBCBC",
"g c #C0C0C0",
"h c #C6C6C6",
"j c #C8C8C8",
"k c #CDCDCD",
"l c #D2D2D2",
"z c #D5D5D5",
"x c #D8D8D8",
"c c gainsboro",
"v c #E1E1E1",
"b c #E6E6E6",
"n c #E9E9E9",
"m c gray93",
"M c #F1F1F1",
"N c gray96",
"B c #FBFBFB",
"V c gray100",
/* pixels */
"VVVVVVVVVVVVVVVVVVVVVVVVVVVVVVVVVVVVVVVV",
"VVVVVVVVVVVVVVVVVVVVVVVVVVVVVVVVVVVVVVVV",
"VVVVVVVVVVVVVVVVVVVVVVVVVVVVVVVVVVVVVVVV",
"VVVVVVVVVVVVVVVVVVVVVVVVVVVVVVVVVVVVVVVV",
"VVVVVVVVVVVVVVVVVVVVVVVVVVVVVVVVVVVVVVVV",
"VVVVVVVVVVVVVVVVVVVVVVVVVVVVVVVVVVVVVVVV",
"VVVVVVVVVVVVVVVVVVVVVVVVVVVVVVVVVVVVVVVV",
"VVVVVVVVVVVVVVVVVVVVVVVVVVVVVVVVVVVVVVVV",
"VVVVVVVVVVVVVVVVVVVVVVVVVVVVVVVVVVVVVVVV",
"VVVVVVVVVVVVVVVVVVVVVVVVVVVVVVVVVVVVVVVV",
"VVVVVVVVVVVVVVVVVVVVVVVVVVVVVVVVVVVVVVVV",
"VVVVVVVVVVVVVVVVVVVVVVVVVVVVVVVVVVVVVVVV",
"VVVVVVVVVVVVVVVVVVVVVVVVVVVVVVVVVVVVVVVV",
"VVVVVVVVVVVVVVVVVVVVVVVVVVVVVVVVVVVVVVVV",
"NMVVmrdgkdfgukg.0npdpq531:<BVVVVVVVVVVVV",
"vwBN*++#q>;-6clusr*:::>,>,=cVVVVVVVVVVVV",
"Mpk4+xdlgoO +unz+ +%+$#+#&*6u088qq09jVVV",
"VVVVVVVVVmnhu; jbs2X+O+$O  +X       XVVV",
"VVVVVVVVVVVVVVVVVVr57bVVn: vV+  .   =VVV",
"VVVVVVVVVVVVVVVVVnedpBVVV3 NVV0     9VVV",
"VVVVVVVVVVVVVVVVVauwgVVVVl rVVVbO   uVVV",
"VVVVVVVVVVVVVVVVx8t7MVVVVB  BVVVV9  vVVV",
"VVVVVVVVVVVVVVVv0q3hVVVVVVi6VVVVVVl+BVVV",
"VVVVVVVVVVVVVVVf37gVVVVVVVVVVVVVVVVVVVVV",
"VVVVVVVVVVVVVVVVfxVVVVVVVVVVVVVVVVVVVVVV",
"VVVVVVVVVVVVVVVVVVVVVVVVVVVVVVVVVVVVVVVV",
"VVVVVVVVVVVVVVVVVVVVVVVVVVVVVVVVVVVVVVVV",
"VVVVVVVVVVVVVVVVVVVVVVVVVVVVVVVVVVVVVVVV",
"VVVVVVVVVVVVVVVVVVVVVVVVVVVVVVVVVVVVVVVV",
"VVVVVVVVVVVVVVVVVVVVVVVVVVVVVVVVVVVVVVVV",
"VVVVVVVVVVVVVVVVVVVVVVVVVVVVVVVVVVVVVVVV",
"VVVVVVVVVVVVVVVVVVVVVVVVVVVVVVVVVVVVVVVV",
"VVVVVVVVVVVVVVVVVVVVVVVVVVVVVVVVVVVVVVVV",
"VVVVVVVVVVVVVVVVVVVVVVVVVVVVVVVVVVVVVVVV",
"VVVVVVVVVVVVVVVVVVVVVVVVVVVVVVVVVVVVVVVV",
"VVVVVVVVVVVVVVVVVVVVVVVVVVVVVVVVVVVVVVVV",
"VVVVVVVVVVVVVVVVVVVVVVVVVVVVVVVVVVVVVVVV",
"VVVVVVVVVVVVVVVVVVVVVVVVVVVVVVVVVVVVVVVV",
"VVVVVVVVVVVVVVVVVVVVVVVVVVVVVVVVVVVVVVVV",
"VVVVVVVVVVVVVVVVVVVVVVVVVVVVVVVVVVVVVVVV"
};
