/* XPM */
static char *_90ba11a1f364679f56accf74a54b3f0[] = {
/* columns rows colors chars-per-pixel */
"40 40 27 1 ",
"  c black",
". c #060606",
"X c #0B0B0B",
"o c #0E0E0E",
"O c #101010",
"+ c gray8",
"@ c gray10",
"# c #1D1D1D",
"$ c gray15",
"% c gray17",
"& c #2F2F2F",
"* c #323232",
"= c gray22",
"- c #3A3A3A",
"; c #3C3C3C",
": c #414141",
"> c #464646",
", c #494949",
"< c gray31",
"1 c gray32",
"2 c gray34",
"3 c #5B5B5B",
"4 c gray37",
"5 c gray38",
"6 c #646464",
"7 c DimGray",
"8 c #747474",
/* pixels */
"::::::::::::::::::::::::::::::::::::::::",
"::::::::::::::::::::::::::::::::::::::::",
"::::::::::::::::::::::::::::::::::::::::",
"::::::::::::::::::::::::::::::::::::::::",
"::::::::::::::::::::::::::::::::::::::::",
"::::::::::::::::::::::::::::::::::::::::",
"::::::::::::::::::::::::::::::::::::::::",
"::::::::::::::::::::::::::::::::::::::::",
"::::::::::::::::::::::::::::::::::::::::",
"::::::::::::::::::::::::::::::::::::::::",
"::::::::::::::::::::::::::::::::::::::::",
"::::::::::::::::::::::::::::::::::::::::",
"::::::::::::::::::::::::::::::::::::::::",
":::::::::::;:::,,::::::::::;::::::::::::",
"34::51247333265.26122,-**$%3::::::::::::",
"6114@O+#1:;-156445*>:><1<1&7::::::::::::",
"546;X6885XO O356X @$@####&$<4,,,<<<,6>::",
":::,::::<4432$ 563-.+XXXX  @X       .1::",
":::::::::::::::::,2225:15% 53O  X   #:::",
":::::::::::::::::5<321:::- 4:,<     <:::",
"::::::::::::::::>43<5::::5 2:::6X   3:::",
"::::::::::::::::5>2:4::::2  2;::,,  5:::",
":::::::::::::::61<-5::::::3:,:::::6O3:::",
":::::::::::::::5-:5,:::::::::::::::>::::",
":::::::::::::::,56>:::::::::::::::::::::",
"::::::::::::::::>:::::::::::::::::::::::",
"::::::::::::::::::::::::::::::::::::::::",
"::::::::::::::::::::::::::::::::::::::::",
"::::::::::::::::::::::::::::::::::::::::",
"::::::::::::::::::::::::::::::::::::::::",
"::::::::::::::::::::::::::::::::::::::::",
"::::::::::::::::::::::::::::::::::::::::",
"::::::::::::::::::::::::::::::::::::::::",
"::::::::::::::::::::::::::::::::::::::::",
"::::::::::::::::::::::::::::::::::::::::",
"::::::::::::::::::::::::::::::::::::::::",
"::::::::::::::::::::::::::::::::::::::::",
"::::::::::::::::::::::::::::::::::::::::",
"::::::::::::::::::::::::::::::::::::::::",
"::::::::::::::::::::::::::::::::::::::::"
};
