/* XPM */
static char *_e82566b44f74388fad65f243cd605c0[] = {
/* columns rows colors chars-per-pixel */
"40 40 54 1 ",
"  c #030303",
". c #0D0D0D",
"X c #121212",
"o c #1B1B1B",
"O c #222222",
"+ c #2C2C2C",
"@ c #323232",
"# c #3B3B3B",
"$ c #434343",
"% c #4B4B4B",
"& c #575757",
"* c #5B5B5B",
"= c #626262",
"- c #6E6E6E",
"; c #727271",
": c #797979",
"> c #878686",
", c #8E8E8E",
"< c #939393",
"1 c #9C9B9B",
"2 c #A5A5A4",
"3 c #AAABA5",
"4 c #ACACAB",
"5 c #AFB0AB",
"6 c #B1B2AD",
"7 c #B4B4B2",
"8 c #B7B8B3",
"9 c #B9BAB6",
"0 c #B7B7B8",
"q c #BDBDBC",
"w c #C0BFBD",
"e c #C1C2BB",
"r c #BFBFC1",
"t c #C4C4C4",
"y c #C8C7C5",
"u c #CBCBC5",
"i c #CCCCCB",
"p c #CFD0C9",
"a c #D3D3CE",
"s c #CECED0",
"d c #D3D3D3",
"f c #DADBD5",
"g c #D6D6D8",
"h c #DBDBDA",
"j c #DFE0DA",
"k c #E2E3DC",
"l c #E5E5E2",
"z c #E8E7E5",
"x c #E7E8E2",
"c c #EAEBE6",
"v c #EDEEEA",
"b c #F2F3EE",
"n c #F4F4F2",
"m c #F8F8F6",
/* pixels */
"&&&&&&&&&&&&&&&&&&&&&&&&&&&&&&&&&&&&&&&&",
"&&&&&&&&&&&&&&&&&&&&&&&&&&&&&&&&&&&&&&&&",
"&&&&&&&&&&&&&&&&&&&&&&&&&&&&&&&&&&&&&&&&",
"&&&&&&&&&&&&&&&&&&&&&&&&&&&&&&&&&&&&&&&&",
"&&&&&&&&&&&&&&&&&&&&&&&&&&&&&&&&&&14&&&&",
"&&&&&&&&&&&&&&&&&&&&&&&&&&&&&&&&&:%%,&&&",
"&&&&&&&&&&&&&&&&&&&&&&&&&&&&&&&y&%#$$*r&",
"&&&&&&&&&&&&&&&&&&&&&&&&&&&&&&<##$&##@%&",
"&&&&&&&&&&&&&&&&&&&&&&&&&&&&t%#$$%#$#+t&",
"&&&&&&&&&&&&&&&&&&&&&&&&&&&;@$#$$$%&=,&&",
"&&&&&&&&&&&&&&&&&&&&&&&&&d$@@#%$$@=w&&&&",
"&&&&&&&&&&&&&&&&&&&&&&&r:OO+##$#@=w&&&&&",
"&&&&&&&&&&&&&&&&&&&&&&,OX@#$+#@$&s&&&&&&",
"&&&&&&&&&&&&&&&&&&&&&&*X@$<&$+O=w&&&&&&&",
"&&&&&&&&&&&&&&&&&&&&&,#XO#q1O$=4&&&&&&&&",
"&&&&&&&&&&&&&&&&&&&&&4>@ O@@@=4&&&&&&&&&",
"&&&&&&&&&&&&&&&&&&&&dl2#. ...>&&&&&&&&&&",
"&&&&&&&&&&&&&&&&&&hggt04-&o  4&&&&&&&&&&",
"&&&&&&&&&&&&&&&&&dhs5dvjt:o.&h&&&&&&&&&&",
"&&&&&&&&&&&&&*&grlt2gjxxd%Oo$&&&&&&&&&&&",
"&&&&&&&&&&&&&vaui39cnckc70g&&&&&&&&&&&&&",
"&&&&&&&&&&&&&u8e3ixfjblpl&&&&&&&&&&&&&&&",
"&&&&&&&&&&&d6882kcuejfpxb&&&&&&&&&&&&&&&",
"&&&&&&&&&&i6989xxuujkfjb&&&&&&&&&&&&&&&&",
"=&&&&&&&&idi5tckeajfhx&&&&&&&&&&&&&&&&&&",
"&&&&&&&&ggt7pxfexjfkv*&&&&&&&&&&&&&&&&&&",
"&&&&&&&sd05scfpxkfdk;&=&&&&&&&&&&&&&&&&&",
"&&&&&&ggt7lm83fjpaj*&&&&&&&&&&&&&&&&&&&&",
"&&&&&sshhnvhkxapf&&&&&&&&&&&&&&&&&&&&&&&",
"&&&&hdssdhhgapfx:&&&&&&&&&&&&&&&&&&&&&&&",
"&&&misssdhaupjx&&&&&&&&&&&&&&&&&&&&&&&&&",
"&&zsrridytufjx&&&&&&&&&&&&&&&&&&&&&&&&&&",
"&zsr9w94yshj,>&&&&&&&&&&&&&&&&&&&&&&&&&&",
"&4:>13wfdb;**&&&&&&&&&&&&&&&&&&&&&&&&&&&",
"*yrdggg****&&&&&&&&&&&&&&&&&&&&&&&&&&&&&",
"&&&*&=-&**&&&&&&&&&&&&&&&&&&&&&&&&&&&&&&",
"&&&&&&&&&&&&&&&&&&&&&&&&&&&&&&&&&&&&&&&&",
"&&&&&&&&&&&&&&&&&&&&&&&&&&&&&&&&&&&&&&&&",
"&&&&&&&&&&&*&&&&&&&&&&&&&&&&&&&&&&&&&&&&",
"&&&&&&&&&&&&&&&&&&&&&&&&&&&&&&&&&&&&&&&&"
};
