/* XPM */
static char *ea9113723a574589fd4db685f01ea760[] = {
/* columns rows colors chars-per-pixel */
"40 40 56 1 ",
"  c #030303",
". c #0D0D0D",
"X c #121212",
"o c #1B1B1B",
"O c #222222",
"+ c #2C2C2C",
"@ c #323232",
"# c #3B3B3B",
"$ c #434343",
"% c #4B4B4B",
"& c #545454",
"* c #5B5B5B",
"= c #626262",
"- c #6F6F6F",
"; c #717171",
": c #7A7A79",
"> c #878685",
", c #8E8E8E",
"< c gray59",
"1 c #9C9B9B",
"2 c #A5A5A4",
"3 c #AAABA5",
"4 c #ACACAB",
"5 c #AFB0AB",
"6 c #B1B2AD",
"7 c #B4B4B2",
"8 c #B7B8B3",
"9 c #B9BAB6",
"0 c #B7B7B8",
"q c #BDBDBC",
"w c #C0BFBD",
"e c #C1C2BB",
"r c #BFBFC1",
"t c #C4C4C4",
"y c #C8C7C5",
"u c #CBCBC5",
"i c #CCCCCB",
"p c #CFD0C9",
"a c #D3D3CE",
"s c #CECED0",
"d c #D3D3D3",
"f c #DADBD5",
"g c #D6D6D8",
"h c #DBDBDA",
"j c #DFE0DA",
"k c #E2E3DC",
"l c #E5E5E2",
"z c #E8E7E5",
"x c #E7E8E2",
"c c #EAEBE6",
"v c #EDEEEA",
"b c #F2F2EE",
"n c #F4F4F3",
"m c #F7F8F5",
"M c #F9F9F7",
"N c #FFFFFF",
/* pixels */
"NNNNNNNNNNNNNNNNNNNNNNNNNNNNNNNNNNNNNNNN",
"NNNNNNNNNNNNNNNNNNNNNNNNNNNNNNNNNNNNNNNN",
"NNNNNNNNNNNNNNNNNNNNNNNNNNNNNNNNNNNNNNNN",
"NNNNNNNNNNNNNNNNNNNNNNNNNNNNNNNNNNNNNNNN",
"NNNNNNNNNNNNNNNNNNNNNNNNNNNNNNNNNN13NNNN",
"NNNNNNNNNNNNNNNNNNNNNNNNNNNNNNNNN:%%,NNN",
"NNNNNNNNNNNNNNNNNNNNNNNNNNNNNNNy*%#$$*qN",
"NNNNNNNNNNNNNNNNNNNNNNNNNNNNNN,##$&##@%N",
"NNNNNNNNNNNNNNNNNNNNNNNNNNNNy%#$$%#$#+tN",
"NNNNNNNNNNNNNNNNNNNNNNNNNNN;@$#$$$%*=,NN",
"NNNNNNNNNNNNNNNNNNNNNNNNNd$@+$%$$@=qNNNN",
"NNNNNNNNNNNNNNNNNNNNNNNt:OO+####@=qNNNNN",
"NNNNNNNNNNNNNNNNNNNNNN,OX@#$@##$*iNNNNNN",
"NNNNNNNNNNNNNNNNNNNNNN*X@$<&$Oo=qNNNNNNN",
"NNNNNNNNNNNNNNNNNNNNN,#XO#q1+$=4NNNNNNNN",
"NNNNNNNNNNNNNNNNNNNNN2>+.O@@+=4NNNNNNNNN",
"NNNNNNNNNNNNNNNNNNNNgl2#.  X.>NNNNNNNNNN",
"NNNNNNNNNNNNNNNNNNggdt04-&o  4NNNNNNNNNN",
"NNNNNNNNNNNNNNNNNsgd6dvkt:oX&hNNNNNNNNNN",
"NNNNNNNNNNNNNNNdrly3gjkxd%Oo$NNNNNNNNNNN",
"NNNNNNNNNNNNNvaup28cmxlc77gNNNNNNNNNNNNN",
"NNNNNNNNNNNNNu8q3pxfjbkplNNNNNNNNNNNNNNN",
"NNNNNNNNNNNd6983kcuejfpxbNNNNNNNNNNNNNNN",
"NNNNNNNNNNy6988xxuujkfkbNNNNNNNNNNNNNNNN",
"NNNNNNNNNiai5tvkeajjhxNNNNNNNNNNNNNNNNNN",
"NNNNNNNNggt8plgexffjcMNNNNNNNNNNNNNNNNNN",
"NNNNNNNds05acfuxkfakNNNNNNNNNNNNNNNNNNNN",
"NNNNNNggt7lM93fkpajmMNNNNNNNNNNNNNNNNNNN",
"NNNNNdshhnvhkkapjNNNNNNNNNNNNNNNNNNNNNNN",
"NNNNgdssgghgaafkmNNNNNNNNNNNNNNNNNNNNNNN",
"NNNnisssdgauajkMNNNNNNNNNNNNNNNNNNNNNNNN",
"NNlsrridytpfjxNNNNNNNNNNNNNNNNNNNNNNNNNN",
"Nziqqw93yahhbMNNNNNNNNNNNNNNNNNNNNNNNNNN",
"N4:>13wgdbMMNNNNNNNNNNNNNNNNNNNNNNNNNNNN",
"NywaaggnMMNNNNNNNNNNNNNNNNNNNNNNNNNNNNNN",
"NNNMbnNNNNNNNNNNNNNNNNNNNNNNNNNNNNNNNNNN",
"NNNNNNNNNNNNNNNNNNNNNNNNNNNNNNNNNNNNNNNN",
"NNNNNNNNNNNNNNNNNNNNNNNNNNNNNNNNNNNNNNNN",
"NNNNNNNNNNNNNNNNNNNNNNNNNNNNNNNNNNNNNNNN",
"NNNNNNNNNNNNNNNNNNNNNNNNNNNNNNNNNNNNNNNN"
};
